# MagicaVoxel @ Ephtracy

# material
mtllib Fence.mtl
usemtl palette

# normals
vn -1 0 0
vn 1 0 0
vn 0 0 1
vn 0 0 -1
vn 0 -1 0
vn 0 1 0

# texcoords
vt 0.974609 0.5
vt 0.978516 0.5

# verts
v -8 0 4
v -8 0 1
v -8 0 -1
v -8 0 -4
v -8 9 4
v -8 9 1
v -8 9 -1
v -8 9 -4
v -6 3 1
v -6 3 -1
v -6 6 1
v -6 6 -1
v -3 2 2
v -3 2 -2
v -3 3 3
v -3 3 2
v -3 3 -2
v -3 3 -3
v -3 6 3
v -3 6 2
v -3 6 -2
v -3 6 -3
v -3 7 2
v -3 7 -2
v 2 2 2
v 2 2 1
v 2 2 -1
v 2 2 -2
v 2 3 3
v 2 3 2
v 2 3 1
v 2 3 -1
v 2 3 -2
v 2 3 -3
v 2 6 3
v 2 6 2
v 2 6 1
v 2 6 -1
v 2 6 -2
v 2 6 -3
v 2 7 2
v 2 7 1
v 2 7 -1
v 2 7 -2
v 5 0 4
v 5 0 1
v 5 0 -1
v 5 0 -4
v 5 3 2
v 5 3 1
v 5 3 -1
v 5 3 -2
v 5 6 2
v 5 6 1
v 5 6 -1
v 5 6 -2
v 5 9 4
v 5 9 1
v 5 9 -1
v 5 9 -4
v -5 0 4
v -5 0 1
v -5 0 -1
v -5 0 -4
v -5 3 2
v -5 3 1
v -5 3 -1
v -5 3 -2
v -5 6 2
v -5 6 1
v -5 6 -1
v -5 6 -2
v -5 9 4
v -5 9 1
v -5 9 -1
v -5 9 -4
v -2 2 2
v -2 2 1
v -2 2 -1
v -2 2 -2
v -2 3 3
v -2 3 2
v -2 3 1
v -2 3 -1
v -2 3 -2
v -2 3 -3
v -2 6 3
v -2 6 2
v -2 6 1
v -2 6 -1
v -2 6 -2
v -2 6 -3
v -2 7 2
v -2 7 1
v -2 7 -1
v -2 7 -2
v 3 2 2
v 3 2 -2
v 3 3 3
v 3 3 2
v 3 3 -2
v 3 3 -3
v 3 6 3
v 3 6 2
v 3 6 -2
v 3 6 -3
v 3 7 2
v 3 7 -2
v 6 3 1
v 6 3 -1
v 6 6 1
v 6 6 -1
v 8 0 4
v 8 0 1
v 8 0 -1
v 8 0 -4
v 8 9 4
v 8 9 1
v 8 9 -1
v 8 9 -4
v -8 0 4
v -8 9 4
v -5 0 4
v -5 9 4
v 5 0 4
v 5 9 4
v 8 0 4
v 8 9 4
v -3 3 3
v -3 6 3
v -2 3 3
v -2 6 3
v 2 3 3
v 2 6 3
v 3 3 3
v 3 6 3
v -5 3 2
v -5 6 2
v -3 2 2
v -3 3 2
v -3 6 2
v -3 7 2
v -2 2 2
v -2 3 2
v -2 6 2
v -2 7 2
v 2 2 2
v 2 3 2
v 2 6 2
v 2 7 2
v 3 2 2
v 3 3 2
v 3 6 2
v 3 7 2
v 5 3 2
v 5 6 2
v -2 2 1
v -2 3 1
v -2 6 1
v -2 7 1
v 2 2 1
v 2 3 1
v 2 6 1
v 2 7 1
v -8 0 -1
v -8 9 -1
v -6 3 -1
v -6 6 -1
v -5 0 -1
v -5 3 -1
v -5 6 -1
v -5 9 -1
v 5 0 -1
v 5 3 -1
v 5 6 -1
v 5 9 -1
v 6 3 -1
v 6 6 -1
v 8 0 -1
v 8 9 -1
v -8 0 1
v -8 9 1
v -6 3 1
v -6 6 1
v -5 0 1
v -5 3 1
v -5 6 1
v -5 9 1
v 5 0 1
v 5 3 1
v 5 6 1
v 5 9 1
v 6 3 1
v 6 6 1
v 8 0 1
v 8 9 1
v -2 2 -1
v -2 3 -1
v -2 6 -1
v -2 7 -1
v 2 2 -1
v 2 3 -1
v 2 6 -1
v 2 7 -1
v -5 3 -2
v -5 6 -2
v -3 2 -2
v -3 3 -2
v -3 6 -2
v -3 7 -2
v -2 2 -2
v -2 3 -2
v -2 6 -2
v -2 7 -2
v 2 2 -2
v 2 3 -2
v 2 6 -2
v 2 7 -2
v 3 2 -2
v 3 3 -2
v 3 6 -2
v 3 7 -2
v 5 3 -2
v 5 6 -2
v -3 3 -3
v -3 6 -3
v -2 3 -3
v -2 6 -3
v 2 3 -3
v 2 6 -3
v 3 3 -3
v 3 6 -3
v -8 0 -4
v -8 9 -4
v -5 0 -4
v -5 9 -4
v 5 0 -4
v 5 9 -4
v 8 0 -4
v 8 9 -4
v -8 0 4
v -5 0 4
v 5 0 4
v 8 0 4
v -8 0 1
v -5 0 1
v 5 0 1
v 8 0 1
v -8 0 -1
v -5 0 -1
v 5 0 -1
v 8 0 -1
v -8 0 -4
v -5 0 -4
v 5 0 -4
v 8 0 -4
v -3 2 2
v -2 2 2
v 2 2 2
v 3 2 2
v -2 2 1
v 2 2 1
v -2 2 -1
v 2 2 -1
v -3 2 -2
v -2 2 -2
v 2 2 -2
v 3 2 -2
v -3 3 3
v -2 3 3
v 2 3 3
v 3 3 3
v -5 3 2
v -3 3 2
v -2 3 2
v 2 3 2
v 3 3 2
v 5 3 2
v -6 3 1
v -5 3 1
v -2 3 1
v 2 3 1
v 5 3 1
v 6 3 1
v -6 3 -1
v -5 3 -1
v -2 3 -1
v 2 3 -1
v 5 3 -1
v 6 3 -1
v -5 3 -2
v -3 3 -2
v -2 3 -2
v 2 3 -2
v 3 3 -2
v 5 3 -2
v -3 3 -3
v -2 3 -3
v 2 3 -3
v 3 3 -3
v -3 6 3
v -2 6 3
v 2 6 3
v 3 6 3
v -5 6 2
v -3 6 2
v -2 6 2
v 2 6 2
v 3 6 2
v 5 6 2
v -6 6 1
v -5 6 1
v -2 6 1
v 2 6 1
v 5 6 1
v 6 6 1
v -6 6 -1
v -5 6 -1
v -2 6 -1
v 2 6 -1
v 5 6 -1
v 6 6 -1
v -5 6 -2
v -3 6 -2
v -2 6 -2
v 2 6 -2
v 3 6 -2
v 5 6 -2
v -3 6 -3
v -2 6 -3
v 2 6 -3
v 3 6 -3
v -3 7 2
v -2 7 2
v 2 7 2
v 3 7 2
v -2 7 1
v 2 7 1
v -2 7 -1
v 2 7 -1
v -3 7 -2
v -2 7 -2
v 2 7 -2
v 3 7 -2
v -8 9 4
v -5 9 4
v 5 9 4
v 8 9 4
v -8 9 1
v -5 9 1
v 5 9 1
v 8 9 1
v -8 9 -1
v -5 9 -1
v 5 9 -1
v 8 9 -1
v -8 9 -4
v -5 9 -4
v 5 9 -4
v 8 9 -4

# faces
f 5/1/1 2/1/1 1/1/1
f 6/1/1 2/1/1 5/1/1
f 7/1/1 4/1/1 3/1/1
f 8/1/1 4/1/1 7/1/1
f 11/1/1 10/1/1 9/1/1
f 12/1/1 10/1/1 11/1/1
f 16/2/1 14/2/1 13/2/1
f 17/2/1 14/2/1 16/2/1
f 19/2/1 16/2/1 15/2/1
f 20/2/1 16/2/1 19/2/1
f 21/2/1 18/2/1 17/2/1
f 22/2/1 18/2/1 21/2/1
f 23/2/1 21/2/1 20/2/1
f 24/2/1 21/2/1 23/2/1
f 30/2/1 26/2/1 25/2/1
f 31/2/1 26/2/1 30/2/1
f 32/2/1 28/2/1 27/2/1
f 33/2/1 28/2/1 32/2/1
f 35/2/1 30/2/1 29/2/1
f 36/2/1 30/2/1 35/2/1
f 39/2/1 34/2/1 33/2/1
f 40/2/1 34/2/1 39/2/1
f 41/2/1 37/2/1 36/2/1
f 42/2/1 37/2/1 41/2/1
f 43/2/1 39/2/1 38/2/1
f 44/2/1 39/2/1 43/2/1
f 49/1/1 46/1/1 45/1/1
f 50/1/1 46/1/1 49/1/1
f 51/1/1 48/1/1 47/1/1
f 52/1/1 48/1/1 51/1/1
f 53/1/1 49/1/1 45/1/1
f 56/1/1 48/1/1 52/1/1
f 57/1/1 54/1/1 53/1/1
f 57/1/1 53/1/1 45/1/1
f 58/1/1 54/1/1 57/1/1
f 59/1/1 56/1/1 55/1/1
f 60/1/1 48/1/1 56/1/1
f 60/1/1 56/1/1 59/1/1
f 61/1/2 62/1/2 65/1/2
f 65/1/2 62/1/2 66/1/2
f 63/1/2 64/1/2 67/1/2
f 67/1/2 64/1/2 68/1/2
f 61/1/2 65/1/2 69/1/2
f 68/1/2 64/1/2 72/1/2
f 69/1/2 70/1/2 73/1/2
f 61/1/2 69/1/2 73/1/2
f 73/1/2 70/1/2 74/1/2
f 71/1/2 72/1/2 75/1/2
f 72/1/2 64/1/2 76/1/2
f 75/1/2 72/1/2 76/1/2
f 77/2/2 78/2/2 82/2/2
f 82/2/2 78/2/2 83/2/2
f 79/2/2 80/2/2 84/2/2
f 84/2/2 80/2/2 85/2/2
f 81/2/2 82/2/2 87/2/2
f 87/2/2 82/2/2 88/2/2
f 85/2/2 86/2/2 91/2/2
f 91/2/2 86/2/2 92/2/2
f 88/2/2 89/2/2 93/2/2
f 93/2/2 89/2/2 94/2/2
f 90/2/2 91/2/2 95/2/2
f 95/2/2 91/2/2 96/2/2
f 97/2/2 98/2/2 100/2/2
f 100/2/2 98/2/2 101/2/2
f 99/2/2 100/2/2 103/2/2
f 103/2/2 100/2/2 104/2/2
f 101/2/2 102/2/2 105/2/2
f 105/2/2 102/2/2 106/2/2
f 104/2/2 105/2/2 107/2/2
f 107/2/2 105/2/2 108/2/2
f 109/1/2 110/1/2 111/1/2
f 111/1/2 110/1/2 112/1/2
f 113/1/2 114/1/2 117/1/2
f 117/1/2 114/1/2 118/1/2
f 115/1/2 116/1/2 119/1/2
f 119/1/2 116/1/2 120/1/2
f 123/1/3 122/1/3 121/1/3
f 124/1/3 122/1/3 123/1/3
f 127/1/3 126/1/3 125/1/3
f 128/1/3 126/1/3 127/1/3
f 131/2/3 130/2/3 129/2/3
f 132/2/3 130/2/3 131/2/3
f 135/2/3 134/2/3 133/2/3
f 136/2/3 134/2/3 135/2/3
f 140/1/3 138/1/3 137/1/3
f 141/1/3 138/1/3 140/1/3
f 143/2/3 140/2/3 139/2/3
f 144/2/3 140/2/3 143/2/3
f 145/2/3 142/2/3 141/2/3
f 146/2/3 142/2/3 145/2/3
f 148/1/3 145/1/3 144/1/3
f 149/1/3 145/1/3 148/1/3
f 151/2/3 148/2/3 147/2/3
f 152/2/3 148/2/3 151/2/3
f 153/2/3 150/2/3 149/2/3
f 154/2/3 150/2/3 153/2/3
f 155/1/3 153/1/3 152/1/3
f 156/1/3 153/1/3 155/1/3
f 161/2/3 158/2/3 157/2/3
f 162/2/3 158/2/3 161/2/3
f 163/2/3 160/2/3 159/2/3
f 164/2/3 160/2/3 163/2/3
f 167/1/3 166/1/3 165/1/3
f 168/1/3 166/1/3 167/1/3
f 169/1/3 167/1/3 165/1/3
f 170/1/3 167/1/3 169/1/3
f 171/1/3 166/1/3 168/1/3
f 172/1/3 166/1/3 171/1/3
f 177/1/3 174/1/3 173/1/3
f 178/1/3 176/1/3 175/1/3
f 179/1/3 177/1/3 173/1/3
f 179/1/3 178/1/3 177/1/3
f 180/1/3 176/1/3 178/1/3
f 180/1/3 178/1/3 179/1/3
f 181/1/4 182/1/4 183/1/4
f 183/1/4 182/1/4 184/1/4
f 181/1/4 183/1/4 185/1/4
f 185/1/4 183/1/4 186/1/4
f 184/1/4 182/1/4 187/1/4
f 187/1/4 182/1/4 188/1/4
f 189/1/4 190/1/4 193/1/4
f 191/1/4 192/1/4 194/1/4
f 189/1/4 193/1/4 195/1/4
f 193/1/4 194/1/4 195/1/4
f 194/1/4 192/1/4 196/1/4
f 195/1/4 194/1/4 196/1/4
f 197/2/4 198/2/4 201/2/4
f 201/2/4 198/2/4 202/2/4
f 199/2/4 200/2/4 203/2/4
f 203/2/4 200/2/4 204/2/4
f 205/1/4 206/1/4 208/1/4
f 208/1/4 206/1/4 209/1/4
f 207/2/4 208/2/4 211/2/4
f 211/2/4 208/2/4 212/2/4
f 209/2/4 210/2/4 213/2/4
f 213/2/4 210/2/4 214/2/4
f 212/1/4 213/1/4 216/1/4
f 216/1/4 213/1/4 217/1/4
f 215/2/4 216/2/4 219/2/4
f 219/2/4 216/2/4 220/2/4
f 217/2/4 218/2/4 221/2/4
f 221/2/4 218/2/4 222/2/4
f 220/1/4 221/1/4 223/1/4
f 223/1/4 221/1/4 224/1/4
f 225/2/4 226/2/4 227/2/4
f 227/2/4 226/2/4 228/2/4
f 229/2/4 230/2/4 231/2/4
f 231/2/4 230/2/4 232/2/4
f 233/1/4 234/1/4 235/1/4
f 235/1/4 234/1/4 236/1/4
f 237/1/4 238/1/4 239/1/4
f 239/1/4 238/1/4 240/1/4
f 245/1/5 242/1/5 241/1/5
f 246/1/5 242/1/5 245/1/5
f 247/1/5 244/1/5 243/1/5
f 248/1/5 244/1/5 247/1/5
f 253/1/5 250/1/5 249/1/5
f 254/1/5 250/1/5 253/1/5
f 255/1/5 252/1/5 251/1/5
f 256/1/5 252/1/5 255/1/5
f 261/2/5 258/2/5 257/2/5
f 262/2/5 260/2/5 259/2/5
f 263/2/5 261/2/5 257/2/5
f 263/2/5 262/2/5 261/2/5
f 264/2/5 260/2/5 262/2/5
f 264/2/5 262/2/5 263/2/5
f 265/2/5 263/2/5 257/2/5
f 266/2/5 263/2/5 265/2/5
f 267/2/5 260/2/5 264/2/5
f 268/2/5 260/2/5 267/2/5
f 274/2/5 270/2/5 269/2/5
f 275/2/5 270/2/5 274/2/5
f 276/2/5 272/2/5 271/2/5
f 277/2/5 272/2/5 276/2/5
f 280/1/5 274/1/5 273/1/5
f 281/1/5 276/1/5 275/1/5
f 282/1/5 276/1/5 281/1/5
f 283/1/5 278/1/5 277/1/5
f 285/1/5 280/1/5 279/1/5
f 286/1/5 274/1/5 280/1/5
f 286/1/5 280/1/5 285/1/5
f 289/1/5 284/1/5 283/1/5
f 289/1/5 283/1/5 277/1/5
f 290/1/5 284/1/5 289/1/5
f 291/1/5 274/1/5 286/1/5
f 292/1/5 274/1/5 291/1/5
f 293/1/5 288/1/5 287/1/5
f 294/1/5 288/1/5 293/1/5
f 295/1/5 289/1/5 277/1/5
f 296/1/5 289/1/5 295/1/5
f 297/2/5 293/2/5 292/2/5
f 298/2/5 293/2/5 297/2/5
f 299/2/5 295/2/5 294/2/5
f 300/2/5 295/2/5 299/2/5
f 301/2/6 302/2/6 306/2/6
f 306/2/6 302/2/6 307/2/6
f 303/2/6 304/2/6 308/2/6
f 308/2/6 304/2/6 309/2/6
f 305/1/6 306/1/6 312/1/6
f 307/1/6 308/1/6 313/1/6
f 313/1/6 308/1/6 314/1/6
f 309/1/6 310/1/6 315/1/6
f 311/1/6 312/1/6 317/1/6
f 312/1/6 306/1/6 318/1/6
f 317/1/6 312/1/6 318/1/6
f 315/1/6 316/1/6 321/1/6
f 309/1/6 315/1/6 321/1/6
f 321/1/6 316/1/6 322/1/6
f 318/1/6 306/1/6 323/1/6
f 323/1/6 306/1/6 324/1/6
f 319/1/6 320/1/6 325/1/6
f 325/1/6 320/1/6 326/1/6
f 309/1/6 321/1/6 327/1/6
f 327/1/6 321/1/6 328/1/6
f 324/2/6 325/2/6 329/2/6
f 329/2/6 325/2/6 330/2/6
f 326/2/6 327/2/6 331/2/6
f 331/2/6 327/2/6 332/2/6
f 333/2/6 334/2/6 337/2/6
f 335/2/6 336/2/6 338/2/6
f 333/2/6 337/2/6 339/2/6
f 337/2/6 338/2/6 339/2/6
f 338/2/6 336/2/6 340/2/6
f 339/2/6 338/2/6 340/2/6
f 333/2/6 339/2/6 341/2/6
f 341/2/6 339/2/6 342/2/6
f 340/2/6 336/2/6 343/2/6
f 343/2/6 336/2/6 344/2/6
f 345/1/6 346/1/6 349/1/6
f 349/1/6 346/1/6 350/1/6
f 347/1/6 348/1/6 351/1/6
f 351/1/6 348/1/6 352/1/6
f 353/1/6 354/1/6 357/1/6
f 357/1/6 354/1/6 358/1/6
f 355/1/6 356/1/6 359/1/6
f 359/1/6 356/1/6 360/1/6
