# MagicaVoxel @ ephtracy

# material
mtllib log.mtl
usemtl palette

# normals
vn -1 0 0
vn 1 0 0
vn 0 0 1
vn 0 0 -1
vn 0 -1 0
vn 0 1 0

# texcoords
vt 0.369141 0.5
vt 0.373047 0.5

# verts
v -7.5 5 15.5
v -7.5 5 -15.5
v -7.5 10 15.5
v -7.5 10 -15.5
v -6.5 3 15.5
v -6.5 3 -15.5
v -6.5 5 15.5
v -6.5 5 -15.5
v -6.5 10 15.5
v -6.5 10 -15.5
v -6.5 12 15.5
v -6.5 12 -15.5
v -5.5 2 15.5
v -5.5 2 -15.5
v -5.5 3 15.5
v -5.5 3 -15.5
v -5.5 12 15.5
v -5.5 12 -15.5
v -5.5 13 15.5
v -5.5 13 -15.5
v -4.5 1 15.5
v -4.5 1 -15.5
v -4.5 2 15.5
v -4.5 2 -15.5
v -4.5 13 15.5
v -4.5 13 -15.5
v -4.5 14 15.5
v -4.5 14 -15.5
v -2.5 0 15.5
v -2.5 0 -15.5
v -2.5 1 15.5
v -2.5 1 -15.5
v -2.5 14 15.5
v -2.5 14 -15.5
v -2.5 15 15.5
v -2.5 15 -15.5
v 2.5 0 15.5
v 2.5 0 -15.5
v 2.5 1 15.5
v 2.5 1 -15.5
v 2.5 14 15.5
v 2.5 14 -15.5
v 2.5 15 15.5
v 2.5 15 -15.5
v 4.5 1 15.5
v 4.5 1 -15.5
v 4.5 2 15.5
v 4.5 2 -15.5
v 4.5 13 15.5
v 4.5 13 -15.5
v 4.5 14 15.5
v 4.5 14 -15.5
v 5.5 2 15.5
v 5.5 2 -15.5
v 5.5 3 15.5
v 5.5 3 -15.5
v 5.5 12 15.5
v 5.5 12 -15.5
v 5.5 13 15.5
v 5.5 13 -15.5
v 6.5 3 15.5
v 6.5 3 -15.5
v 6.5 5 15.5
v 6.5 5 -15.5
v 6.5 10 15.5
v 6.5 10 -15.5
v 6.5 12 15.5
v 6.5 12 -15.5
v 7.5 5 15.5
v 7.5 5 -15.5
v 7.5 10 15.5
v 7.5 10 -15.5
v -7.5 5 15.5
v -7.5 10 15.5
v -6.5 3 15.5
v -6.5 5 15.5
v -6.5 10 15.5
v -6.5 12 15.5
v -5.5 2 15.5
v -5.5 3 15.5
v -5.5 5 15.5
v -5.5 10 15.5
v -5.5 12 15.5
v -5.5 13 15.5
v -4.5 1 15.5
v -4.5 2 15.5
v -4.5 4 15.5
v -4.5 5 15.5
v -4.5 10 15.5
v -4.5 11 15.5
v -4.5 13 15.5
v -4.5 14 15.5
v -3.5 3 15.5
v -3.5 4 15.5
v -3.5 6 15.5
v -3.5 9 15.5
v -3.5 11 15.5
v -3.5 12 15.5
v -2.5 0 15.5
v -2.5 1 15.5
v -2.5 2 15.5
v -2.5 3 15.5
v -2.5 5 15.5
v -2.5 6 15.5
v -2.5 9 15.5
v -2.5 10 15.5
v -2.5 12 15.5
v -2.5 13 15.5
v -2.5 14 15.5
v -2.5 15 15.5
v -1.5 4 15.5
v -1.5 5 15.5
v -1.5 6 15.5
v -1.5 9 15.5
v -1.5 10 15.5
v -1.5 11 15.5
v -0.5 7 15.5
v -0.5 8 15.5
v 0.5 7 15.5
v 0.5 8 15.5
v 1.5 4 15.5
v 1.5 5 15.5
v 1.5 6 15.5
v 1.5 9 15.5
v 1.5 10 15.5
v 1.5 11 15.5
v 2.5 0 15.5
v 2.5 1 15.5
v 2.5 2 15.5
v 2.5 3 15.5
v 2.5 5 15.5
v 2.5 6 15.5
v 2.5 9 15.5
v 2.5 10 15.5
v 2.5 12 15.5
v 2.5 13 15.5
v 2.5 14 15.5
v 2.5 15 15.5
v 3.5 3 15.5
v 3.5 4 15.5
v 3.5 6 15.5
v 3.5 9 15.5
v 3.5 11 15.5
v 3.5 12 15.5
v 4.5 1 15.5
v 4.5 2 15.5
v 4.5 4 15.5
v 4.5 5 15.5
v 4.5 10 15.5
v 4.5 11 15.5
v 4.5 13 15.5
v 4.5 14 15.5
v 5.5 2 15.5
v 5.5 3 15.5
v 5.5 5 15.5
v 5.5 10 15.5
v 5.5 12 15.5
v 5.5 13 15.5
v 6.5 3 15.5
v 6.5 5 15.5
v 6.5 10 15.5
v 6.5 12 15.5
v 7.5 5 15.5
v 7.5 10 15.5
v -7.5 5 -15.5
v -7.5 10 -15.5
v -6.5 3 -15.5
v -6.5 5 -15.5
v -6.5 10 -15.5
v -6.5 12 -15.5
v -5.5 2 -15.5
v -5.5 3 -15.5
v -5.5 5 -15.5
v -5.5 10 -15.5
v -5.5 12 -15.5
v -5.5 13 -15.5
v -4.5 1 -15.5
v -4.5 2 -15.5
v -4.5 4 -15.5
v -4.5 5 -15.5
v -4.5 10 -15.5
v -4.5 11 -15.5
v -4.5 13 -15.5
v -4.5 14 -15.5
v -3.5 3 -15.5
v -3.5 4 -15.5
v -3.5 6 -15.5
v -3.5 9 -15.5
v -3.5 11 -15.5
v -3.5 12 -15.5
v -2.5 0 -15.5
v -2.5 1 -15.5
v -2.5 2 -15.5
v -2.5 3 -15.5
v -2.5 5 -15.5
v -2.5 6 -15.5
v -2.5 9 -15.5
v -2.5 10 -15.5
v -2.5 12 -15.5
v -2.5 13 -15.5
v -2.5 14 -15.5
v -2.5 15 -15.5
v -1.5 4 -15.5
v -1.5 5 -15.5
v -1.5 6 -15.5
v -1.5 9 -15.5
v -1.5 10 -15.5
v -1.5 11 -15.5
v -0.5 7 -15.5
v -0.5 8 -15.5
v 0.5 7 -15.5
v 0.5 8 -15.5
v 1.5 4 -15.5
v 1.5 5 -15.5
v 1.5 6 -15.5
v 1.5 9 -15.5
v 1.5 10 -15.5
v 1.5 11 -15.5
v 2.5 0 -15.5
v 2.5 1 -15.5
v 2.5 2 -15.5
v 2.5 3 -15.5
v 2.5 5 -15.5
v 2.5 6 -15.5
v 2.5 9 -15.5
v 2.5 10 -15.5
v 2.5 12 -15.5
v 2.5 13 -15.5
v 2.5 14 -15.5
v 2.5 15 -15.5
v 3.5 3 -15.5
v 3.5 4 -15.5
v 3.5 6 -15.5
v 3.5 9 -15.5
v 3.5 11 -15.5
v 3.5 12 -15.5
v 4.5 1 -15.5
v 4.5 2 -15.5
v 4.5 4 -15.5
v 4.5 5 -15.5
v 4.5 10 -15.5
v 4.5 11 -15.5
v 4.5 13 -15.5
v 4.5 14 -15.5
v 5.5 2 -15.5
v 5.5 3 -15.5
v 5.5 5 -15.5
v 5.5 10 -15.5
v 5.5 12 -15.5
v 5.5 13 -15.5
v 6.5 3 -15.5
v 6.5 5 -15.5
v 6.5 10 -15.5
v 6.5 12 -15.5
v 7.5 5 -15.5
v 7.5 10 -15.5
v -2.5 0 15.5
v 2.5 0 15.5
v -2.5 0 -15.5
v 2.5 0 -15.5
v -4.5 1 15.5
v -2.5 1 15.5
v 2.5 1 15.5
v 4.5 1 15.5
v -4.5 1 -15.5
v -2.5 1 -15.5
v 2.5 1 -15.5
v 4.5 1 -15.5
v -5.5 2 15.5
v -4.5 2 15.5
v 4.5 2 15.5
v 5.5 2 15.5
v -5.5 2 -15.5
v -4.5 2 -15.5
v 4.5 2 -15.5
v 5.5 2 -15.5
v -6.5 3 15.5
v -5.5 3 15.5
v 5.5 3 15.5
v 6.5 3 15.5
v -6.5 3 -15.5
v -5.5 3 -15.5
v 5.5 3 -15.5
v 6.5 3 -15.5
v -7.5 5 15.5
v -6.5 5 15.5
v 6.5 5 15.5
v 7.5 5 15.5
v -7.5 5 -15.5
v -6.5 5 -15.5
v 6.5 5 -15.5
v 7.5 5 -15.5
v -7.5 10 15.5
v -6.5 10 15.5
v 6.5 10 15.5
v 7.5 10 15.5
v -7.5 10 -15.5
v -6.5 10 -15.5
v 6.5 10 -15.5
v 7.5 10 -15.5
v -6.5 12 15.5
v -5.5 12 15.5
v 5.5 12 15.5
v 6.5 12 15.5
v -6.5 12 -15.5
v -5.5 12 -15.5
v 5.5 12 -15.5
v 6.5 12 -15.5
v -5.5 13 15.5
v -4.5 13 15.5
v 4.5 13 15.5
v 5.5 13 15.5
v -5.5 13 -15.5
v -4.5 13 -15.5
v 4.5 13 -15.5
v 5.5 13 -15.5
v -4.5 14 15.5
v -2.5 14 15.5
v 2.5 14 15.5
v 4.5 14 15.5
v -4.5 14 -15.5
v -2.5 14 -15.5
v 2.5 14 -15.5
v 4.5 14 -15.5
v -2.5 15 15.5
v 2.5 15 15.5
v -2.5 15 -15.5
v 2.5 15 -15.5

# faces
f 3/2/1 2/2/1 1/2/1
f 4/2/1 2/2/1 3/2/1
f 7/2/1 6/2/1 5/2/1
f 8/2/1 6/2/1 7/2/1
f 11/2/1 10/2/1 9/2/1
f 12/2/1 10/2/1 11/2/1
f 15/2/1 14/2/1 13/2/1
f 16/2/1 14/2/1 15/2/1
f 19/2/1 18/2/1 17/2/1
f 20/2/1 18/2/1 19/2/1
f 23/2/1 22/2/1 21/2/1
f 24/2/1 22/2/1 23/2/1
f 27/2/1 26/2/1 25/2/1
f 28/2/1 26/2/1 27/2/1
f 31/2/1 30/2/1 29/2/1
f 32/2/1 30/2/1 31/2/1
f 35/2/1 34/2/1 33/2/1
f 36/2/1 34/2/1 35/2/1
f 37/2/2 38/2/2 39/2/2
f 39/2/2 38/2/2 40/2/2
f 41/2/2 42/2/2 43/2/2
f 43/2/2 42/2/2 44/2/2
f 45/2/2 46/2/2 47/2/2
f 47/2/2 46/2/2 48/2/2
f 49/2/2 50/2/2 51/2/2
f 51/2/2 50/2/2 52/2/2
f 53/2/2 54/2/2 55/2/2
f 55/2/2 54/2/2 56/2/2
f 57/2/2 58/2/2 59/2/2
f 59/2/2 58/2/2 60/2/2
f 61/2/2 62/2/2 63/2/2
f 63/2/2 62/2/2 64/2/2
f 65/2/2 66/2/2 67/2/2
f 67/2/2 66/2/2 68/2/2
f 69/2/2 70/2/2 71/2/2
f 71/2/2 70/2/2 72/2/2
f 76/2/3 74/2/3 73/2/3
f 77/2/3 74/2/3 76/2/3
f 80/2/3 76/2/3 75/2/3
f 80/2/3 78/2/3 77/2/3
f 80/2/3 77/2/3 76/2/3
f 81/2/3 78/2/3 80/2/3
f 82/2/3 78/2/3 81/2/3
f 83/2/3 78/2/3 82/2/3
f 86/2/3 80/2/3 79/2/3
f 86/2/3 81/2/3 80/2/3
f 87/2/3 81/2/3 86/2/3
f 88/1/3 82/1/3 81/1/3
f 88/2/3 81/2/3 87/2/3
f 89/2/3 84/2/3 83/2/3
f 89/1/3 82/1/3 88/1/3
f 89/2/3 83/2/3 82/2/3
f 90/2/3 84/2/3 89/2/3
f 91/2/3 84/2/3 90/2/3
f 93/2/3 86/2/3 85/2/3
f 93/2/3 87/2/3 86/2/3
f 94/1/3 88/1/3 87/1/3
f 94/2/3 87/2/3 93/2/3
f 94/1/3 89/1/3 88/1/3
f 94/1/3 90/1/3 89/1/3
f 95/1/3 90/1/3 94/1/3
f 96/1/3 90/1/3 95/1/3
f 97/2/3 92/2/3 91/2/3
f 97/1/3 90/1/3 96/1/3
f 97/2/3 91/2/3 90/2/3
f 98/2/3 92/2/3 97/2/3
f 100/2/3 93/2/3 85/2/3
f 101/2/3 93/2/3 100/2/3
f 102/1/3 95/1/3 94/1/3
f 102/2/3 93/2/3 101/2/3
f 102/1/3 94/1/3 93/1/3
f 103/1/3 95/1/3 102/1/3
f 104/2/3 96/2/3 95/2/3
f 104/1/3 95/1/3 103/1/3
f 105/1/3 97/1/3 96/1/3
f 105/2/3 96/2/3 104/2/3
f 105/1/3 98/1/3 97/1/3
f 106/1/3 98/1/3 105/1/3
f 107/2/3 92/2/3 98/2/3
f 107/1/3 98/1/3 106/1/3
f 108/2/3 92/2/3 107/2/3
f 109/2/3 92/2/3 108/2/3
f 111/1/3 103/1/3 102/1/3
f 111/1/3 102/1/3 101/1/3
f 112/2/3 106/2/3 105/2/3
f 112/1/3 103/1/3 111/1/3
f 112/2/3 104/2/3 103/2/3
f 112/2/3 105/2/3 104/2/3
f 113/2/3 106/2/3 112/2/3
f 114/2/3 106/2/3 113/2/3
f 115/1/3 108/1/3 107/1/3
f 115/2/3 106/2/3 114/2/3
f 115/1/3 107/1/3 106/1/3
f 116/1/3 108/1/3 115/1/3
f 117/1/3 114/1/3 113/1/3
f 118/1/3 114/1/3 117/1/3
f 119/1/3 117/1/3 113/1/3
f 119/2/3 118/2/3 117/2/3
f 120/1/3 114/1/3 118/1/3
f 120/2/3 118/2/3 119/2/3
f 121/1/3 111/1/3 101/1/3
f 121/2/3 113/2/3 112/2/3
f 121/2/3 112/2/3 111/2/3
f 122/2/3 113/2/3 121/2/3
f 123/1/3 120/1/3 119/1/3
f 123/2/3 113/2/3 122/2/3
f 123/1/3 119/1/3 113/1/3
f 124/1/3 114/1/3 120/1/3
f 124/1/3 120/1/3 123/1/3
f 124/2/3 115/2/3 114/2/3
f 124/2/3 116/2/3 115/2/3
f 125/2/3 116/2/3 124/2/3
f 126/1/3 108/1/3 116/1/3
f 126/2/3 116/2/3 125/2/3
f 127/2/3 101/2/3 100/2/3
f 127/2/3 100/2/3 99/2/3
f 128/2/3 101/2/3 127/2/3
f 129/1/3 122/1/3 121/1/3
f 129/2/3 101/2/3 128/2/3
f 129/1/3 121/1/3 101/1/3
f 130/1/3 122/1/3 129/1/3
f 131/2/3 123/2/3 122/2/3
f 131/1/3 122/1/3 130/1/3
f 131/2/3 125/2/3 124/2/3
f 131/2/3 124/2/3 123/2/3
f 132/2/3 125/2/3 131/2/3
f 133/2/3 125/2/3 132/2/3
f 134/1/3 126/1/3 125/1/3
f 134/2/3 125/2/3 133/2/3
f 135/1/3 108/1/3 126/1/3
f 135/1/3 126/1/3 134/1/3
f 136/2/3 110/2/3 109/2/3
f 136/1/3 108/1/3 135/1/3
f 136/2/3 109/2/3 108/2/3
f 137/2/3 110/2/3 136/2/3
f 138/2/3 110/2/3 137/2/3
f 139/2/3 130/2/3 129/2/3
f 139/2/3 129/2/3 128/2/3
f 139/1/3 132/1/3 131/1/3
f 139/1/3 131/1/3 130/1/3
f 140/1/3 132/1/3 139/1/3
f 141/2/3 133/2/3 132/2/3
f 141/1/3 132/1/3 140/1/3
f 142/1/3 135/1/3 134/1/3
f 142/2/3 133/2/3 141/2/3
f 142/1/3 134/1/3 133/1/3
f 143/1/3 135/1/3 142/1/3
f 144/2/3 137/2/3 136/2/3
f 144/1/3 135/1/3 143/1/3
f 144/2/3 136/2/3 135/2/3
f 145/2/3 139/2/3 128/2/3
f 145/2/3 140/2/3 139/2/3
f 146/2/3 140/2/3 145/2/3
f 147/1/3 141/1/3 140/1/3
f 147/2/3 140/2/3 146/2/3
f 147/1/3 143/1/3 142/1/3
f 147/1/3 142/1/3 141/1/3
f 148/1/3 143/1/3 147/1/3
f 149/1/3 143/1/3 148/1/3
f 150/2/3 144/2/3 143/2/3
f 150/1/3 143/1/3 149/1/3
f 151/2/3 137/2/3 144/2/3
f 151/2/3 144/2/3 150/2/3
f 152/2/3 137/2/3 151/2/3
f 153/2/3 147/2/3 146/2/3
f 153/2/3 148/2/3 147/2/3
f 154/2/3 148/2/3 153/2/3
f 155/1/3 149/1/3 148/1/3
f 155/2/3 148/2/3 154/2/3
f 156/2/3 150/2/3 149/2/3
f 156/1/3 149/1/3 155/1/3
f 156/2/3 151/2/3 150/2/3
f 157/2/3 151/2/3 156/2/3
f 158/2/3 151/2/3 157/2/3
f 159/2/3 155/2/3 154/2/3
f 159/2/3 157/2/3 156/2/3
f 159/2/3 156/2/3 155/2/3
f 160/2/3 157/2/3 159/2/3
f 161/2/3 157/2/3 160/2/3
f 162/2/3 157/2/3 161/2/3
f 163/2/3 161/2/3 160/2/3
f 164/2/3 161/2/3 163/2/3
f 165/2/4 166/2/4 168/2/4
f 168/2/4 166/2/4 169/2/4
f 167/2/4 168/2/4 172/2/4
f 169/2/4 170/2/4 172/2/4
f 168/2/4 169/2/4 172/2/4
f 172/2/4 170/2/4 173/2/4
f 173/2/4 170/2/4 174/2/4
f 174/2/4 170/2/4 175/2/4
f 171/2/4 172/2/4 178/2/4
f 172/2/4 173/2/4 178/2/4
f 178/2/4 173/2/4 179/2/4
f 173/1/4 174/1/4 180/1/4
f 179/2/4 173/2/4 180/2/4
f 175/2/4 176/2/4 181/2/4
f 180/1/4 174/1/4 181/1/4
f 174/2/4 175/2/4 181/2/4
f 181/2/4 176/2/4 182/2/4
f 182/2/4 176/2/4 183/2/4
f 177/2/4 178/2/4 185/2/4
f 178/2/4 179/2/4 185/2/4
f 179/1/4 180/1/4 186/1/4
f 185/2/4 179/2/4 186/2/4
f 180/1/4 181/1/4 186/1/4
f 181/1/4 182/1/4 186/1/4
f 186/1/4 182/1/4 187/1/4
f 187/1/4 182/1/4 188/1/4
f 183/2/4 184/2/4 189/2/4
f 188/1/4 182/1/4 189/1/4
f 182/2/4 183/2/4 189/2/4
f 189/2/4 184/2/4 190/2/4
f 177/2/4 185/2/4 192/2/4
f 192/2/4 185/2/4 193/2/4
f 186/1/4 187/1/4 194/1/4
f 193/2/4 185/2/4 194/2/4
f 185/1/4 186/1/4 194/1/4
f 194/1/4 187/1/4 195/1/4
f 187/2/4 188/2/4 196/2/4
f 195/1/4 187/1/4 196/1/4
f 188/1/4 189/1/4 197/1/4
f 196/2/4 188/2/4 197/2/4
f 189/1/4 190/1/4 197/1/4
f 197/1/4 190/1/4 198/1/4
f 190/2/4 184/2/4 199/2/4
f 198/1/4 190/1/4 199/1/4
f 199/2/4 184/2/4 200/2/4
f 200/2/4 184/2/4 201/2/4
f 194/1/4 195/1/4 203/1/4
f 193/1/4 194/1/4 203/1/4
f 197/2/4 198/2/4 204/2/4
f 203/1/4 195/1/4 204/1/4
f 195/2/4 196/2/4 204/2/4
f 196/2/4 197/2/4 204/2/4
f 204/2/4 198/2/4 205/2/4
f 205/2/4 198/2/4 206/2/4
f 199/1/4 200/1/4 207/1/4
f 206/2/4 198/2/4 207/2/4
f 198/1/4 199/1/4 207/1/4
f 207/1/4 200/1/4 208/1/4
f 205/1/4 206/1/4 209/1/4
f 209/1/4 206/1/4 210/1/4
f 205/1/4 209/1/4 211/1/4
f 209/2/4 210/2/4 211/2/4
f 210/1/4 206/1/4 212/1/4
f 211/2/4 210/2/4 212/2/4
f 193/1/4 203/1/4 213/1/4
f 204/2/4 205/2/4 213/2/4
f 203/2/4 204/2/4 213/2/4
f 213/2/4 205/2/4 214/2/4
f 211/1/4 212/1/4 215/1/4
f 214/2/4 205/2/4 215/2/4
f 205/1/4 211/1/4 215/1/4
f 212/1/4 206/1/4 216/1/4
f 215/1/4 212/1/4 216/1/4
f 206/2/4 207/2/4 216/2/4
f 207/2/4 208/2/4 216/2/4
f 216/2/4 208/2/4 217/2/4
f 208/1/4 200/1/4 218/1/4
f 217/2/4 208/2/4 218/2/4
f 192/2/4 193/2/4 219/2/4
f 191/2/4 192/2/4 219/2/4
f 219/2/4 193/2/4 220/2/4
f 213/1/4 214/1/4 221/1/4
f 220/2/4 193/2/4 221/2/4
f 193/1/4 213/1/4 221/1/4
f 221/1/4 214/1/4 222/1/4
f 214/2/4 215/2/4 223/2/4
f 222/1/4 214/1/4 223/1/4
f 216/2/4 217/2/4 223/2/4
f 215/2/4 216/2/4 223/2/4
f 223/2/4 217/2/4 224/2/4
f 224/2/4 217/2/4 225/2/4
f 217/1/4 218/1/4 226/1/4
f 225/2/4 217/2/4 226/2/4
f 218/1/4 200/1/4 227/1/4
f 226/1/4 218/1/4 227/1/4
f 201/2/4 202/2/4 228/2/4
f 227/1/4 200/1/4 228/1/4
f 200/2/4 201/2/4 228/2/4
f 228/2/4 202/2/4 229/2/4
f 229/2/4 202/2/4 230/2/4
f 221/2/4 222/2/4 231/2/4
f 220/2/4 221/2/4 231/2/4
f 223/1/4 224/1/4 231/1/4
f 222/1/4 223/1/4 231/1/4
f 231/1/4 224/1/4 232/1/4
f 224/2/4 225/2/4 233/2/4
f 232/1/4 224/1/4 233/1/4
f 226/1/4 227/1/4 234/1/4
f 233/2/4 225/2/4 234/2/4
f 225/1/4 226/1/4 234/1/4
f 234/1/4 227/1/4 235/1/4
f 228/2/4 229/2/4 236/2/4
f 235/1/4 227/1/4 236/1/4
f 227/2/4 228/2/4 236/2/4
f 220/2/4 231/2/4 237/2/4
f 231/2/4 232/2/4 237/2/4
f 237/2/4 232/2/4 238/2/4
f 232/1/4 233/1/4 239/1/4
f 238/2/4 232/2/4 239/2/4
f 234/1/4 235/1/4 239/1/4
f 233/1/4 234/1/4 239/1/4
f 239/1/4 235/1/4 240/1/4
f 240/1/4 235/1/4 241/1/4
f 235/2/4 236/2/4 242/2/4
f 241/1/4 235/1/4 242/1/4
f 236/2/4 229/2/4 243/2/4
f 242/2/4 236/2/4 243/2/4
f 243/2/4 229/2/4 244/2/4
f 238/2/4 239/2/4 245/2/4
f 239/2/4 240/2/4 245/2/4
f 245/2/4 240/2/4 246/2/4
f 240/1/4 241/1/4 247/1/4
f 246/2/4 240/2/4 247/2/4
f 241/2/4 242/2/4 248/2/4
f 247/1/4 241/1/4 248/1/4
f 242/2/4 243/2/4 248/2/4
f 248/2/4 243/2/4 249/2/4
f 249/2/4 243/2/4 250/2/4
f 246/2/4 247/2/4 251/2/4
f 248/2/4 249/2/4 251/2/4
f 247/2/4 248/2/4 251/2/4
f 251/2/4 249/2/4 252/2/4
f 252/2/4 249/2/4 253/2/4
f 253/2/4 249/2/4 254/2/4
f 252/2/4 253/2/4 255/2/4
f 255/2/4 253/2/4 256/2/4
f 259/2/5 258/2/5 257/2/5
f 260/2/5 258/2/5 259/2/5
f 265/2/5 262/2/5 261/2/5
f 266/2/5 262/2/5 265/2/5
f 267/2/5 264/2/5 263/2/5
f 268/2/5 264/2/5 267/2/5
f 273/2/5 270/2/5 269/2/5
f 274/2/5 270/2/5 273/2/5
f 275/2/5 272/2/5 271/2/5
f 276/2/5 272/2/5 275/2/5
f 281/2/5 278/2/5 277/2/5
f 282/2/5 278/2/5 281/2/5
f 283/2/5 280/2/5 279/2/5
f 284/2/5 280/2/5 283/2/5
f 289/2/5 286/2/5 285/2/5
f 290/2/5 286/2/5 289/2/5
f 291/2/5 288/2/5 287/2/5
f 292/2/5 288/2/5 291/2/5
f 293/2/6 294/2/6 297/2/6
f 297/2/6 294/2/6 298/2/6
f 295/2/6 296/2/6 299/2/6
f 299/2/6 296/2/6 300/2/6
f 301/2/6 302/2/6 305/2/6
f 305/2/6 302/2/6 306/2/6
f 303/2/6 304/2/6 307/2/6
f 307/2/6 304/2/6 308/2/6
f 309/2/6 310/2/6 313/2/6
f 313/2/6 310/2/6 314/2/6
f 311/2/6 312/2/6 315/2/6
f 315/2/6 312/2/6 316/2/6
f 317/2/6 318/2/6 321/2/6
f 321/2/6 318/2/6 322/2/6
f 319/2/6 320/2/6 323/2/6
f 323/2/6 320/2/6 324/2/6
f 325/2/6 326/2/6 327/2/6
f 327/2/6 326/2/6 328/2/6
