# MagicaVoxel @ ephtracy

# material
mtllib cabbage.mtl
usemtl palette

# normals
vn -1 0 0
vn 1 0 0
vn 0 0 1
vn 0 0 -1
vn 0 -1 0
vn 0 1 0

# texcoords
vt 0.716797 0.5
vt 0.748047 0.5

# verts
v -5.5 19 2.5
v -5.5 19 -2.5
v -5.5 22 2.5
v -5.5 22 1.5
v -5.5 22 -1.5
v -5.5 22 -2.5
v -5.5 23 1.5
v -5.5 23 0.5
v -5.5 23 -0.5
v -5.5 23 -1.5
v -5.5 24 0.5
v -5.5 24 -0.5
v -4.5 18 1.5
v -4.5 18 -1.5
v -4.5 19 4.5
v -4.5 19 2.5
v -4.5 19 1.5
v -4.5 19 -1.5
v -4.5 19 -2.5
v -4.5 19 -4.5
v -4.5 22 2.5
v -4.5 22 1.5
v -4.5 22 -1.5
v -4.5 22 -2.5
v -4.5 23 3.5
v -4.5 23 2.5
v -4.5 23 1.5
v -4.5 23 0.5
v -4.5 23 -0.5
v -4.5 23 -1.5
v -4.5 23 -2.5
v -4.5 23 -3.5
v -4.5 24 4.5
v -4.5 24 3.5
v -4.5 24 2.5
v -4.5 24 0.5
v -4.5 24 -0.5
v -4.5 24 -2.5
v -4.5 24 -3.5
v -4.5 24 -4.5
v -3.5 18 3.5
v -3.5 18 1.5
v -3.5 18 -1.5
v -3.5 18 -3.5
v -3.5 19 3.5
v -3.5 19 1.5
v -3.5 19 -1.5
v -3.5 19 -3.5
v -3.5 23 3.5
v -3.5 23 2.5
v -3.5 23 -2.5
v -3.5 23 -3.5
v -3.5 24 3.5
v -3.5 24 2.5
v -3.5 24 1.5
v -3.5 24 -1.5
v -3.5 24 -2.5
v -3.5 24 -3.5
v -3.5 25 1.5
v -3.5 25 -1.5
v -2.5 19 5.5
v -2.5 19 4.5
v -2.5 19 -4.5
v -2.5 19 -5.5
v -2.5 22 5.5
v -2.5 22 4.5
v -2.5 22 -4.5
v -2.5 22 -5.5
v -2.5 23 4.5
v -2.5 23 3.5
v -2.5 23 -3.5
v -2.5 23 -4.5
v -2.5 24 4.5
v -2.5 24 3.5
v -2.5 24 2.5
v -2.5 24 1.5
v -2.5 24 -1.5
v -2.5 24 -2.5
v -2.5 24 -3.5
v -2.5 24 -4.5
v -2.5 25 2.5
v -2.5 25 1.5
v -2.5 25 -1.5
v -2.5 25 -2.5
v -1.5 18 4.5
v -1.5 18 3.5
v -1.5 18 -3.5
v -1.5 18 -4.5
v -1.5 19 4.5
v -1.5 19 3.5
v -1.5 19 -3.5
v -1.5 19 -4.5
v -1.5 22 5.5
v -1.5 22 4.5
v -1.5 22 -4.5
v -1.5 22 -5.5
v -1.5 23 5.5
v -1.5 23 4.5
v -1.5 23 -4.5
v -1.5 23 -5.5
v -1.5 24 3.5
v -1.5 24 2.5
v -1.5 24 -2.5
v -1.5 24 -3.5
v -1.5 25 3.5
v -1.5 25 2.5
v -1.5 25 1.5
v -1.5 25 -1.5
v -1.5 25 -2.5
v -1.5 25 -3.5
v -1.5 26 1.5
v -1.5 26 -1.5
v -0.5 23 5.5
v -0.5 23 4.5
v -0.5 23 -4.5
v -0.5 23 -5.5
v -0.5 24 5.5
v -0.5 24 4.5
v -0.5 24 -4.5
v -0.5 24 -5.5
v 3.5 23 4.5
v 3.5 23 3.5
v 3.5 23 -3.5
v 3.5 23 -4.5
v 3.5 24 4.5
v 3.5 24 3.5
v 3.5 24 -3.5
v 3.5 24 -4.5
v -3.5 23 4.5
v -3.5 23 3.5
v -3.5 23 -3.5
v -3.5 23 -4.5
v -3.5 24 4.5
v -3.5 24 3.5
v -3.5 24 -3.5
v -3.5 24 -4.5
v 0.5 23 5.5
v 0.5 23 4.5
v 0.5 23 -4.5
v 0.5 23 -5.5
v 0.5 24 5.5
v 0.5 24 4.5
v 0.5 24 -4.5
v 0.5 24 -5.5
v 1.5 18 4.5
v 1.5 18 3.5
v 1.5 18 -3.5
v 1.5 18 -4.5
v 1.5 19 4.5
v 1.5 19 3.5
v 1.5 19 -3.5
v 1.5 19 -4.5
v 1.5 22 5.5
v 1.5 22 4.5
v 1.5 22 -4.5
v 1.5 22 -5.5
v 1.5 23 5.5
v 1.5 23 4.5
v 1.5 23 -4.5
v 1.5 23 -5.5
v 1.5 24 3.5
v 1.5 24 2.5
v 1.5 24 -2.5
v 1.5 24 -3.5
v 1.5 25 3.5
v 1.5 25 2.5
v 1.5 25 1.5
v 1.5 25 -1.5
v 1.5 25 -2.5
v 1.5 25 -3.5
v 1.5 26 1.5
v 1.5 26 -1.5
v 2.5 19 5.5
v 2.5 19 4.5
v 2.5 19 -4.5
v 2.5 19 -5.5
v 2.5 22 5.5
v 2.5 22 4.5
v 2.5 22 -4.5
v 2.5 22 -5.5
v 2.5 23 4.5
v 2.5 23 3.5
v 2.5 23 -3.5
v 2.5 23 -4.5
v 2.5 24 4.5
v 2.5 24 3.5
v 2.5 24 2.5
v 2.5 24 1.5
v 2.5 24 -1.5
v 2.5 24 -2.5
v 2.5 24 -3.5
v 2.5 24 -4.5
v 2.5 25 2.5
v 2.5 25 1.5
v 2.5 25 -1.5
v 2.5 25 -2.5
v 3.5 18 3.5
v 3.5 18 1.5
v 3.5 18 -1.5
v 3.5 18 -3.5
v 3.5 19 3.5
v 3.5 19 1.5
v 3.5 19 -1.5
v 3.5 19 -3.5
v 3.5 23 3.5
v 3.5 23 2.5
v 3.5 23 -2.5
v 3.5 23 -3.5
v 3.5 24 3.5
v 3.5 24 2.5
v 3.5 24 1.5
v 3.5 24 -1.5
v 3.5 24 -2.5
v 3.5 24 -3.5
v 3.5 25 1.5
v 3.5 25 -1.5
v 4.5 18 1.5
v 4.5 18 -1.5
v 4.5 19 4.5
v 4.5 19 2.5
v 4.5 19 1.5
v 4.5 19 -1.5
v 4.5 19 -2.5
v 4.5 19 -4.5
v 4.5 22 2.5
v 4.5 22 1.5
v 4.5 22 -1.5
v 4.5 22 -2.5
v 4.5 23 3.5
v 4.5 23 2.5
v 4.5 23 1.5
v 4.5 23 0.5
v 4.5 23 -0.5
v 4.5 23 -1.5
v 4.5 23 -2.5
v 4.5 23 -3.5
v 4.5 24 4.5
v 4.5 24 3.5
v 4.5 24 2.5
v 4.5 24 0.5
v 4.5 24 -0.5
v 4.5 24 -2.5
v 4.5 24 -3.5
v 4.5 24 -4.5
v 5.5 19 2.5
v 5.5 19 -2.5
v 5.5 22 2.5
v 5.5 22 1.5
v 5.5 22 -1.5
v 5.5 22 -2.5
v 5.5 23 1.5
v 5.5 23 0.5
v 5.5 23 -0.5
v 5.5 23 -1.5
v 5.5 24 0.5
v 5.5 24 -0.5
v -2.5 19 5.5
v -2.5 22 5.5
v -1.5 22 5.5
v -1.5 23 5.5
v -0.5 23 5.5
v -0.5 24 5.5
v 0.5 23 5.5
v 0.5 24 5.5
v 1.5 22 5.5
v 1.5 23 5.5
v 2.5 19 5.5
v 2.5 22 5.5
v -4.5 19 4.5
v -4.5 24 4.5
v -3.5 23 4.5
v -3.5 24 4.5
v -2.5 19 4.5
v -2.5 22 4.5
v -2.5 23 4.5
v -2.5 24 4.5
v -1.5 18 4.5
v -1.5 19 4.5
v -1.5 22 4.5
v -1.5 23 4.5
v -0.5 23 4.5
v -0.5 24 4.5
v 0.5 23 4.5
v 0.5 24 4.5
v 1.5 18 4.5
v 1.5 19 4.5
v 1.5 22 4.5
v 1.5 23 4.5
v 2.5 19 4.5
v 2.5 22 4.5
v 2.5 23 4.5
v 2.5 24 4.5
v 3.5 23 4.5
v 3.5 24 4.5
v 4.5 19 4.5
v 4.5 24 4.5
v -3.5 18 3.5
v -3.5 19 3.5
v -3.5 23 3.5
v -3.5 24 3.5
v -2.5 23 3.5
v -2.5 24 3.5
v -1.5 18 3.5
v -1.5 19 3.5
v -1.5 24 3.5
v -1.5 25 3.5
v 1.5 18 3.5
v 1.5 19 3.5
v 1.5 24 3.5
v 1.5 25 3.5
v 2.5 23 3.5
v 2.5 24 3.5
v 3.5 18 3.5
v 3.5 19 3.5
v 3.5 23 3.5
v 3.5 24 3.5
v -5.5 19 2.5
v -5.5 22 2.5
v -4.5 19 2.5
v -4.5 22 2.5
v -4.5 23 2.5
v -4.5 24 2.5
v -3.5 23 2.5
v -3.5 24 2.5
v -2.5 24 2.5
v -2.5 25 2.5
v -1.5 24 2.5
v -1.5 25 2.5
v 1.5 24 2.5
v 1.5 25 2.5
v 2.5 24 2.5
v 2.5 25 2.5
v 3.5 23 2.5
v 3.5 24 2.5
v 4.5 19 2.5
v 4.5 22 2.5
v 4.5 23 2.5
v 4.5 24 2.5
v 5.5 19 2.5
v 5.5 22 2.5
v -5.5 22 1.5
v -5.5 23 1.5
v -4.5 18 1.5
v -4.5 19 1.5
v -4.5 22 1.5
v -4.5 23 1.5
v -3.5 18 1.5
v -3.5 19 1.5
v -3.5 24 1.5
v -3.5 25 1.5
v -2.5 24 1.5
v -2.5 25 1.5
v -1.5 25 1.5
v -1.5 26 1.5
v 1.5 25 1.5
v 1.5 26 1.5
v 2.5 24 1.5
v 2.5 25 1.5
v 3.5 18 1.5
v 3.5 19 1.5
v 3.5 24 1.5
v 3.5 25 1.5
v 4.5 18 1.5
v 4.5 19 1.5
v 4.5 22 1.5
v 4.5 23 1.5
v 5.5 22 1.5
v 5.5 23 1.5
v -5.5 23 0.5
v -5.5 24 0.5
v -4.5 23 0.5
v -4.5 24 0.5
v 4.5 23 0.5
v 4.5 24 0.5
v 5.5 23 0.5
v 5.5 24 0.5
v -4.5 23 -3.5
v -4.5 24 -3.5
v -3.5 23 -3.5
v -3.5 24 -3.5
v 3.5 23 -3.5
v 3.5 24 -3.5
v 4.5 23 -3.5
v 4.5 24 -3.5
v -4.5 23 3.5
v -4.5 24 3.5
v -3.5 23 3.5
v -3.5 24 3.5
v 3.5 23 3.5
v 3.5 24 3.5
v 4.5 23 3.5
v 4.5 24 3.5
v -5.5 23 -0.5
v -5.5 24 -0.5
v -4.5 23 -0.5
v -4.5 24 -0.5
v 4.5 23 -0.5
v 4.5 24 -0.5
v 5.5 23 -0.5
v 5.5 24 -0.5
v -5.5 22 -1.5
v -5.5 23 -1.5
v -4.5 18 -1.5
v -4.5 19 -1.5
v -4.5 22 -1.5
v -4.5 23 -1.5
v -3.5 18 -1.5
v -3.5 19 -1.5
v -3.5 24 -1.5
v -3.5 25 -1.5
v -2.5 24 -1.5
v -2.5 25 -1.5
v -1.5 25 -1.5
v -1.5 26 -1.5
v 1.5 25 -1.5
v 1.5 26 -1.5
v 2.5 24 -1.5
v 2.5 25 -1.5
v 3.5 18 -1.5
v 3.5 19 -1.5
v 3.5 24 -1.5
v 3.5 25 -1.5
v 4.5 18 -1.5
v 4.5 19 -1.5
v 4.5 22 -1.5
v 4.5 23 -1.5
v 5.5 22 -1.5
v 5.5 23 -1.5
v -5.5 19 -2.5
v -5.5 22 -2.5
v -4.5 19 -2.5
v -4.5 22 -2.5
v -4.5 23 -2.5
v -4.5 24 -2.5
v -3.5 23 -2.5
v -3.5 24 -2.5
v -2.5 24 -2.5
v -2.5 25 -2.5
v -1.5 24 -2.5
v -1.5 25 -2.5
v 1.5 24 -2.5
v 1.5 25 -2.5
v 2.5 24 -2.5
v 2.5 25 -2.5
v 3.5 23 -2.5
v 3.5 24 -2.5
v 4.5 19 -2.5
v 4.5 22 -2.5
v 4.5 23 -2.5
v 4.5 24 -2.5
v 5.5 19 -2.5
v 5.5 22 -2.5
v -3.5 18 -3.5
v -3.5 19 -3.5
v -3.5 23 -3.5
v -3.5 24 -3.5
v -2.5 23 -3.5
v -2.5 24 -3.5
v -1.5 18 -3.5
v -1.5 19 -3.5
v -1.5 24 -3.5
v -1.5 25 -3.5
v 1.5 18 -3.5
v 1.5 19 -3.5
v 1.5 24 -3.5
v 1.5 25 -3.5
v 2.5 23 -3.5
v 2.5 24 -3.5
v 3.5 18 -3.5
v 3.5 19 -3.5
v 3.5 23 -3.5
v 3.5 24 -3.5
v -4.5 19 -4.5
v -4.5 24 -4.5
v -3.5 23 -4.5
v -3.5 24 -4.5
v -2.5 19 -4.5
v -2.5 22 -4.5
v -2.5 23 -4.5
v -2.5 24 -4.5
v -1.5 18 -4.5
v -1.5 19 -4.5
v -1.5 22 -4.5
v -1.5 23 -4.5
v -0.5 23 -4.5
v -0.5 24 -4.5
v 0.5 23 -4.5
v 0.5 24 -4.5
v 1.5 18 -4.5
v 1.5 19 -4.5
v 1.5 22 -4.5
v 1.5 23 -4.5
v 2.5 19 -4.5
v 2.5 22 -4.5
v 2.5 23 -4.5
v 2.5 24 -4.5
v 3.5 23 -4.5
v 3.5 24 -4.5
v 4.5 19 -4.5
v 4.5 24 -4.5
v -2.5 19 -5.5
v -2.5 22 -5.5
v -1.5 22 -5.5
v -1.5 23 -5.5
v -0.5 23 -5.5
v -0.5 24 -5.5
v 0.5 23 -5.5
v 0.5 24 -5.5
v 1.5 22 -5.5
v 1.5 23 -5.5
v 2.5 19 -5.5
v 2.5 22 -5.5
v -1.5 18 4.5
v 1.5 18 4.5
v -3.5 18 3.5
v -1.5 18 3.5
v 1.5 18 3.5
v 3.5 18 3.5
v -4.5 18 1.5
v -3.5 18 1.5
v 3.5 18 1.5
v 4.5 18 1.5
v -4.5 18 -1.5
v -3.5 18 -1.5
v 3.5 18 -1.5
v 4.5 18 -1.5
v -3.5 18 -3.5
v -1.5 18 -3.5
v 1.5 18 -3.5
v 3.5 18 -3.5
v -1.5 18 -4.5
v 1.5 18 -4.5
v -2.5 19 5.5
v 2.5 19 5.5
v -4.5 19 4.5
v -2.5 19 4.5
v -1.5 19 4.5
v 1.5 19 4.5
v 2.5 19 4.5
v 4.5 19 4.5
v -3.5 19 3.5
v -1.5 19 3.5
v 1.5 19 3.5
v 3.5 19 3.5
v -5.5 19 2.5
v -4.5 19 2.5
v 4.5 19 2.5
v 5.5 19 2.5
v -4.5 19 1.5
v -3.5 19 1.5
v 3.5 19 1.5
v 4.5 19 1.5
v -4.5 19 -1.5
v -3.5 19 -1.5
v 3.5 19 -1.5
v 4.5 19 -1.5
v -5.5 19 -2.5
v -4.5 19 -2.5
v 4.5 19 -2.5
v 5.5 19 -2.5
v -3.5 19 -3.5
v -1.5 19 -3.5
v 1.5 19 -3.5
v 3.5 19 -3.5
v -4.5 19 -4.5
v -2.5 19 -4.5
v -1.5 19 -4.5
v 1.5 19 -4.5
v 2.5 19 -4.5
v 4.5 19 -4.5
v -2.5 19 -5.5
v 2.5 19 -5.5
v -2.5 22 5.5
v -1.5 22 5.5
v 1.5 22 5.5
v 2.5 22 5.5
v -2.5 22 4.5
v -1.5 22 4.5
v 1.5 22 4.5
v 2.5 22 4.5
v -5.5 22 2.5
v -4.5 22 2.5
v 4.5 22 2.5
v 5.5 22 2.5
v -5.5 22 1.5
v -4.5 22 1.5
v 4.5 22 1.5
v 5.5 22 1.5
v -5.5 22 -1.5
v -4.5 22 -1.5
v 4.5 22 -1.5
v 5.5 22 -1.5
v -5.5 22 -2.5
v -4.5 22 -2.5
v 4.5 22 -2.5
v 5.5 22 -2.5
v -2.5 22 -4.5
v -1.5 22 -4.5
v 1.5 22 -4.5
v 2.5 22 -4.5
v -2.5 22 -5.5
v -1.5 22 -5.5
v 1.5 22 -5.5
v 2.5 22 -5.5
v -1.5 23 5.5
v -0.5 23 5.5
v 0.5 23 5.5
v 1.5 23 5.5
v -3.5 23 4.5
v -2.5 23 4.5
v -1.5 23 4.5
v -0.5 23 4.5
v 0.5 23 4.5
v 1.5 23 4.5
v 2.5 23 4.5
v 3.5 23 4.5
v -4.5 23 3.5
v -3.5 23 3.5
v -2.5 23 3.5
v 2.5 23 3.5
v 3.5 23 3.5
v 4.5 23 3.5
v -4.5 23 2.5
v -3.5 23 2.5
v 3.5 23 2.5
v 4.5 23 2.5
v -5.5 23 1.5
v -4.5 23 1.5
v 4.5 23 1.5
v 5.5 23 1.5
v -5.5 23 0.5
v -4.5 23 0.5
v 4.5 23 0.5
v 5.5 23 0.5
v -5.5 23 -0.5
v -4.5 23 -0.5
v 4.5 23 -0.5
v 5.5 23 -0.5
v -5.5 23 -1.5
v -4.5 23 -1.5
v 4.5 23 -1.5
v 5.5 23 -1.5
v -4.5 23 -2.5
v -3.5 23 -2.5
v 3.5 23 -2.5
v 4.5 23 -2.5
v -4.5 23 -3.5
v -3.5 23 -3.5
v -2.5 23 -3.5
v 2.5 23 -3.5
v 3.5 23 -3.5
v 4.5 23 -3.5
v -3.5 23 -4.5
v -2.5 23 -4.5
v -1.5 23 -4.5
v -0.5 23 -4.5
v 0.5 23 -4.5
v 1.5 23 -4.5
v 2.5 23 -4.5
v 3.5 23 -4.5
v -1.5 23 -5.5
v -0.5 23 -5.5
v 0.5 23 -5.5
v 1.5 23 -5.5
v -0.5 24 5.5
v 0.5 24 5.5
v -4.5 24 4.5
v -3.5 24 4.5
v -2.5 24 4.5
v -0.5 24 4.5
v 0.5 24 4.5
v 2.5 24 4.5
v 3.5 24 4.5
v 4.5 24 4.5
v -4.5 24 3.5
v -3.5 24 3.5
v -2.5 24 3.5
v -1.5 24 3.5
v 1.5 24 3.5
v 2.5 24 3.5
v 3.5 24 3.5
v 4.5 24 3.5
v -4.5 24 2.5
v -3.5 24 2.5
v -2.5 24 2.5
v -1.5 24 2.5
v 1.5 24 2.5
v 2.5 24 2.5
v 3.5 24 2.5
v 4.5 24 2.5
v -3.5 24 1.5
v -2.5 24 1.5
v 2.5 24 1.5
v 3.5 24 1.5
v -5.5 24 0.5
v -4.5 24 0.5
v 4.5 24 0.5
v 5.5 24 0.5
v -5.5 24 -0.5
v -4.5 24 -0.5
v 4.5 24 -0.5
v 5.5 24 -0.5
v -3.5 24 -1.5
v -2.5 24 -1.5
v 2.5 24 -1.5
v 3.5 24 -1.5
v -4.5 24 -2.5
v -3.5 24 -2.5
v -2.5 24 -2.5
v -1.5 24 -2.5
v 1.5 24 -2.5
v 2.5 24 -2.5
v 3.5 24 -2.5
v 4.5 24 -2.5
v -4.5 24 -3.5
v -3.5 24 -3.5
v -2.5 24 -3.5
v -1.5 24 -3.5
v 1.5 24 -3.5
v 2.5 24 -3.5
v 3.5 24 -3.5
v 4.5 24 -3.5
v -4.5 24 -4.5
v -3.5 24 -4.5
v -2.5 24 -4.5
v -0.5 24 -4.5
v 0.5 24 -4.5
v 2.5 24 -4.5
v 3.5 24 -4.5
v 4.5 24 -4.5
v -0.5 24 -5.5
v 0.5 24 -5.5
v -1.5 25 3.5
v 1.5 25 3.5
v -2.5 25 2.5
v -1.5 25 2.5
v 1.5 25 2.5
v 2.5 25 2.5
v -3.5 25 1.5
v -2.5 25 1.5
v -1.5 25 1.5
v 1.5 25 1.5
v 2.5 25 1.5
v 3.5 25 1.5
v -3.5 25 -1.5
v -2.5 25 -1.5
v -1.5 25 -1.5
v 1.5 25 -1.5
v 2.5 25 -1.5
v 3.5 25 -1.5
v -2.5 25 -2.5
v -1.5 25 -2.5
v 1.5 25 -2.5
v 2.5 25 -2.5
v -1.5 25 -3.5
v 1.5 25 -3.5
v -1.5 26 1.5
v 1.5 26 1.5
v -1.5 26 -1.5
v 1.5 26 -1.5

# faces
f 3/2/1 2/2/1 1/2/1
f 4/2/1 2/2/1 3/2/1
f 5/2/1 2/2/1 4/2/1
f 6/2/1 2/2/1 5/2/1
f 7/2/1 5/2/1 4/2/1
f 8/2/1 5/2/1 7/2/1
f 9/2/1 5/2/1 8/2/1
f 10/2/1 5/2/1 9/2/1
f 11/2/1 9/2/1 8/2/1
f 12/2/1 9/2/1 11/2/1
f 17/2/1 14/2/1 13/2/1
f 18/2/1 14/2/1 17/2/1
f 21/2/1 16/2/1 15/2/1
f 24/2/1 20/2/1 19/2/1
f 25/2/1 21/2/1 15/2/1
f 26/1/1 22/1/1 21/1/1
f 26/2/1 21/2/1 25/2/1
f 27/1/1 22/1/1 26/1/1
f 30/1/1 24/1/1 23/1/1
f 31/2/1 20/2/1 24/2/1
f 31/1/1 24/1/1 30/1/1
f 32/2/1 20/2/1 31/2/1
f 33/2/1 25/2/1 15/2/1
f 34/2/1 25/2/1 33/2/1
f 35/1/1 28/1/1 27/1/1
f 35/1/1 27/1/1 26/1/1
f 36/1/1 28/1/1 35/1/1
f 37/1/1 30/1/1 29/1/1
f 37/1/1 31/1/1 30/1/1
f 38/1/1 31/1/1 37/1/1
f 39/2/1 20/2/1 32/2/1
f 40/2/1 20/2/1 39/2/1
f 45/2/1 42/2/1 41/2/1
f 46/2/1 42/2/1 45/2/1
f 47/2/1 44/2/1 43/2/1
f 48/2/1 44/2/1 47/2/1
f 53/1/1 50/1/1 49/1/1
f 54/1/1 50/1/1 53/1/1
f 57/1/1 52/1/1 51/1/1
f 58/1/1 52/1/1 57/1/1
f 59/1/1 56/1/1 55/1/1
f 60/1/1 56/1/1 59/1/1
f 65/2/1 62/2/1 61/2/1
f 66/2/1 62/2/1 65/2/1
f 67/2/1 64/2/1 63/2/1
f 68/2/1 64/2/1 67/2/1
f 73/1/1 70/1/1 69/1/1
f 74/1/1 70/1/1 73/1/1
f 79/1/1 72/1/1 71/1/1
f 80/1/1 72/1/1 79/1/1
f 81/1/1 76/1/1 75/1/1
f 82/1/1 76/1/1 81/1/1
f 83/1/1 78/1/1 77/1/1
f 84/1/1 78/1/1 83/1/1
f 89/2/1 86/2/1 85/2/1
f 90/2/1 86/2/1 89/2/1
f 91/2/1 88/2/1 87/2/1
f 92/2/1 88/2/1 91/2/1
f 97/2/1 94/2/1 93/2/1
f 98/2/1 94/2/1 97/2/1
f 99/2/1 96/2/1 95/2/1
f 100/2/1 96/2/1 99/2/1
f 105/1/1 102/1/1 101/1/1
f 106/1/1 102/1/1 105/1/1
f 109/1/1 104/1/1 103/1/1
f 110/1/1 104/1/1 109/1/1
f 111/1/1 108/1/1 107/1/1
f 112/1/1 108/1/1 111/1/1
f 117/2/1 114/2/1 113/2/1
f 118/2/1 114/2/1 117/2/1
f 119/2/1 116/2/1 115/2/1
f 120/2/1 116/2/1 119/2/1
f 125/2/1 122/2/1 121/2/1
f 126/2/1 122/2/1 125/2/1
f 127/2/1 124/2/1 123/2/1
f 128/2/1 124/2/1 127/2/1
f 129/2/2 130/2/2 133/2/2
f 133/2/2 130/2/2 134/2/2
f 131/2/2 132/2/2 135/2/2
f 135/2/2 132/2/2 136/2/2
f 137/2/2 138/2/2 141/2/2
f 141/2/2 138/2/2 142/2/2
f 139/2/2 140/2/2 143/2/2
f 143/2/2 140/2/2 144/2/2
f 145/2/2 146/2/2 149/2/2
f 149/2/2 146/2/2 150/2/2
f 147/2/2 148/2/2 151/2/2
f 151/2/2 148/2/2 152/2/2
f 153/2/2 154/2/2 157/2/2
f 157/2/2 154/2/2 158/2/2
f 155/2/2 156/2/2 159/2/2
f 159/2/2 156/2/2 160/2/2
f 161/1/2 162/1/2 165/1/2
f 165/1/2 162/1/2 166/1/2
f 163/1/2 164/1/2 169/1/2
f 169/1/2 164/1/2 170/1/2
f 167/1/2 168/1/2 171/1/2
f 171/1/2 168/1/2 172/1/2
f 173/2/2 174/2/2 177/2/2
f 177/2/2 174/2/2 178/2/2
f 175/2/2 176/2/2 179/2/2
f 179/2/2 176/2/2 180/2/2
f 181/1/2 182/1/2 185/1/2
f 185/1/2 182/1/2 186/1/2
f 183/1/2 184/1/2 191/1/2
f 191/1/2 184/1/2 192/1/2
f 187/1/2 188/1/2 193/1/2
f 193/1/2 188/1/2 194/1/2
f 189/1/2 190/1/2 195/1/2
f 195/1/2 190/1/2 196/1/2
f 197/2/2 198/2/2 201/2/2
f 201/2/2 198/2/2 202/2/2
f 199/2/2 200/2/2 203/2/2
f 203/2/2 200/2/2 204/2/2
f 205/1/2 206/1/2 209/1/2
f 209/1/2 206/1/2 210/1/2
f 207/1/2 208/1/2 213/1/2
f 213/1/2 208/1/2 214/1/2
f 211/1/2 212/1/2 215/1/2
f 215/1/2 212/1/2 216/1/2
f 217/2/2 218/2/2 221/2/2
f 221/2/2 218/2/2 222/2/2
f 219/2/2 220/2/2 225/2/2
f 223/2/2 224/2/2 228/2/2
f 219/2/2 225/2/2 229/2/2
f 225/1/2 226/1/2 230/1/2
f 229/2/2 225/2/2 230/2/2
f 230/1/2 226/1/2 231/1/2
f 227/1/2 228/1/2 234/1/2
f 228/2/2 224/2/2 235/2/2
f 234/1/2 228/1/2 235/1/2
f 235/2/2 224/2/2 236/2/2
f 219/2/2 229/2/2 237/2/2
f 237/2/2 229/2/2 238/2/2
f 231/1/2 232/1/2 239/1/2
f 230/1/2 231/1/2 239/1/2
f 239/1/2 232/1/2 240/1/2
f 233/1/2 234/1/2 241/1/2
f 234/1/2 235/1/2 241/1/2
f 241/1/2 235/1/2 242/1/2
f 236/2/2 224/2/2 243/2/2
f 243/2/2 224/2/2 244/2/2
f 245/2/2 246/2/2 247/2/2
f 247/2/2 246/2/2 248/2/2
f 248/2/2 246/2/2 249/2/2
f 249/2/2 246/2/2 250/2/2
f 248/2/2 249/2/2 251/2/2
f 251/2/2 249/2/2 252/2/2
f 252/2/2 249/2/2 253/2/2
f 253/2/2 249/2/2 254/2/2
f 252/2/2 253/2/2 255/2/2
f 255/2/2 253/2/2 256/2/2
f 259/2/3 258/2/3 257/2/3
f 261/2/3 260/2/3 259/2/3
f 263/2/3 261/2/3 259/2/3
f 263/2/3 262/2/3 261/2/3
f 264/2/3 262/2/3 263/2/3
f 265/2/3 259/2/3 257/2/3
f 265/2/3 263/2/3 259/2/3
f 266/2/3 263/2/3 265/2/3
f 267/2/3 265/2/3 257/2/3
f 268/2/3 265/2/3 267/2/3
f 271/2/3 270/2/3 269/2/3
f 272/2/3 270/2/3 271/2/3
f 273/2/3 271/2/3 269/2/3
f 274/2/3 271/2/3 273/2/3
f 275/2/3 271/2/3 274/2/3
f 279/1/3 276/1/3 275/1/3
f 279/1/3 275/1/3 274/1/3
f 280/1/3 276/1/3 279/1/3
f 281/1/3 276/1/3 280/1/3
f 282/1/3 276/1/3 281/1/3
f 285/2/3 278/2/3 277/2/3
f 286/2/3 278/2/3 285/2/3
f 288/1/3 284/1/3 283/1/3
f 290/1/3 288/1/3 287/1/3
f 291/1/3 284/1/3 288/1/3
f 291/1/3 288/1/3 290/1/3
f 292/1/3 284/1/3 291/1/3
f 293/2/3 290/2/3 289/2/3
f 293/2/3 291/2/3 290/2/3
f 295/2/3 293/2/3 289/2/3
f 295/2/3 294/2/3 293/2/3
f 296/2/3 294/2/3 295/2/3
f 301/1/3 300/1/3 299/1/3
f 302/1/3 300/1/3 301/1/3
f 303/2/3 298/2/3 297/2/3
f 304/2/3 298/2/3 303/2/3
f 309/1/3 306/1/3 305/1/3
f 310/1/3 306/1/3 309/1/3
f 313/2/3 308/2/3 307/2/3
f 314/2/3 308/2/3 313/2/3
f 315/1/3 312/1/3 311/1/3
f 316/1/3 312/1/3 315/1/3
f 319/2/3 318/2/3 317/2/3
f 320/2/3 318/2/3 319/2/3
f 323/1/3 322/1/3 321/1/3
f 324/1/3 322/1/3 323/1/3
f 327/1/3 326/1/3 325/1/3
f 328/1/3 326/1/3 327/1/3
f 331/1/3 330/1/3 329/1/3
f 332/1/3 330/1/3 331/1/3
f 337/1/3 334/1/3 333/1/3
f 338/1/3 334/1/3 337/1/3
f 339/2/3 336/2/3 335/2/3
f 340/2/3 336/2/3 339/2/3
f 345/2/3 342/2/3 341/2/3
f 346/2/3 342/2/3 345/2/3
f 347/2/3 344/2/3 343/2/3
f 348/2/3 344/2/3 347/2/3
f 351/1/3 350/1/3 349/1/3
f 352/1/3 350/1/3 351/1/3
f 355/1/3 354/1/3 353/1/3
f 356/1/3 354/1/3 355/1/3
f 361/1/3 358/1/3 357/1/3
f 362/1/3 358/1/3 361/1/3
f 363/2/3 360/2/3 359/2/3
f 364/2/3 360/2/3 363/2/3
f 367/2/3 366/2/3 365/2/3
f 368/2/3 366/2/3 367/2/3
f 371/2/3 370/2/3 369/2/3
f 372/2/3 370/2/3 371/2/3
f 375/2/3 374/2/3 373/2/3
f 376/2/3 374/2/3 375/2/3
f 379/2/3 378/2/3 377/2/3
f 380/2/3 378/2/3 379/2/3
f 383/2/3 382/2/3 381/2/3
f 384/2/3 382/2/3 383/2/3
f 385/2/4 386/2/4 387/2/4
f 387/2/4 386/2/4 388/2/4
f 389/2/4 390/2/4 391/2/4
f 391/2/4 390/2/4 392/2/4
f 393/2/4 394/2/4 395/2/4
f 395/2/4 394/2/4 396/2/4
f 397/2/4 398/2/4 399/2/4
f 399/2/4 398/2/4 400/2/4
f 401/2/4 402/2/4 405/2/4
f 405/2/4 402/2/4 406/2/4
f 403/2/4 404/2/4 407/2/4
f 407/2/4 404/2/4 408/2/4
f 409/1/4 410/1/4 411/1/4
f 411/1/4 410/1/4 412/1/4
f 413/1/4 414/1/4 415/1/4
f 415/1/4 414/1/4 416/1/4
f 417/1/4 418/1/4 421/1/4
f 421/1/4 418/1/4 422/1/4
f 419/2/4 420/2/4 423/2/4
f 423/2/4 420/2/4 424/2/4
f 425/2/4 426/2/4 427/2/4
f 427/2/4 426/2/4 428/2/4
f 429/2/4 430/2/4 431/2/4
f 431/2/4 430/2/4 432/2/4
f 433/1/4 434/1/4 435/1/4
f 435/1/4 434/1/4 436/1/4
f 437/1/4 438/1/4 439/1/4
f 439/1/4 438/1/4 440/1/4
f 441/1/4 442/1/4 443/1/4
f 443/1/4 442/1/4 444/1/4
f 445/1/4 446/1/4 449/1/4
f 449/1/4 446/1/4 450/1/4
f 447/2/4 448/2/4 451/2/4
f 451/2/4 448/2/4 452/2/4
f 455/1/4 456/1/4 457/1/4
f 457/1/4 456/1/4 458/1/4
f 453/2/4 454/2/4 459/2/4
f 459/2/4 454/2/4 460/2/4
f 461/1/4 462/1/4 465/1/4
f 465/1/4 462/1/4 466/1/4
f 463/2/4 464/2/4 469/2/4
f 469/2/4 464/2/4 470/2/4
f 467/1/4 468/1/4 471/1/4
f 471/1/4 468/1/4 472/1/4
f 473/2/4 474/2/4 475/2/4
f 475/2/4 474/2/4 476/2/4
f 473/2/4 475/2/4 477/2/4
f 477/2/4 475/2/4 478/2/4
f 478/2/4 475/2/4 479/2/4
f 479/1/4 480/1/4 483/1/4
f 478/1/4 479/1/4 483/1/4
f 483/1/4 480/1/4 484/1/4
f 484/1/4 480/1/4 485/1/4
f 485/1/4 480/1/4 486/1/4
f 481/2/4 482/2/4 489/2/4
f 489/2/4 482/2/4 490/2/4
f 487/1/4 488/1/4 492/1/4
f 491/1/4 492/1/4 494/1/4
f 492/1/4 488/1/4 495/1/4
f 494/1/4 492/1/4 495/1/4
f 495/1/4 488/1/4 496/1/4
f 493/2/4 494/2/4 497/2/4
f 494/2/4 495/2/4 497/2/4
f 493/2/4 497/2/4 499/2/4
f 497/2/4 498/2/4 499/2/4
f 499/2/4 498/2/4 500/2/4
f 501/2/4 502/2/4 503/2/4
f 503/2/4 504/2/4 505/2/4
f 503/2/4 505/2/4 507/2/4
f 505/2/4 506/2/4 507/2/4
f 507/2/4 506/2/4 508/2/4
f 501/2/4 503/2/4 509/2/4
f 503/2/4 507/2/4 509/2/4
f 509/2/4 507/2/4 510/2/4
f 501/2/4 509/2/4 511/2/4
f 511/2/4 509/2/4 512/2/4
f 516/2/5 514/2/5 513/2/5
f 517/2/5 514/2/5 516/2/5
f 520/2/5 516/2/5 515/2/5
f 520/2/5 518/2/5 517/2/5
f 520/2/5 517/2/5 516/2/5
f 521/2/5 518/2/5 520/2/5
f 523/2/5 520/2/5 519/2/5
f 523/2/5 522/2/5 521/2/5
f 523/2/5 521/2/5 520/2/5
f 524/2/5 522/2/5 523/2/5
f 525/2/5 522/2/5 524/2/5
f 526/2/5 522/2/5 525/2/5
f 527/2/5 525/2/5 524/2/5
f 528/2/5 525/2/5 527/2/5
f 529/2/5 525/2/5 528/2/5
f 530/2/5 525/2/5 529/2/5
f 531/2/5 529/2/5 528/2/5
f 532/2/5 529/2/5 531/2/5
f 536/2/5 534/2/5 533/2/5
f 537/2/5 534/2/5 536/2/5
f 538/2/5 534/2/5 537/2/5
f 539/2/5 534/2/5 538/2/5
f 541/2/5 536/2/5 535/2/5
f 541/2/5 537/2/5 536/2/5
f 542/2/5 537/2/5 541/2/5
f 543/2/5 540/2/5 539/2/5
f 543/2/5 539/2/5 538/2/5
f 544/2/5 540/2/5 543/2/5
f 546/2/5 541/2/5 535/2/5
f 547/2/5 540/2/5 544/2/5
f 549/2/5 546/2/5 545/2/5
f 549/2/5 541/2/5 546/2/5
f 550/2/5 541/2/5 549/2/5
f 551/2/5 548/2/5 547/2/5
f 551/2/5 547/2/5 544/2/5
f 552/2/5 548/2/5 551/2/5
f 553/2/5 549/2/5 545/2/5
f 556/2/5 548/2/5 552/2/5
f 557/2/5 554/2/5 553/2/5
f 557/2/5 553/2/5 545/2/5
f 558/2/5 554/2/5 557/2/5
f 559/2/5 556/2/5 555/2/5
f 559/2/5 548/2/5 556/2/5
f 560/2/5 548/2/5 559/2/5
f 561/2/5 554/2/5 558/2/5
f 564/2/5 559/2/5 555/2/5
f 565/2/5 562/2/5 561/2/5
f 565/2/5 561/2/5 558/2/5
f 566/2/5 562/2/5 565/2/5
f 567/2/5 562/2/5 566/2/5
f 568/2/5 564/2/5 563/2/5
f 569/2/5 564/2/5 568/2/5
f 570/2/5 559/2/5 564/2/5
f 570/2/5 564/2/5 569/2/5
f 571/2/5 567/2/5 566/2/5
f 571/2/5 569/2/5 568/2/5
f 571/2/5 568/2/5 567/2/5
f 572/2/5 569/2/5 571/2/5
f 573/2/6 574/2/6 577/2/6
f 577/2/6 574/2/6 578/2/6
f 575/2/6 576/2/6 579/2/6
f 579/2/6 576/2/6 580/2/6
f 581/2/6 582/2/6 585/2/6
f 585/2/6 582/2/6 586/2/6
f 583/2/6 584/2/6 587/2/6
f 587/2/6 584/2/6 588/2/6
f 589/2/6 590/2/6 593/2/6
f 593/2/6 590/2/6 594/2/6
f 591/2/6 592/2/6 595/2/6
f 595/2/6 592/2/6 596/2/6
f 597/2/6 598/2/6 601/2/6
f 601/2/6 598/2/6 602/2/6
f 599/2/6 600/2/6 603/2/6
f 603/2/6 600/2/6 604/2/6
f 605/2/6 606/2/6 611/2/6
f 611/2/6 606/2/6 612/2/6
f 607/2/6 608/2/6 613/2/6
f 613/2/6 608/2/6 614/2/6
f 609/2/6 610/2/6 618/2/6
f 618/2/6 610/2/6 619/2/6
f 615/2/6 616/2/6 620/2/6
f 620/2/6 616/2/6 621/2/6
f 617/2/6 618/2/6 623/2/6
f 623/2/6 618/2/6 624/2/6
f 621/2/6 622/2/6 625/2/6
f 625/2/6 622/2/6 626/2/6
f 627/2/6 628/2/6 631/2/6
f 631/2/6 628/2/6 632/2/6
f 629/2/6 630/2/6 633/2/6
f 633/2/6 630/2/6 634/2/6
f 635/2/6 636/2/6 639/2/6
f 639/2/6 636/2/6 640/2/6
f 637/2/6 638/2/6 641/2/6
f 641/2/6 638/2/6 642/2/6
f 643/2/6 644/2/6 647/2/6
f 647/2/6 644/2/6 648/2/6
f 645/2/6 646/2/6 651/2/6
f 651/2/6 646/2/6 652/2/6
f 648/2/6 649/2/6 653/2/6
f 653/2/6 649/2/6 654/2/6
f 650/2/6 651/2/6 659/2/6
f 659/2/6 651/2/6 660/2/6
f 655/2/6 656/2/6 661/2/6
f 661/2/6 656/2/6 662/2/6
f 657/2/6 658/2/6 663/2/6
f 663/2/6 658/2/6 664/2/6
f 665/2/6 666/2/6 670/2/6
f 670/2/6 666/2/6 671/2/6
f 667/2/6 668/2/6 675/2/6
f 675/2/6 668/2/6 676/2/6
f 669/1/6 670/1/6 677/1/6
f 670/1/6 671/1/6 677/1/6
f 671/1/6 672/1/6 677/1/6
f 677/1/6 672/1/6 678/1/6
f 678/1/6 672/1/6 679/1/6
f 679/1/6 672/1/6 680/1/6
f 673/2/6 674/2/6 681/2/6
f 681/2/6 674/2/6 682/2/6
f 676/1/6 677/1/6 684/1/6
f 677/1/6 678/1/6 684/1/6
f 684/1/6 678/1/6 685/1/6
f 685/1/6 678/1/6 686/1/6
f 679/1/6 680/1/6 687/1/6
f 680/1/6 681/1/6 687/1/6
f 687/1/6 681/1/6 688/1/6
f 688/1/6 681/1/6 689/1/6
f 684/1/6 685/1/6 691/1/6
f 683/1/6 684/1/6 691/1/6
f 691/1/6 685/1/6 692/1/6
f 689/1/6 690/1/6 693/1/6
f 688/1/6 689/1/6 693/1/6
f 693/1/6 690/1/6 694/1/6
f 683/1/6 691/1/6 696/1/6
f 694/1/6 690/1/6 697/1/6
f 695/2/6 696/2/6 699/2/6
f 696/1/6 691/1/6 700/1/6
f 699/2/6 696/2/6 700/2/6
f 697/2/6 698/2/6 701/2/6
f 694/1/6 697/1/6 701/1/6
f 701/2/6 698/2/6 702/2/6
f 700/1/6 691/1/6 703/1/6
f 694/1/6 701/1/6 706/1/6
f 703/1/6 704/1/6 707/1/6
f 700/1/6 703/1/6 707/1/6
f 707/1/6 704/1/6 708/1/6
f 708/1/6 704/1/6 709/1/6
f 705/1/6 706/1/6 712/1/6
f 706/1/6 701/1/6 713/1/6
f 712/1/6 706/1/6 713/1/6
f 713/1/6 701/1/6 714/1/6
f 709/1/6 710/1/6 716/1/6
f 708/1/6 709/1/6 716/1/6
f 716/1/6 710/1/6 717/1/6
f 717/1/6 710/1/6 718/1/6
f 712/1/6 713/1/6 719/1/6
f 711/1/6 712/1/6 719/1/6
f 719/1/6 713/1/6 720/1/6
f 720/1/6 713/1/6 721/1/6
f 715/2/6 716/2/6 723/2/6
f 723/2/6 716/2/6 724/2/6
f 717/1/6 718/1/6 725/1/6
f 719/1/6 720/1/6 725/1/6
f 718/1/6 719/1/6 725/1/6
f 725/1/6 720/1/6 726/1/6
f 726/1/6 720/1/6 727/1/6
f 727/1/6 720/1/6 728/1/6
f 721/2/6 722/2/6 729/2/6
f 729/2/6 722/2/6 730/2/6
f 726/2/6 727/2/6 731/2/6
f 731/2/6 727/2/6 732/2/6
f 733/1/6 734/1/6 736/1/6
f 736/1/6 734/1/6 737/1/6
f 735/1/6 736/1/6 740/1/6
f 737/1/6 738/1/6 740/1/6
f 736/1/6 737/1/6 740/1/6
f 740/1/6 738/1/6 741/1/6
f 741/1/6 738/1/6 742/1/6
f 742/1/6 738/1/6 743/1/6
f 739/1/6 740/1/6 745/1/6
f 740/1/6 741/1/6 745/1/6
f 745/1/6 741/1/6 746/1/6
f 746/1/6 741/1/6 747/1/6
f 743/1/6 744/1/6 748/1/6
f 742/1/6 743/1/6 748/1/6
f 748/1/6 744/1/6 749/1/6
f 749/1/6 744/1/6 750/1/6
f 746/1/6 747/1/6 751/1/6
f 748/1/6 749/1/6 751/1/6
f 747/1/6 748/1/6 751/1/6
f 751/1/6 749/1/6 752/1/6
f 752/1/6 749/1/6 753/1/6
f 753/1/6 749/1/6 754/1/6
f 752/1/6 753/1/6 755/1/6
f 755/1/6 753/1/6 756/1/6
f 757/1/6 758/1/6 759/1/6
f 759/1/6 758/1/6 760/1/6
