# MagicaVoxel @ Ephtracy

# material
mtllib Chicken_Run01.mtl
usemtl palette

# normals
vn -1 0 0
vn 1 0 0
vn 0 0 1
vn 0 0 -1
vn 0 -1 0
vn 0 1 0

# texcoords
vt 0.962891 0.5
vt 0.970703 0.5
vt 0.974609 0.5
vt 0.978516 0.5
vt 0.982422 0.5
vt 0.986328 0.5

# verts
v -5 5 3.5
v -5 5 -0.5
v -5 7 3.5
v -5 7 -0.5
v -4 0 2.5
v -4 0 -0.5
v -4 1 2.5
v -4 1 -0.5
v -3 0 -0.5
v -3 0 -1.5
v -3 1 0.5
v -3 1 -0.5
v -3 1 -1.5
v -3 4 4.5
v -3 4 0.5
v -3 4 -0.5
v -3 4 -4.5
v -3 5 3.5
v -3 5 -0.5
v -3 7 3.5
v -3 7 -0.5
v -3 8 4.5
v -3 8 3.5
v -3 8 -1.5
v -3 8 -4.5
v -3 10 2.5
v -3 10 1.5
v -3 10 0.5
v -3 11 2.5
v -3 11 1.5
v -3 11 0.5
v -3 12 3.5
v -3 12 -1.5
v -3 13 3.5
v -3 13 -1.5
v -2 0 2.5
v -2 0 0.5
v -2 1 2.5
v -2 1 0.5
v -2 4 -4.5
v -2 4 -5.5
v -2 7 -4.5
v -2 7 -5.5
v -1 8 4.5
v -1 8 3.5
v -1 9 5.5
v -1 9 4.5
v -1 9 3.5
v -1 11 5.5
v -1 11 3.5
v -1 13 2.5
v -1 13 0.5
v -1 13 -0.5
v -1 15 2.5
v -1 15 -0.5
v 1 1 3.5
v 1 1 0.5
v 1 2 3.5
v 1 2 0.5
v 2 1 0.5
v 2 1 -0.5
v 2 2 1.5
v 2 2 0.5
v 2 2 -0.5
v 2 3 1.5
v 2 3 0.5
v 2 3 -0.5
v 2 4 0.5
v 2 4 -0.5
v 2 8 0.5
v 2 8 -0.5
v 2 12 0.5
v 2 12 -0.5
v 2 13 0.5
v 2 13 -0.5
v 3 1 3.5
v 3 1 1.5
v 3 2 3.5
v 3 2 1.5
v -3 0 2.5
v -3 0 0.5
v -3 1 2.5
v -3 1 0.5
v -2 0 -0.5
v -2 0 -1.5
v -2 1 0.5
v -2 1 -0.5
v -2 1 -1.5
v -2 4 0.5
v -2 4 -0.5
v -2 8 0.5
v -2 8 -0.5
v -2 12 0.5
v -2 12 -0.5
v -2 13 0.5
v -2 13 -0.5
v -1 0 2.5
v -1 0 -0.5
v -1 1 2.5
v -1 1 -0.5
v 1 8 4.5
v 1 8 3.5
v 1 9 5.5
v 1 9 4.5
v 1 9 3.5
v 1 11 5.5
v 1 11 3.5
v 1 13 2.5
v 1 13 0.5
v 1 13 -0.5
v 1 15 2.5
v 1 15 -0.5
v 2 1 3.5
v 2 1 1.5
v 2 2 3.5
v 2 2 1.5
v 2 4 -4.5
v 2 4 -5.5
v 2 7 -4.5
v 2 7 -5.5
v 3 1 0.5
v 3 1 -0.5
v 3 2 1.5
v 3 2 0.5
v 3 2 -0.5
v 3 3 1.5
v 3 3 0.5
v 3 3 -0.5
v 3 4 4.5
v 3 4 0.5
v 3 4 -0.5
v 3 4 -4.5
v 3 5 3.5
v 3 5 -0.5
v 3 7 3.5
v 3 7 -0.5
v 3 8 4.5
v 3 8 3.5
v 3 8 -1.5
v 3 8 -4.5
v 3 10 2.5
v 3 10 1.5
v 3 10 0.5
v 3 11 2.5
v 3 11 1.5
v 3 11 0.5
v 3 12 3.5
v 3 12 -1.5
v 3 13 3.5
v 3 13 -1.5
v 4 1 3.5
v 4 1 0.5
v 4 2 3.5
v 4 2 0.5
v 5 5 3.5
v 5 5 -0.5
v 5 7 3.5
v 5 7 -0.5
v -1 9 5.5
v -1 11 5.5
v 1 9 5.5
v 1 11 5.5
v -3 4 4.5
v -3 8 4.5
v -1 8 4.5
v -1 9 4.5
v 1 8 4.5
v 1 9 4.5
v 3 4 4.5
v 3 8 4.5
v -5 5 3.5
v -5 7 3.5
v -3 5 3.5
v -3 7 3.5
v -3 8 3.5
v -3 12 3.5
v -3 13 3.5
v -1 8 3.5
v -1 9 3.5
v -1 11 3.5
v 1 1 3.5
v 1 2 3.5
v 1 8 3.5
v 1 9 3.5
v 1 11 3.5
v 2 1 3.5
v 2 2 3.5
v 3 1 3.5
v 3 2 3.5
v 3 5 3.5
v 3 7 3.5
v 3 8 3.5
v 3 12 3.5
v 3 13 3.5
v 4 1 3.5
v 4 2 3.5
v 5 5 3.5
v 5 7 3.5
v -4 0 2.5
v -4 1 2.5
v -3 0 2.5
v -3 1 2.5
v -2 0 2.5
v -2 1 2.5
v -1 0 2.5
v -1 1 2.5
v -1 13 2.5
v -1 15 2.5
v 1 13 2.5
v 1 15 2.5
v 2 1 1.5
v 2 2 1.5
v 2 3 1.5
v 3 1 1.5
v 3 2 1.5
v 3 3 1.5
v -3 0 0.5
v -3 1 0.5
v -3 4 0.5
v -2 0 0.5
v -2 1 0.5
v -2 4 0.5
v 2 3 0.5
v 2 4 0.5
v 3 3 0.5
v 3 4 0.5
v -2 8 -0.5
v -2 12 -0.5
v -2 13 -0.5
v -1 13 -0.5
v 1 13 -0.5
v 2 8 -0.5
v 2 12 -0.5
v 2 13 -0.5
v -2 8 0.5
v -2 12 0.5
v -2 13 0.5
v -1 13 0.5
v 1 1 0.5
v 1 2 0.5
v 1 13 0.5
v 2 1 0.5
v 2 2 0.5
v 2 3 0.5
v 2 8 0.5
v 2 12 0.5
v 2 13 0.5
v 3 1 0.5
v 3 2 0.5
v 3 3 0.5
v 4 1 0.5
v 4 2 0.5
v -5 5 -0.5
v -5 7 -0.5
v -4 0 -0.5
v -4 1 -0.5
v -3 0 -0.5
v -3 1 -0.5
v -3 4 -0.5
v -3 5 -0.5
v -3 7 -0.5
v -2 0 -0.5
v -2 1 -0.5
v -2 4 -0.5
v -1 0 -0.5
v -1 1 -0.5
v -1 13 -0.5
v -1 15 -0.5
v 1 13 -0.5
v 1 15 -0.5
v 2 1 -0.5
v 2 2 -0.5
v 2 3 -0.5
v 2 4 -0.5
v 3 1 -0.5
v 3 2 -0.5
v 3 3 -0.5
v 3 4 -0.5
v 3 5 -0.5
v 3 7 -0.5
v 5 5 -0.5
v 5 7 -0.5
v -3 0 -1.5
v -3 1 -1.5
v -3 8 -1.5
v -3 12 -1.5
v -3 13 -1.5
v -2 0 -1.5
v -2 1 -1.5
v 3 8 -1.5
v 3 12 -1.5
v 3 13 -1.5
v -3 4 -4.5
v -3 8 -4.5
v -2 4 -4.5
v -2 7 -4.5
v 2 4 -4.5
v 2 7 -4.5
v 3 4 -4.5
v 3 8 -4.5
v -2 4 -5.5
v -2 7 -5.5
v 2 4 -5.5
v 2 7 -5.5
v -4 0 2.5
v -3 0 2.5
v -2 0 2.5
v -1 0 2.5
v -3 0 0.5
v -2 0 0.5
v -4 0 -0.5
v -3 0 -0.5
v -2 0 -0.5
v -1 0 -0.5
v -3 0 -1.5
v -2 0 -1.5
v 1 1 3.5
v 2 1 3.5
v 3 1 3.5
v 4 1 3.5
v 2 1 1.5
v 3 1 1.5
v 1 1 0.5
v 2 1 0.5
v 3 1 0.5
v 4 1 0.5
v 2 1 -0.5
v 3 1 -0.5
v 2 3 0.5
v 3 3 0.5
v 2 3 -0.5
v 3 3 -0.5
v -3 4 4.5
v 3 4 4.5
v -3 4 0.5
v -2 4 0.5
v 2 4 0.5
v 3 4 0.5
v -3 4 -0.5
v -2 4 -0.5
v 2 4 -0.5
v 3 4 -0.5
v -3 4 -4.5
v -2 4 -4.5
v 2 4 -4.5
v 3 4 -4.5
v -2 4 -5.5
v 2 4 -5.5
v -5 5 3.5
v -3 5 3.5
v 3 5 3.5
v 5 5 3.5
v -5 5 -0.5
v -3 5 -0.5
v 3 5 -0.5
v 5 5 -0.5
v -1 9 5.5
v 1 9 5.5
v -1 9 4.5
v 1 9 4.5
v -1 13 0.5
v 1 13 0.5
v -1 13 -0.5
v 1 13 -0.5
v -4 1 2.5
v -3 1 2.5
v -2 1 2.5
v -1 1 2.5
v -3 1 0.5
v -2 1 0.5
v -4 1 -0.5
v -3 1 -0.5
v -2 1 -0.5
v -1 1 -0.5
v -3 1 -1.5
v -2 1 -1.5
v 1 2 3.5
v 2 2 3.5
v 3 2 3.5
v 4 2 3.5
v 2 2 1.5
v 3 2 1.5
v 1 2 0.5
v 2 2 0.5
v 3 2 0.5
v 4 2 0.5
v 2 2 -0.5
v 3 2 -0.5
v 2 3 1.5
v 3 3 1.5
v 2 3 0.5
v 3 3 0.5
v -5 7 3.5
v -3 7 3.5
v 3 7 3.5
v 5 7 3.5
v -5 7 -0.5
v -3 7 -0.5
v 3 7 -0.5
v 5 7 -0.5
v -2 7 -4.5
v 2 7 -4.5
v -2 7 -5.5
v 2 7 -5.5
v -3 8 4.5
v -1 8 4.5
v 1 8 4.5
v 3 8 4.5
v -3 8 3.5
v -1 8 3.5
v 1 8 3.5
v 3 8 3.5
v -2 8 0.5
v 2 8 0.5
v -2 8 -0.5
v 2 8 -0.5
v -3 8 -1.5
v 3 8 -1.5
v -3 8 -4.5
v 3 8 -4.5
v -1 11 5.5
v 1 11 5.5
v -1 11 3.5
v 1 11 3.5
v -3 13 3.5
v 3 13 3.5
v -1 13 2.5
v 1 13 2.5
v -2 13 0.5
v -1 13 0.5
v 1 13 0.5
v 2 13 0.5
v -2 13 -0.5
v -1 13 -0.5
v 1 13 -0.5
v 2 13 -0.5
v -3 13 -1.5
v 3 13 -1.5
v -1 15 2.5
v 1 15 2.5
v -1 15 -0.5
v 1 15 -0.5

# faces
f 3/1/1 2/1/1 1/1/1
f 4/1/1 2/1/1 3/1/1
f 7/3/1 6/3/1 5/3/1
f 8/3/1 6/3/1 7/3/1
f 12/3/1 10/3/1 9/3/1
f 13/3/1 10/3/1 12/3/1
f 15/3/1 12/3/1 11/3/1
f 16/3/1 12/3/1 15/3/1
f 18/1/1 16/1/1 15/1/1
f 18/1/1 17/1/1 16/1/1
f 18/1/1 15/1/1 14/1/1
f 19/1/1 17/1/1 18/1/1
f 20/1/1 18/1/1 14/1/1
f 21/1/1 17/1/1 19/1/1
f 22/1/1 20/1/1 14/1/1
f 22/1/1 21/1/1 20/1/1
f 23/1/1 21/1/1 22/1/1
f 24/1/1 17/1/1 21/1/1
f 24/1/1 21/1/1 23/1/1
f 25/1/1 17/1/1 24/1/1
f 26/1/1 24/1/1 23/1/1
f 27/1/1 24/1/1 26/1/1
f 28/1/1 24/1/1 27/1/1
f 29/1/1 26/1/1 23/1/1
f 29/5/1 27/5/1 26/5/1
f 30/2/1 28/2/1 27/2/1
f 30/5/1 27/5/1 29/5/1
f 31/1/1 24/1/1 28/1/1
f 31/2/1 28/2/1 30/2/1
f 32/1/1 30/1/1 29/1/1
f 32/1/1 29/1/1 23/1/1
f 32/1/1 31/1/1 30/1/1
f 33/1/1 24/1/1 31/1/1
f 33/1/1 31/1/1 32/1/1
f 34/2/1 33/2/1 32/2/1
f 35/2/1 33/2/1 34/2/1
f 38/3/1 37/3/1 36/3/1
f 39/3/1 37/3/1 38/3/1
f 42/2/1 41/2/1 40/2/1
f 43/2/1 41/2/1 42/2/1
f 47/4/1 45/4/1 44/4/1
f 48/4/1 45/4/1 47/4/1
f 49/6/1 47/6/1 46/6/1
f 49/6/1 48/6/1 47/6/1
f 50/6/1 48/6/1 49/6/1
f 54/4/1 52/4/1 51/4/1
f 54/4/1 53/4/1 52/4/1
f 55/4/1 53/4/1 54/4/1
f 58/3/1 57/3/1 56/3/1
f 59/3/1 57/3/1 58/3/1
f 63/3/1 61/3/1 60/3/1
f 64/3/1 61/3/1 63/3/1
f 65/3/1 63/3/1 62/3/1
f 66/3/1 63/3/1 65/3/1
f 68/3/1 67/3/1 66/3/1
f 69/3/1 67/3/1 68/3/1
f 72/1/1 71/1/1 70/1/1
f 73/1/1 71/1/1 72/1/1
f 74/2/1 73/2/1 72/2/1
f 75/2/1 73/2/1 74/2/1
f 78/3/1 77/3/1 76/3/1
f 79/3/1 77/3/1 78/3/1
f 80/3/2 81/3/2 82/3/2
f 82/3/2 81/3/2 83/3/2
f 84/3/2 85/3/2 87/3/2
f 87/3/2 85/3/2 88/3/2
f 86/3/2 87/3/2 89/3/2
f 89/3/2 87/3/2 90/3/2
f 91/1/2 92/1/2 93/1/2
f 93/1/2 92/1/2 94/1/2
f 93/2/2 94/2/2 95/2/2
f 95/2/2 94/2/2 96/2/2
f 97/3/2 98/3/2 99/3/2
f 99/3/2 98/3/2 100/3/2
f 101/4/2 102/4/2 104/4/2
f 104/4/2 102/4/2 105/4/2
f 103/6/2 104/6/2 106/6/2
f 104/6/2 105/6/2 106/6/2
f 106/6/2 105/6/2 107/6/2
f 108/4/2 109/4/2 111/4/2
f 109/4/2 110/4/2 111/4/2
f 111/4/2 110/4/2 112/4/2
f 113/3/2 114/3/2 115/3/2
f 115/3/2 114/3/2 116/3/2
f 117/2/2 118/2/2 119/2/2
f 119/2/2 118/2/2 120/2/2
f 121/3/2 122/3/2 124/3/2
f 124/3/2 122/3/2 125/3/2
f 123/3/2 124/3/2 126/3/2
f 126/3/2 124/3/2 127/3/2
f 127/3/2 128/3/2 130/3/2
f 130/3/2 128/3/2 131/3/2
f 130/1/2 131/1/2 133/1/2
f 131/1/2 132/1/2 133/1/2
f 129/1/2 130/1/2 133/1/2
f 133/1/2 132/1/2 134/1/2
f 129/1/2 133/1/2 135/1/2
f 134/1/2 132/1/2 136/1/2
f 129/1/2 135/1/2 137/1/2
f 135/1/2 136/1/2 137/1/2
f 137/1/2 136/1/2 138/1/2
f 136/1/2 132/1/2 139/1/2
f 138/1/2 136/1/2 139/1/2
f 139/1/2 132/1/2 140/1/2
f 138/1/2 139/1/2 141/1/2
f 141/1/2 139/1/2 142/1/2
f 142/1/2 139/1/2 143/1/2
f 138/1/2 141/1/2 144/1/2
f 141/5/2 142/5/2 144/5/2
f 142/2/2 143/2/2 145/2/2
f 144/5/2 142/5/2 145/5/2
f 143/1/2 139/1/2 146/1/2
f 145/2/2 143/2/2 146/2/2
f 144/1/2 145/1/2 147/1/2
f 138/1/2 144/1/2 147/1/2
f 145/1/2 146/1/2 147/1/2
f 146/1/2 139/1/2 148/1/2
f 147/1/2 146/1/2 148/1/2
f 147/2/2 148/2/2 149/2/2
f 149/2/2 148/2/2 150/2/2
f 151/3/2 152/3/2 153/3/2
f 153/3/2 152/3/2 154/3/2
f 155/1/2 156/1/2 157/1/2
f 157/1/2 156/1/2 158/1/2
f 161/6/3 160/6/3 159/6/3
f 162/6/3 160/6/3 161/6/3
f 165/1/3 164/1/3 163/1/3
f 167/1/3 165/1/3 163/1/3
f 167/4/3 166/4/3 165/4/3
f 168/4/3 166/4/3 167/4/3
f 169/1/3 167/1/3 163/1/3
f 170/1/3 167/1/3 169/1/3
f 173/1/3 172/1/3 171/1/3
f 174/1/3 172/1/3 173/1/3
f 178/1/3 176/1/3 175/1/3
f 179/1/3 176/1/3 178/1/3
f 180/1/3 176/1/3 179/1/3
f 185/1/3 176/1/3 180/1/3
f 186/3/3 182/3/3 181/3/3
f 187/3/3 182/3/3 186/3/3
f 192/1/3 184/1/3 183/1/3
f 192/1/3 185/1/3 184/1/3
f 193/2/3 177/2/3 176/2/3
f 193/1/3 185/1/3 192/1/3
f 193/1/3 176/1/3 185/1/3
f 194/2/3 177/2/3 193/2/3
f 195/3/3 189/3/3 188/3/3
f 196/3/3 189/3/3 195/3/3
f 197/1/3 191/1/3 190/1/3
f 198/1/3 191/1/3 197/1/3
f 201/3/3 200/3/3 199/3/3
f 202/3/3 200/3/3 201/3/3
f 205/3/3 204/3/3 203/3/3
f 206/3/3 204/3/3 205/3/3
f 209/4/3 208/4/3 207/4/3
f 210/4/3 208/4/3 209/4/3
f 214/3/3 212/3/3 211/3/3
f 214/3/3 213/3/3 212/3/3
f 215/3/3 213/3/3 214/3/3
f 216/3/3 213/3/3 215/3/3
f 220/3/3 218/3/3 217/3/3
f 220/3/3 219/3/3 218/3/3
f 221/3/3 219/3/3 220/3/3
f 222/3/3 219/3/3 221/3/3
f 225/3/3 224/3/3 223/3/3
f 226/3/3 224/3/3 225/3/3
f 230/2/3 229/2/3 228/2/3
f 231/2/3 230/2/3 228/2/3
f 232/1/3 228/1/3 227/1/3
f 233/2/3 231/2/3 228/2/3
f 233/1/3 228/1/3 232/1/3
f 234/2/3 231/2/3 233/2/3
f 236/2/4 237/2/4 238/2/4
f 236/2/4 238/2/4 241/2/4
f 239/3/4 240/3/4 242/3/4
f 242/3/4 240/3/4 243/3/4
f 235/1/4 236/1/4 245/1/4
f 236/2/4 241/2/4 246/2/4
f 245/1/4 236/1/4 246/1/4
f 246/2/4 241/2/4 247/2/4
f 243/3/4 244/3/4 249/3/4
f 249/3/4 244/3/4 250/3/4
f 248/3/4 249/3/4 251/3/4
f 251/3/4 249/3/4 252/3/4
f 255/3/4 256/3/4 257/3/4
f 257/3/4 256/3/4 258/3/4
f 253/1/4 254/1/4 260/1/4
f 260/1/4 254/1/4 261/1/4
f 258/3/4 259/3/4 263/3/4
f 263/3/4 259/3/4 264/3/4
f 262/3/4 263/3/4 265/3/4
f 265/3/4 263/3/4 266/3/4
f 267/4/4 268/4/4 269/4/4
f 269/4/4 268/4/4 270/4/4
f 271/3/4 272/3/4 275/3/4
f 275/3/4 272/3/4 276/3/4
f 273/3/4 274/3/4 277/3/4
f 277/3/4 274/3/4 278/3/4
f 279/1/4 280/1/4 281/1/4
f 281/1/4 280/1/4 282/1/4
f 283/3/4 284/3/4 288/3/4
f 288/3/4 284/3/4 289/3/4
f 285/1/4 286/1/4 290/1/4
f 286/2/4 287/2/4 291/2/4
f 290/1/4 286/1/4 291/1/4
f 291/2/4 287/2/4 292/2/4
f 293/1/4 294/1/4 295/1/4
f 295/1/4 294/1/4 296/1/4
f 296/1/4 294/1/4 298/1/4
f 297/1/4 298/1/4 299/1/4
f 298/1/4 294/1/4 300/1/4
f 299/1/4 298/1/4 300/1/4
f 301/2/4 302/2/4 303/2/4
f 303/2/4 302/2/4 304/2/4
f 309/3/5 306/3/5 305/3/5
f 310/3/5 308/3/5 307/3/5
f 311/3/5 309/3/5 305/3/5
f 311/3/5 310/3/5 309/3/5
f 312/3/5 310/3/5 311/3/5
f 313/3/5 308/3/5 310/3/5
f 313/3/5 310/3/5 312/3/5
f 314/3/5 308/3/5 313/3/5
f 315/3/5 313/3/5 312/3/5
f 316/3/5 313/3/5 315/3/5
f 321/3/5 318/3/5 317/3/5
f 322/3/5 320/3/5 319/3/5
f 323/3/5 321/3/5 317/3/5
f 323/3/5 322/3/5 321/3/5
f 324/3/5 322/3/5 323/3/5
f 325/3/5 320/3/5 322/3/5
f 325/3/5 322/3/5 324/3/5
f 326/3/5 320/3/5 325/3/5
f 327/3/5 325/3/5 324/3/5
f 328/3/5 325/3/5 327/3/5
f 331/3/5 330/3/5 329/3/5
f 332/3/5 330/3/5 331/3/5
f 335/1/5 334/1/5 333/1/5
f 336/1/5 334/1/5 335/1/5
f 337/1/5 334/1/5 336/1/5
f 338/1/5 334/1/5 337/1/5
f 340/1/5 337/1/5 336/1/5
f 341/1/5 337/1/5 340/1/5
f 343/1/5 340/1/5 339/1/5
f 343/1/5 342/1/5 341/1/5
f 343/1/5 341/1/5 340/1/5
f 344/1/5 342/1/5 343/1/5
f 345/1/5 342/1/5 344/1/5
f 346/1/5 342/1/5 345/1/5
f 347/2/5 345/2/5 344/2/5
f 348/2/5 345/2/5 347/2/5
f 353/1/5 350/1/5 349/1/5
f 354/1/5 350/1/5 353/1/5
f 355/1/5 352/1/5 351/1/5
f 356/1/5 352/1/5 355/1/5
f 359/6/5 358/6/5 357/6/5
f 360/6/5 358/6/5 359/6/5
f 363/4/5 362/4/5 361/4/5
f 364/4/5 362/4/5 363/4/5
f 365/3/6 366/3/6 369/3/6
f 367/3/6 368/3/6 370/3/6
f 365/3/6 369/3/6 371/3/6
f 371/3/6 369/3/6 372/3/6
f 370/3/6 368/3/6 373/3/6
f 373/3/6 368/3/6 374/3/6
f 372/3/6 373/3/6 375/3/6
f 375/3/6 373/3/6 376/3/6
f 377/3/6 378/3/6 381/3/6
f 379/3/6 380/3/6 382/3/6
f 377/3/6 381/3/6 383/3/6
f 383/3/6 381/3/6 384/3/6
f 382/3/6 380/3/6 385/3/6
f 385/3/6 380/3/6 386/3/6
f 384/3/6 385/3/6 387/3/6
f 387/3/6 385/3/6 388/3/6
f 389/3/6 390/3/6 391/3/6
f 391/3/6 390/3/6 392/3/6
f 393/1/6 394/1/6 397/1/6
f 397/1/6 394/1/6 398/1/6
f 395/1/6 396/1/6 399/1/6
f 399/1/6 396/1/6 400/1/6
f 401/2/6 402/2/6 403/2/6
f 403/2/6 402/2/6 404/2/6
f 405/1/6 406/1/6 409/1/6
f 409/1/6 406/1/6 410/1/6
f 407/1/6 408/1/6 411/1/6
f 411/1/6 408/1/6 412/1/6
f 413/1/6 414/1/6 415/1/6
f 415/1/6 414/1/6 416/1/6
f 417/1/6 418/1/6 419/1/6
f 419/1/6 418/1/6 420/1/6
f 421/6/6 422/6/6 423/6/6
f 423/6/6 422/6/6 424/6/6
f 425/2/6 426/2/6 427/2/6
f 427/2/6 426/2/6 428/2/6
f 425/2/6 427/2/6 429/2/6
f 429/2/6 427/2/6 430/2/6
f 428/2/6 426/2/6 431/2/6
f 431/2/6 426/2/6 432/2/6
f 425/2/6 429/2/6 433/2/6
f 432/2/6 426/2/6 436/2/6
f 434/2/6 435/2/6 437/2/6
f 435/2/6 436/2/6 437/2/6
f 425/2/6 433/2/6 437/2/6
f 433/2/6 434/2/6 437/2/6
f 436/2/6 426/2/6 438/2/6
f 437/2/6 436/2/6 438/2/6
f 439/4/6 440/4/6 441/4/6
f 441/4/6 440/4/6 442/4/6
