# MagicaVoxel @ Ephtracy

# material
mtllib Chicken_Run06.mtl
usemtl palette

# normals
vn -1 0 0
vn 1 0 0
vn 0 0 1
vn 0 0 -1
vn 0 -1 0
vn 0 1 0

# texcoords
vt 0.962891 0.5
vt 0.970703 0.5
vt 0.974609 0.5
vt 0.978516 0.5
vt 0.982422 0.5
vt 0.986328 0.5

# verts
v -3 9 4
v -3 9 2
v -3 11 4
v -3 11 2
v -2 8 4
v -2 8 2
v -2 9 4
v -2 9 2
v -1 4 6
v -1 4 -0
v -1 8 4
v -1 8 2
v -1 9 4
v -1 9 2
v -1 11 4
v -1 11 2
v -1 12 6
v -1 12 -0
v -1 13 6
v -1 13 -0
v 0 0 2
v 0 0 1
v 0 0 -0
v 0 0 -1
v 0 1 2
v 0 1 1
v 0 1 -0
v 0 1 -1
v 0 5 8
v 0 5 6
v 0 5 -0
v 0 5 -2
v 0 7 8
v 0 7 6
v 0 7 -0
v 0 7 -2
v 0 13 4
v 0 13 2
v 0 15 4
v 0 15 2
v 1 0 1
v 1 0 -0
v 1 1 1
v 1 1 -0
v 2 1 1
v 2 1 -0
v 2 2 1
v 2 2 -0
v 3 2 1
v 3 2 -0
v 3 3 1
v 3 3 -0
v 4 0 7
v 4 0 6
v 4 0 5
v 4 0 4
v 4 1 7
v 4 1 6
v 4 1 5
v 4 1 4
v 4 3 6
v 4 3 5
v 4 3 1
v 4 3 -0
v 4 4 6
v 4 4 5
v 4 4 1
v 4 4 -0
v 5 0 6
v 5 0 5
v 5 1 6
v 5 1 5
v 5 2 6
v 5 2 5
v 5 3 6
v 5 3 5
v 6 1 6
v 6 1 5
v 6 2 6
v 6 2 5
v 3 0 2
v 3 0 1
v 3 0 -0
v 3 0 -1
v 3 1 2
v 3 1 1
v 3 1 -0
v 3 1 -1
v 3 2 1
v 3 2 -0
v 3 13 4
v 3 13 2
v 3 15 4
v 3 15 2
v 4 0 1
v 4 0 -0
v 4 1 1
v 4 1 -0
v 4 2 1
v 4 2 -0
v 4 3 1
v 4 3 -0
v 4 5 8
v 4 5 6
v 4 5 -0
v 4 5 -2
v 4 7 8
v 4 7 6
v 4 7 -0
v 4 7 -2
v 4 8 6
v 4 8 -0
v 4 12 6
v 4 12 -0
v 4 13 6
v 4 13 -0
v 5 3 6
v 5 3 5
v 5 3 1
v 5 3 -0
v 5 4 6
v 5 4 5
v 5 4 1
v 5 4 -0
v 6 2 6
v 6 2 5
v 6 3 6
v 6 3 5
v 7 0 7
v 7 0 6
v 7 0 5
v 7 0 4
v 7 1 7
v 7 1 6
v 7 1 5
v 7 1 4
v 7 2 6
v 7 2 5
v 8 0 6
v 8 0 5
v 8 1 6
v 8 1 5
v 8 4 6
v 8 4 5
v 8 4 1
v 8 4 -0
v 8 7 5
v 8 7 1
v 8 8 6
v 8 8 -0
v 9 4 5
v 9 4 1
v 9 7 5
v 9 7 1
v 0 5 8
v 0 7 8
v 4 5 8
v 4 7 8
v 4 0 7
v 4 1 7
v 7 0 7
v 7 1 7
v -1 4 6
v -1 12 6
v -1 13 6
v 0 5 6
v 0 7 6
v 0 10 6
v 0 11 6
v 1 10 6
v 1 11 6
v 2 10 6
v 2 11 6
v 4 3 6
v 4 4 6
v 4 5 6
v 4 7 6
v 4 8 6
v 4 12 6
v 4 13 6
v 5 2 6
v 5 3 6
v 5 4 6
v 6 1 6
v 6 2 6
v 6 3 6
v 7 0 6
v 7 1 6
v 7 2 6
v 8 0 6
v 8 1 6
v 8 4 6
v 8 8 6
v 4 0 5
v 4 1 5
v 5 0 5
v 5 1 5
v 8 4 5
v 8 7 5
v 9 4 5
v 9 7 5
v -3 9 4
v -3 11 4
v -2 8 4
v -2 9 4
v -1 8 4
v -1 9 4
v -1 11 4
v 0 13 4
v 0 15 4
v 3 13 4
v 3 15 4
v 0 0 2
v 0 1 2
v 3 0 2
v 3 1 2
v 2 1 1
v 2 2 1
v 3 0 1
v 3 1 1
v 3 2 1
v 3 3 1
v 4 0 1
v 4 1 1
v 4 2 1
v 4 3 1
v 4 4 1
v 5 3 1
v 5 4 1
v 0 0 -0
v 0 1 -0
v 1 0 -0
v 1 1 -0
v 4 0 6
v 4 1 6
v 5 0 6
v 5 1 6
v 4 3 5
v 4 4 5
v 5 2 5
v 5 3 5
v 5 4 5
v 6 1 5
v 6 2 5
v 6 3 5
v 7 0 5
v 7 1 5
v 7 2 5
v 8 0 5
v 8 1 5
v 4 0 4
v 4 1 4
v 7 0 4
v 7 1 4
v -3 9 2
v -3 11 2
v -2 8 2
v -2 9 2
v -1 8 2
v -1 9 2
v -1 11 2
v 0 13 2
v 0 15 2
v 3 13 2
v 3 15 2
v 0 0 1
v 0 1 1
v 1 0 1
v 1 1 1
v 8 4 1
v 8 7 1
v 9 4 1
v 9 7 1
v -1 4 -0
v -1 12 -0
v -1 13 -0
v 0 5 -0
v 0 7 -0
v 0 10 -0
v 0 11 -0
v 1 10 -0
v 1 11 -0
v 2 1 -0
v 2 2 -0
v 2 10 -0
v 2 11 -0
v 3 0 -0
v 3 1 -0
v 3 2 -0
v 3 3 -0
v 4 0 -0
v 4 1 -0
v 4 2 -0
v 4 3 -0
v 4 4 -0
v 4 5 -0
v 4 7 -0
v 4 8 -0
v 4 12 -0
v 4 13 -0
v 5 3 -0
v 5 4 -0
v 8 4 -0
v 8 8 -0
v 0 0 -1
v 0 1 -1
v 3 0 -1
v 3 1 -1
v 0 5 -2
v 0 7 -2
v 4 5 -2
v 4 7 -2
v 4 0 7
v 7 0 7
v 4 0 6
v 5 0 6
v 7 0 6
v 8 0 6
v 4 0 5
v 5 0 5
v 7 0 5
v 8 0 5
v 4 0 4
v 7 0 4
v 0 0 2
v 3 0 2
v 0 0 1
v 1 0 1
v 3 0 1
v 4 0 1
v 0 0 -0
v 1 0 -0
v 3 0 -0
v 4 0 -0
v 0 0 -1
v 3 0 -1
v 5 2 6
v 6 2 6
v 5 2 5
v 6 2 5
v 3 2 1
v 4 2 1
v 3 2 -0
v 4 2 -0
v 4 3 6
v 5 3 6
v 4 3 5
v 5 3 5
v 4 3 1
v 5 3 1
v 4 3 -0
v 5 3 -0
v -1 4 6
v 4 4 6
v 5 4 6
v 8 4 6
v 4 4 5
v 5 4 5
v 8 4 5
v 9 4 5
v 4 4 1
v 5 4 1
v 8 4 1
v 9 4 1
v -1 4 -0
v 4 4 -0
v 5 4 -0
v 8 4 -0
v 0 5 8
v 4 5 8
v 0 5 6
v 4 5 6
v 0 5 -0
v 4 5 -0
v 0 5 -2
v 4 5 -2
v -2 8 4
v -1 8 4
v -2 8 2
v -1 8 2
v -3 9 4
v -2 9 4
v -3 9 2
v -2 9 2
v 4 1 7
v 7 1 7
v 4 1 6
v 5 1 6
v 6 1 6
v 7 1 6
v 8 1 6
v 4 1 5
v 5 1 5
v 6 1 5
v 7 1 5
v 8 1 5
v 4 1 4
v 7 1 4
v 0 1 2
v 3 1 2
v 0 1 1
v 1 1 1
v 2 1 1
v 3 1 1
v 4 1 1
v 0 1 -0
v 1 1 -0
v 2 1 -0
v 3 1 -0
v 4 1 -0
v 0 1 -1
v 3 1 -1
v 6 2 6
v 7 2 6
v 6 2 5
v 7 2 5
v 2 2 1
v 3 2 1
v 2 2 -0
v 3 2 -0
v 5 3 6
v 6 3 6
v 5 3 5
v 6 3 5
v 3 3 1
v 4 3 1
v 3 3 -0
v 4 3 -0
v 0 7 8
v 4 7 8
v 0 7 6
v 4 7 6
v 8 7 5
v 9 7 5
v 8 7 1
v 9 7 1
v 0 7 -0
v 4 7 -0
v 0 7 -2
v 4 7 -2
v 4 8 6
v 8 8 6
v 4 8 -0
v 8 8 -0
v -3 11 4
v -1 11 4
v -3 11 2
v -1 11 2
v -1 13 6
v 4 13 6
v 0 13 4
v 3 13 4
v 0 13 2
v 3 13 2
v -1 13 -0
v 4 13 -0
v 0 15 4
v 3 15 4
v 0 15 2
v 3 15 2

# faces
f 3/6/1 2/6/1 1/6/1
f 4/6/1 2/6/1 3/6/1
f 7/4/1 6/4/1 5/4/1
f 8/4/1 6/4/1 7/4/1
f 11/1/1 10/1/1 9/1/1
f 12/1/1 10/1/1 11/1/1
f 13/1/1 11/1/1 9/1/1
f 14/1/1 10/1/1 12/1/1
f 15/1/1 13/1/1 9/1/1
f 16/1/1 10/1/1 14/1/1
f 17/1/1 15/1/1 9/1/1
f 17/1/1 16/1/1 15/1/1
f 18/1/1 10/1/1 16/1/1
f 18/1/1 16/1/1 17/1/1
f 19/2/1 18/2/1 17/2/1
f 20/2/1 18/2/1 19/2/1
f 25/3/1 22/3/1 21/3/1
f 26/3/1 22/3/1 25/3/1
f 27/3/1 24/3/1 23/3/1
f 28/3/1 24/3/1 27/3/1
f 33/1/1 30/1/1 29/1/1
f 34/1/1 30/1/1 33/1/1
f 35/1/1 32/1/1 31/1/1
f 36/1/1 32/1/1 35/1/1
f 39/4/1 38/4/1 37/4/1
f 40/4/1 38/4/1 39/4/1
f 43/3/1 42/3/1 41/3/1
f 44/3/1 42/3/1 43/3/1
f 47/3/1 46/3/1 45/3/1
f 48/3/1 46/3/1 47/3/1
f 51/3/1 50/3/1 49/3/1
f 52/3/1 50/3/1 51/3/1
f 57/3/1 54/3/1 53/3/1
f 58/3/1 54/3/1 57/3/1
f 59/3/1 56/3/1 55/3/1
f 60/3/1 56/3/1 59/3/1
f 65/3/1 62/3/1 61/3/1
f 66/3/1 62/3/1 65/3/1
f 67/3/1 64/3/1 63/3/1
f 68/3/1 64/3/1 67/3/1
f 71/3/1 70/3/1 69/3/1
f 72/3/1 70/3/1 71/3/1
f 75/3/1 74/3/1 73/3/1
f 76/3/1 74/3/1 75/3/1
f 79/3/1 78/3/1 77/3/1
f 80/3/1 78/3/1 79/3/1
f 81/3/2 82/3/2 85/3/2
f 85/3/2 82/3/2 86/3/2
f 83/3/2 84/3/2 87/3/2
f 87/3/2 84/3/2 88/3/2
f 86/3/2 87/3/2 89/3/2
f 89/3/2 87/3/2 90/3/2
f 91/4/2 92/4/2 93/4/2
f 93/4/2 92/4/2 94/4/2
f 95/3/2 96/3/2 97/3/2
f 97/3/2 96/3/2 98/3/2
f 99/3/2 100/3/2 101/3/2
f 101/3/2 100/3/2 102/3/2
f 103/1/2 104/1/2 107/1/2
f 107/1/2 104/1/2 108/1/2
f 105/1/2 106/1/2 109/1/2
f 109/1/2 106/1/2 110/1/2
f 111/1/2 112/1/2 113/1/2
f 113/1/2 112/1/2 114/1/2
f 113/2/2 114/2/2 115/2/2
f 115/2/2 114/2/2 116/2/2
f 117/3/2 118/3/2 121/3/2
f 121/3/2 118/3/2 122/3/2
f 119/3/2 120/3/2 123/3/2
f 123/3/2 120/3/2 124/3/2
f 125/3/2 126/3/2 127/3/2
f 127/3/2 126/3/2 128/3/2
f 129/3/2 130/3/2 133/3/2
f 133/3/2 130/3/2 134/3/2
f 131/3/2 132/3/2 135/3/2
f 135/3/2 132/3/2 136/3/2
f 134/3/2 135/3/2 137/3/2
f 137/3/2 135/3/2 138/3/2
f 139/3/2 140/3/2 141/3/2
f 141/3/2 140/3/2 142/3/2
f 143/1/2 144/1/2 147/1/2
f 145/1/2 146/1/2 148/1/2
f 143/1/2 147/1/2 149/1/2
f 147/1/2 148/1/2 149/1/2
f 148/1/2 146/1/2 150/1/2
f 149/1/2 148/1/2 150/1/2
f 151/2/2 152/2/2 153/2/2
f 153/2/2 152/2/2 154/2/2
f 157/1/3 156/1/3 155/1/3
f 158/1/3 156/1/3 157/1/3
f 161/3/3 160/3/3 159/3/3
f 162/3/3 160/3/3 161/3/3
f 166/1/3 164/1/3 163/1/3
f 167/1/3 164/1/3 166/1/3
f 168/1/3 164/1/3 167/1/3
f 169/1/3 164/1/3 168/1/3
f 170/1/3 168/1/3 167/1/3
f 170/5/3 169/5/3 168/5/3
f 171/1/3 164/1/3 169/1/3
f 171/5/3 169/5/3 170/5/3
f 172/1/3 170/1/3 167/1/3
f 172/2/3 171/2/3 170/2/3
f 173/1/3 164/1/3 171/1/3
f 173/2/3 171/2/3 172/2/3
f 175/1/3 166/1/3 163/1/3
f 176/1/3 166/1/3 175/1/3
f 177/1/3 172/1/3 167/1/3
f 177/1/3 173/1/3 172/1/3
f 178/1/3 173/1/3 177/1/3
f 179/2/3 165/2/3 164/2/3
f 179/1/3 173/1/3 178/1/3
f 179/1/3 164/1/3 173/1/3
f 180/2/3 165/2/3 179/2/3
f 182/3/3 175/3/3 174/3/3
f 183/1/3 178/1/3 177/1/3
f 183/1/3 177/1/3 176/1/3
f 183/3/3 175/3/3 182/3/3
f 183/1/3 176/1/3 175/1/3
f 185/3/3 182/3/3 181/3/3
f 186/3/3 182/3/3 185/3/3
f 188/3/3 185/3/3 184/3/3
f 189/3/3 185/3/3 188/3/3
f 190/3/3 188/3/3 187/3/3
f 191/3/3 188/3/3 190/3/3
f 192/1/3 178/1/3 183/1/3
f 193/1/3 178/1/3 192/1/3
f 196/3/3 195/3/3 194/3/3
f 197/3/3 195/3/3 196/3/3
f 200/2/3 199/2/3 198/2/3
f 201/2/3 199/2/3 200/2/3
f 205/6/3 203/6/3 202/6/3
f 206/4/3 205/4/3 204/4/3
f 207/6/3 203/6/3 205/6/3
f 207/4/3 205/4/3 206/4/3
f 208/6/3 203/6/3 207/6/3
f 211/4/3 210/4/3 209/4/3
f 212/4/3 210/4/3 211/4/3
f 215/3/3 214/3/3 213/3/3
f 216/3/3 214/3/3 215/3/3
f 220/3/3 218/3/3 217/3/3
f 221/3/3 218/3/3 220/3/3
f 223/3/3 220/3/3 219/3/3
f 224/3/3 220/3/3 223/3/3
f 225/3/3 222/3/3 221/3/3
f 226/3/3 222/3/3 225/3/3
f 228/3/3 227/3/3 226/3/3
f 229/3/3 227/3/3 228/3/3
f 232/3/3 231/3/3 230/3/3
f 233/3/3 231/3/3 232/3/3
f 234/3/4 235/3/4 236/3/4
f 236/3/4 235/3/4 237/3/4
f 238/3/4 239/3/4 241/3/4
f 241/3/4 239/3/4 242/3/4
f 240/3/4 241/3/4 244/3/4
f 244/3/4 241/3/4 245/3/4
f 243/3/4 244/3/4 247/3/4
f 247/3/4 244/3/4 248/3/4
f 246/3/4 247/3/4 249/3/4
f 249/3/4 247/3/4 250/3/4
f 251/3/4 252/3/4 253/3/4
f 253/3/4 252/3/4 254/3/4
f 255/6/4 256/6/4 258/6/4
f 257/4/4 258/4/4 259/4/4
f 258/6/4 256/6/4 260/6/4
f 259/4/4 258/4/4 260/4/4
f 260/6/4 256/6/4 261/6/4
f 262/4/4 263/4/4 264/4/4
f 264/4/4 263/4/4 265/4/4
f 266/3/4 267/3/4 268/3/4
f 268/3/4 267/3/4 269/3/4
f 270/2/4 271/2/4 272/2/4
f 272/2/4 271/2/4 273/2/4
f 274/1/4 275/1/4 277/1/4
f 277/1/4 275/1/4 278/1/4
f 278/1/4 275/1/4 279/1/4
f 279/1/4 275/1/4 280/1/4
f 278/1/4 279/1/4 281/1/4
f 279/5/4 280/5/4 281/5/4
f 280/1/4 275/1/4 282/1/4
f 281/5/4 280/5/4 282/5/4
f 278/1/4 281/1/4 285/1/4
f 281/2/4 282/2/4 285/2/4
f 282/1/4 275/1/4 286/1/4
f 285/2/4 282/2/4 286/2/4
f 283/3/4 284/3/4 288/3/4
f 288/3/4 284/3/4 289/3/4
f 287/3/4 288/3/4 291/3/4
f 291/3/4 288/3/4 292/3/4
f 289/3/4 290/3/4 293/3/4
f 293/3/4 290/3/4 294/3/4
f 274/1/4 277/1/4 295/1/4
f 295/1/4 277/1/4 296/1/4
f 278/1/4 285/1/4 297/1/4
f 285/1/4 286/1/4 297/1/4
f 297/1/4 286/1/4 298/1/4
f 275/2/4 276/2/4 299/2/4
f 298/1/4 286/1/4 299/1/4
f 286/1/4 275/1/4 299/1/4
f 299/2/4 276/2/4 300/2/4
f 294/3/4 295/3/4 301/3/4
f 297/1/4 298/1/4 302/1/4
f 301/3/4 295/3/4 302/3/4
f 296/1/4 297/1/4 302/1/4
f 295/1/4 296/1/4 302/1/4
f 302/1/4 298/1/4 303/1/4
f 303/1/4 298/1/4 304/1/4
f 305/3/4 306/3/4 307/3/4
f 307/3/4 306/3/4 308/3/4
f 309/1/4 310/1/4 311/1/4
f 311/1/4 310/1/4 312/1/4
f 315/3/5 314/3/5 313/3/5
f 316/3/5 314/3/5 315/3/5
f 317/3/5 314/3/5 316/3/5
f 320/3/5 318/3/5 317/3/5
f 320/3/5 317/3/5 316/3/5
f 321/3/5 318/3/5 320/3/5
f 322/3/5 318/3/5 321/3/5
f 323/3/5 320/3/5 319/3/5
f 323/3/5 321/3/5 320/3/5
f 324/3/5 321/3/5 323/3/5
f 327/3/5 326/3/5 325/3/5
f 328/3/5 326/3/5 327/3/5
f 329/3/5 326/3/5 328/3/5
f 332/3/5 330/3/5 329/3/5
f 332/3/5 329/3/5 328/3/5
f 333/3/5 330/3/5 332/3/5
f 334/3/5 330/3/5 333/3/5
f 335/3/5 332/3/5 331/3/5
f 335/3/5 333/3/5 332/3/5
f 336/3/5 333/3/5 335/3/5
f 339/3/5 338/3/5 337/3/5
f 340/3/5 338/3/5 339/3/5
f 343/3/5 342/3/5 341/3/5
f 344/3/5 342/3/5 343/3/5
f 347/3/5 346/3/5 345/3/5
f 348/3/5 346/3/5 347/3/5
f 351/3/5 350/3/5 349/3/5
f 352/3/5 350/3/5 351/3/5
f 357/1/5 354/1/5 353/1/5
f 358/1/5 356/1/5 355/1/5
f 359/1/5 356/1/5 358/1/5
f 361/1/5 357/1/5 353/1/5
f 361/1/5 358/1/5 357/1/5
f 361/1/5 359/1/5 358/1/5
f 362/1/5 359/1/5 361/1/5
f 363/2/5 360/2/5 359/2/5
f 363/1/5 359/1/5 362/1/5
f 364/2/5 360/2/5 363/2/5
f 365/1/5 361/1/5 353/1/5
f 366/1/5 361/1/5 365/1/5
f 367/1/5 363/1/5 362/1/5
f 368/1/5 363/1/5 367/1/5
f 371/1/5 370/1/5 369/1/5
f 372/1/5 370/1/5 371/1/5
f 375/1/5 374/1/5 373/1/5
f 376/1/5 374/1/5 375/1/5
f 379/4/5 378/4/5 377/4/5
f 380/4/5 378/4/5 379/4/5
f 383/6/5 382/6/5 381/6/5
f 384/6/5 382/6/5 383/6/5
f 385/3/6 386/3/6 387/3/6
f 387/3/6 386/3/6 388/3/6
f 388/3/6 386/3/6 389/3/6
f 389/3/6 386/3/6 390/3/6
f 388/3/6 389/3/6 393/3/6
f 393/3/6 389/3/6 394/3/6
f 390/3/6 391/3/6 395/3/6
f 395/3/6 391/3/6 396/3/6
f 393/3/6 394/3/6 397/3/6
f 392/3/6 393/3/6 397/3/6
f 394/3/6 395/3/6 397/3/6
f 397/3/6 395/3/6 398/3/6
f 399/3/6 400/3/6 401/3/6
f 401/3/6 400/3/6 402/3/6
f 402/3/6 400/3/6 403/3/6
f 403/3/6 400/3/6 404/3/6
f 402/3/6 403/3/6 407/3/6
f 407/3/6 403/3/6 408/3/6
f 404/3/6 405/3/6 409/3/6
f 409/3/6 405/3/6 410/3/6
f 407/3/6 408/3/6 411/3/6
f 406/3/6 407/3/6 411/3/6
f 408/3/6 409/3/6 411/3/6
f 411/3/6 409/3/6 412/3/6
f 413/3/6 414/3/6 415/3/6
f 415/3/6 414/3/6 416/3/6
f 417/3/6 418/3/6 419/3/6
f 419/3/6 418/3/6 420/3/6
f 421/3/6 422/3/6 423/3/6
f 423/3/6 422/3/6 424/3/6
f 425/3/6 426/3/6 427/3/6
f 427/3/6 426/3/6 428/3/6
f 429/1/6 430/1/6 431/1/6
f 431/1/6 430/1/6 432/1/6
f 433/2/6 434/2/6 435/2/6
f 435/2/6 434/2/6 436/2/6
f 437/1/6 438/1/6 439/1/6
f 439/1/6 438/1/6 440/1/6
f 441/1/6 442/1/6 443/1/6
f 443/1/6 442/1/6 444/1/6
f 445/6/6 446/6/6 447/6/6
f 447/6/6 446/6/6 448/6/6
f 449/2/6 450/2/6 451/2/6
f 451/2/6 450/2/6 452/2/6
f 449/2/6 451/2/6 453/2/6
f 452/2/6 450/2/6 454/2/6
f 449/2/6 453/2/6 455/2/6
f 453/2/6 454/2/6 455/2/6
f 454/2/6 450/2/6 456/2/6
f 455/2/6 454/2/6 456/2/6
f 457/4/6 458/4/6 459/4/6
f 459/4/6 458/4/6 460/4/6
