# MagicaVoxel @ Ephtracy

# material
mtllib ChickenRun05.mtl
usemtl palette

# normals
vn -1 0 0
vn 1 0 0
vn 0 0 1
vn 0 0 -1
vn 0 -1 0
vn 0 1 0

# texcoords
vt 0.962891 0.5
vt 0.970703 0.5
vt 0.974609 0.5
vt 0.978516 0.5
vt 0.982422 0.5
vt 0.986328 0.5

# verts
v -1 9 4
v -1 9 2
v -1 11 4
v -1 11 2
v 0 4 6
v 0 4 -0
v 0 8 6
v 0 8 4
v 0 8 2
v 0 8 -0
v 0 9 4
v 0 9 2
v 1 1 2
v 1 1 1
v 1 1 -0
v 1 1 -1
v 1 2 2
v 1 2 1
v 1 2 -0
v 1 2 -1
v 1 5 8
v 1 5 6
v 1 5 -0
v 1 5 -2
v 1 7 8
v 1 7 6
v 1 7 -0
v 1 7 -2
v 1 8 6
v 1 8 4
v 1 8 2
v 1 8 -0
v 1 9 4
v 1 9 2
v 1 11 4
v 1 11 2
v 1 12 6
v 1 12 -0
v 1 13 6
v 1 13 -0
v 2 1 1
v 2 1 -0
v 2 2 1
v 2 2 -0
v 2 13 4
v 2 13 2
v 2 15 4
v 2 15 2
v 3 0 7
v 3 0 6
v 3 0 5
v 3 0 4
v 3 1 7
v 3 1 6
v 3 1 5
v 3 1 4
v 3 2 1
v 3 2 -0
v 3 3 1
v 3 3 -0
v 4 0 6
v 4 0 5
v 4 1 6
v 4 1 5
v 4 2 6
v 4 2 5
v 4 3 1
v 4 3 -0
v 4 4 6
v 4 4 5
v 4 4 1
v 4 4 -0
v 5 1 6
v 5 1 5
v 5 2 6
v 5 2 5
v 4 1 2
v 4 1 1
v 4 1 -0
v 4 1 -1
v 4 2 2
v 4 2 1
v 4 2 -0
v 4 2 -1
v 4 3 1
v 4 3 -0
v 5 1 1
v 5 1 -0
v 5 2 6
v 5 2 5
v 5 2 1
v 5 2 -0
v 5 3 1
v 5 3 -0
v 5 4 6
v 5 4 5
v 5 4 1
v 5 4 -0
v 5 5 8
v 5 5 6
v 5 5 -0
v 5 5 -2
v 5 7 8
v 5 7 6
v 5 7 -0
v 5 7 -2
v 5 13 4
v 5 13 2
v 5 15 4
v 5 15 2
v 6 0 7
v 6 0 6
v 6 0 5
v 6 0 4
v 6 1 7
v 6 1 6
v 6 1 5
v 6 1 4
v 6 2 6
v 6 2 5
v 6 8 6
v 6 8 -0
v 6 12 6
v 6 12 -0
v 6 13 6
v 6 13 -0
v 7 0 6
v 7 0 5
v 7 1 6
v 7 1 5
v 9 4 6
v 9 4 5
v 9 4 1
v 9 4 -0
v 9 7 5
v 9 7 1
v 9 8 6
v 9 8 -0
v 10 4 5
v 10 4 1
v 10 7 5
v 10 7 1
v 1 5 8
v 1 7 8
v 5 5 8
v 5 7 8
v 3 0 7
v 3 1 7
v 6 0 7
v 6 1 7
v 0 4 6
v 0 8 6
v 1 5 6
v 1 7 6
v 1 8 6
v 1 12 6
v 1 13 6
v 2 10 6
v 2 11 6
v 3 10 6
v 3 11 6
v 4 2 6
v 4 4 6
v 4 10 6
v 4 11 6
v 5 1 6
v 5 2 6
v 5 4 6
v 5 5 6
v 5 7 6
v 6 0 6
v 6 1 6
v 6 2 6
v 6 8 6
v 6 12 6
v 6 13 6
v 7 0 6
v 7 1 6
v 9 4 6
v 9 8 6
v 3 0 5
v 3 1 5
v 4 0 5
v 4 1 5
v 9 4 5
v 9 7 5
v 10 4 5
v 10 7 5
v -1 9 4
v -1 11 4
v 0 8 4
v 0 9 4
v 1 8 4
v 1 9 4
v 1 11 4
v 2 13 4
v 2 15 4
v 5 13 4
v 5 15 4
v 1 1 2
v 1 2 2
v 4 1 2
v 4 2 2
v 3 2 1
v 3 3 1
v 4 1 1
v 4 2 1
v 4 3 1
v 4 4 1
v 5 1 1
v 5 2 1
v 5 3 1
v 5 4 1
v 1 1 -0
v 1 2 -0
v 2 1 -0
v 2 2 -0
v 3 0 6
v 3 1 6
v 4 0 6
v 4 1 6
v 4 2 5
v 4 4 5
v 5 1 5
v 5 2 5
v 5 4 5
v 6 0 5
v 6 1 5
v 6 2 5
v 7 0 5
v 7 1 5
v 3 0 4
v 3 1 4
v 6 0 4
v 6 1 4
v -1 9 2
v -1 11 2
v 0 8 2
v 0 9 2
v 1 8 2
v 1 9 2
v 1 11 2
v 2 13 2
v 2 15 2
v 5 13 2
v 5 15 2
v 1 1 1
v 1 2 1
v 2 1 1
v 2 2 1
v 9 4 1
v 9 7 1
v 10 4 1
v 10 7 1
v 0 4 -0
v 0 8 -0
v 1 5 -0
v 1 7 -0
v 1 8 -0
v 1 12 -0
v 1 13 -0
v 2 10 -0
v 2 11 -0
v 3 2 -0
v 3 3 -0
v 3 10 -0
v 3 11 -0
v 4 1 -0
v 4 2 -0
v 4 3 -0
v 4 4 -0
v 4 10 -0
v 4 11 -0
v 5 1 -0
v 5 2 -0
v 5 3 -0
v 5 4 -0
v 5 5 -0
v 5 7 -0
v 6 8 -0
v 6 12 -0
v 6 13 -0
v 9 4 -0
v 9 8 -0
v 1 1 -1
v 1 2 -1
v 4 1 -1
v 4 2 -1
v 1 5 -2
v 1 7 -2
v 5 5 -2
v 5 7 -2
v 3 0 7
v 6 0 7
v 3 0 6
v 4 0 6
v 6 0 6
v 7 0 6
v 3 0 5
v 4 0 5
v 6 0 5
v 7 0 5
v 3 0 4
v 6 0 4
v 1 1 2
v 4 1 2
v 1 1 1
v 2 1 1
v 4 1 1
v 5 1 1
v 1 1 -0
v 2 1 -0
v 4 1 -0
v 5 1 -0
v 1 1 -1
v 4 1 -1
v 4 2 6
v 5 2 6
v 4 2 5
v 5 2 5
v 4 3 1
v 5 3 1
v 4 3 -0
v 5 3 -0
v 0 4 6
v 4 4 6
v 5 4 6
v 9 4 6
v 4 4 5
v 5 4 5
v 9 4 5
v 10 4 5
v 4 4 1
v 5 4 1
v 9 4 1
v 10 4 1
v 0 4 -0
v 4 4 -0
v 5 4 -0
v 9 4 -0
v 1 5 8
v 5 5 8
v 1 5 6
v 5 5 6
v 1 5 -0
v 5 5 -0
v 1 5 -2
v 5 5 -2
v -1 9 4
v 0 9 4
v -1 9 2
v 0 9 2
v 3 1 7
v 6 1 7
v 3 1 6
v 4 1 6
v 5 1 6
v 6 1 6
v 7 1 6
v 3 1 5
v 4 1 5
v 5 1 5
v 6 1 5
v 7 1 5
v 3 1 4
v 6 1 4
v 5 2 6
v 6 2 6
v 5 2 5
v 6 2 5
v 1 2 2
v 4 2 2
v 1 2 1
v 2 2 1
v 3 2 1
v 4 2 1
v 5 2 1
v 1 2 -0
v 2 2 -0
v 3 2 -0
v 4 2 -0
v 5 2 -0
v 1 2 -1
v 4 2 -1
v 3 3 1
v 4 3 1
v 3 3 -0
v 4 3 -0
v 1 7 8
v 5 7 8
v 1 7 6
v 5 7 6
v 9 7 5
v 10 7 5
v 9 7 1
v 10 7 1
v 1 7 -0
v 5 7 -0
v 1 7 -2
v 5 7 -2
v 0 8 6
v 1 8 6
v 6 8 6
v 9 8 6
v 0 8 4
v 1 8 4
v 0 8 2
v 1 8 2
v 0 8 -0
v 1 8 -0
v 6 8 -0
v 9 8 -0
v -1 11 4
v 1 11 4
v -1 11 2
v 1 11 2
v 1 13 6
v 6 13 6
v 2 13 4
v 5 13 4
v 2 13 2
v 5 13 2
v 1 13 -0
v 6 13 -0
v 2 15 4
v 5 15 4
v 2 15 2
v 5 15 2

# faces
f 3/6/1 2/6/1 1/6/1
f 4/6/1 2/6/1 3/6/1
f 7/1/1 6/1/1 5/1/1
f 8/1/1 6/1/1 7/1/1
f 9/1/1 6/1/1 8/1/1
f 10/1/1 6/1/1 9/1/1
f 11/4/1 9/4/1 8/4/1
f 12/4/1 9/4/1 11/4/1
f 17/3/1 14/3/1 13/3/1
f 18/3/1 14/3/1 17/3/1
f 19/3/1 16/3/1 15/3/1
f 20/3/1 16/3/1 19/3/1
f 25/1/1 22/1/1 21/1/1
f 26/1/1 22/1/1 25/1/1
f 27/1/1 24/1/1 23/1/1
f 28/1/1 24/1/1 27/1/1
f 33/1/1 30/1/1 29/1/1
f 34/1/1 32/1/1 31/1/1
f 35/1/1 33/1/1 29/1/1
f 36/1/1 32/1/1 34/1/1
f 37/1/1 35/1/1 29/1/1
f 37/1/1 36/1/1 35/1/1
f 38/1/1 32/1/1 36/1/1
f 38/1/1 36/1/1 37/1/1
f 39/2/1 38/2/1 37/2/1
f 40/2/1 38/2/1 39/2/1
f 43/3/1 42/3/1 41/3/1
f 44/3/1 42/3/1 43/3/1
f 47/4/1 46/4/1 45/4/1
f 48/4/1 46/4/1 47/4/1
f 53/3/1 50/3/1 49/3/1
f 54/3/1 50/3/1 53/3/1
f 55/3/1 52/3/1 51/3/1
f 56/3/1 52/3/1 55/3/1
f 59/3/1 58/3/1 57/3/1
f 60/3/1 58/3/1 59/3/1
f 63/3/1 62/3/1 61/3/1
f 64/3/1 62/3/1 63/3/1
f 69/3/1 66/3/1 65/3/1
f 70/3/1 66/3/1 69/3/1
f 71/3/1 68/3/1 67/3/1
f 72/3/1 68/3/1 71/3/1
f 75/3/1 74/3/1 73/3/1
f 76/3/1 74/3/1 75/3/1
f 77/3/2 78/3/2 81/3/2
f 81/3/2 78/3/2 82/3/2
f 79/3/2 80/3/2 83/3/2
f 83/3/2 80/3/2 84/3/2
f 82/3/2 83/3/2 85/3/2
f 85/3/2 83/3/2 86/3/2
f 87/3/2 88/3/2 91/3/2
f 91/3/2 88/3/2 92/3/2
f 89/3/2 90/3/2 95/3/2
f 95/3/2 90/3/2 96/3/2
f 93/3/2 94/3/2 97/3/2
f 97/3/2 94/3/2 98/3/2
f 99/1/2 100/1/2 103/1/2
f 103/1/2 100/1/2 104/1/2
f 101/1/2 102/1/2 105/1/2
f 105/1/2 102/1/2 106/1/2
f 107/4/2 108/4/2 109/4/2
f 109/4/2 108/4/2 110/4/2
f 111/3/2 112/3/2 115/3/2
f 115/3/2 112/3/2 116/3/2
f 113/3/2 114/3/2 117/3/2
f 117/3/2 114/3/2 118/3/2
f 116/3/2 117/3/2 119/3/2
f 119/3/2 117/3/2 120/3/2
f 121/1/2 122/1/2 123/1/2
f 123/1/2 122/1/2 124/1/2
f 123/2/2 124/2/2 125/2/2
f 125/2/2 124/2/2 126/2/2
f 127/3/2 128/3/2 129/3/2
f 129/3/2 128/3/2 130/3/2
f 131/1/2 132/1/2 135/1/2
f 133/1/2 134/1/2 136/1/2
f 131/1/2 135/1/2 137/1/2
f 135/1/2 136/1/2 137/1/2
f 136/1/2 134/1/2 138/1/2
f 137/1/2 136/1/2 138/1/2
f 139/2/2 140/2/2 141/2/2
f 141/2/2 140/2/2 142/2/2
f 145/1/3 144/1/3 143/1/3
f 146/1/3 144/1/3 145/1/3
f 149/3/3 148/3/3 147/3/3
f 150/3/3 148/3/3 149/3/3
f 153/1/3 152/1/3 151/1/3
f 154/1/3 152/1/3 153/1/3
f 155/1/3 152/1/3 154/1/3
f 158/1/3 155/1/3 154/1/3
f 158/1/3 156/1/3 155/1/3
f 159/1/3 156/1/3 158/1/3
f 160/1/3 158/1/3 154/1/3
f 160/5/3 159/5/3 158/5/3
f 161/1/3 156/1/3 159/1/3
f 161/5/3 159/5/3 160/5/3
f 163/1/3 153/1/3 151/1/3
f 164/1/3 160/1/3 154/1/3
f 164/2/3 161/2/3 160/2/3
f 165/1/3 156/1/3 161/1/3
f 165/2/3 161/2/3 164/2/3
f 167/3/3 163/3/3 162/3/3
f 168/1/3 153/1/3 163/1/3
f 168/3/3 163/3/3 167/3/3
f 169/1/3 153/1/3 168/1/3
f 170/1/3 164/1/3 154/1/3
f 170/1/3 165/1/3 164/1/3
f 172/3/3 167/3/3 166/3/3
f 173/3/3 167/3/3 172/3/3
f 174/1/3 169/1/3 168/1/3
f 174/1/3 165/1/3 170/1/3
f 174/1/3 170/1/3 169/1/3
f 175/2/3 157/2/3 156/2/3
f 175/1/3 165/1/3 174/1/3
f 175/1/3 156/1/3 165/1/3
f 176/2/3 157/2/3 175/2/3
f 177/3/3 172/3/3 171/3/3
f 178/3/3 172/3/3 177/3/3
f 179/1/3 174/1/3 168/1/3
f 180/1/3 174/1/3 179/1/3
f 183/3/3 182/3/3 181/3/3
f 184/3/3 182/3/3 183/3/3
f 187/2/3 186/2/3 185/2/3
f 188/2/3 186/2/3 187/2/3
f 192/6/3 190/6/3 189/6/3
f 193/4/3 192/4/3 191/4/3
f 194/6/3 190/6/3 192/6/3
f 194/4/3 192/4/3 193/4/3
f 195/6/3 190/6/3 194/6/3
f 198/4/3 197/4/3 196/4/3
f 199/4/3 197/4/3 198/4/3
f 202/3/3 201/3/3 200/3/3
f 203/3/3 201/3/3 202/3/3
f 207/3/3 205/3/3 204/3/3
f 208/3/3 205/3/3 207/3/3
f 210/3/3 207/3/3 206/3/3
f 211/3/3 207/3/3 210/3/3
f 212/3/3 209/3/3 208/3/3
f 213/3/3 209/3/3 212/3/3
f 216/3/3 215/3/3 214/3/3
f 217/3/3 215/3/3 216/3/3
f 218/3/4 219/3/4 220/3/4
f 220/3/4 219/3/4 221/3/4
f 222/3/4 223/3/4 225/3/4
f 225/3/4 223/3/4 226/3/4
f 224/3/4 225/3/4 228/3/4
f 228/3/4 225/3/4 229/3/4
f 227/3/4 228/3/4 230/3/4
f 230/3/4 228/3/4 231/3/4
f 232/3/4 233/3/4 234/3/4
f 234/3/4 233/3/4 235/3/4
f 236/6/4 237/6/4 239/6/4
f 238/4/4 239/4/4 240/4/4
f 239/6/4 237/6/4 241/6/4
f 240/4/4 239/4/4 241/4/4
f 241/6/4 237/6/4 242/6/4
f 243/4/4 244/4/4 245/4/4
f 245/4/4 244/4/4 246/4/4
f 247/3/4 248/3/4 249/3/4
f 249/3/4 248/3/4 250/3/4
f 251/2/4 252/2/4 253/2/4
f 253/2/4 252/2/4 254/2/4
f 255/1/4 256/1/4 257/1/4
f 257/1/4 256/1/4 258/1/4
f 258/1/4 256/1/4 259/1/4
f 258/1/4 259/1/4 262/1/4
f 259/1/4 260/1/4 262/1/4
f 262/1/4 260/1/4 263/1/4
f 258/1/4 262/1/4 266/1/4
f 262/5/4 263/5/4 266/5/4
f 263/1/4 260/1/4 267/1/4
f 266/5/4 263/5/4 267/5/4
f 264/3/4 265/3/4 269/3/4
f 269/3/4 265/3/4 270/3/4
f 255/1/4 257/1/4 271/1/4
f 258/1/4 266/1/4 272/1/4
f 266/2/4 267/2/4 272/2/4
f 267/1/4 260/1/4 273/1/4
f 272/2/4 267/2/4 273/2/4
f 268/3/4 269/3/4 274/3/4
f 274/3/4 269/3/4 275/3/4
f 270/3/4 271/3/4 276/3/4
f 271/1/4 257/1/4 277/1/4
f 276/3/4 271/3/4 277/3/4
f 277/1/4 257/1/4 278/1/4
f 258/1/4 272/1/4 279/1/4
f 272/1/4 273/1/4 279/1/4
f 277/1/4 278/1/4 280/1/4
f 278/1/4 279/1/4 280/1/4
f 279/1/4 273/1/4 280/1/4
f 273/1/4 260/1/4 281/1/4
f 280/1/4 273/1/4 281/1/4
f 260/2/4 261/2/4 281/2/4
f 281/2/4 261/2/4 282/2/4
f 277/1/4 280/1/4 283/1/4
f 283/1/4 280/1/4 284/1/4
f 285/3/4 286/3/4 287/3/4
f 287/3/4 286/3/4 288/3/4
f 289/1/4 290/1/4 291/1/4
f 291/1/4 290/1/4 292/1/4
f 295/3/5 294/3/5 293/3/5
f 296/3/5 294/3/5 295/3/5
f 297/3/5 294/3/5 296/3/5
f 300/3/5 298/3/5 297/3/5
f 300/3/5 297/3/5 296/3/5
f 301/3/5 298/3/5 300/3/5
f 302/3/5 298/3/5 301/3/5
f 303/3/5 300/3/5 299/3/5
f 303/3/5 301/3/5 300/3/5
f 304/3/5 301/3/5 303/3/5
f 307/3/5 306/3/5 305/3/5
f 308/3/5 306/3/5 307/3/5
f 309/3/5 306/3/5 308/3/5
f 312/3/5 310/3/5 309/3/5
f 312/3/5 309/3/5 308/3/5
f 313/3/5 310/3/5 312/3/5
f 314/3/5 310/3/5 313/3/5
f 315/3/5 312/3/5 311/3/5
f 315/3/5 313/3/5 312/3/5
f 316/3/5 313/3/5 315/3/5
f 319/3/5 318/3/5 317/3/5
f 320/3/5 318/3/5 319/3/5
f 323/3/5 322/3/5 321/3/5
f 324/3/5 322/3/5 323/3/5
f 329/1/5 326/1/5 325/1/5
f 330/1/5 328/1/5 327/1/5
f 331/1/5 328/1/5 330/1/5
f 333/1/5 329/1/5 325/1/5
f 333/1/5 330/1/5 329/1/5
f 333/1/5 331/1/5 330/1/5
f 334/1/5 331/1/5 333/1/5
f 335/2/5 332/2/5 331/2/5
f 335/1/5 331/1/5 334/1/5
f 336/2/5 332/2/5 335/2/5
f 337/1/5 333/1/5 325/1/5
f 338/1/5 333/1/5 337/1/5
f 339/1/5 335/1/5 334/1/5
f 340/1/5 335/1/5 339/1/5
f 343/1/5 342/1/5 341/1/5
f 344/1/5 342/1/5 343/1/5
f 347/1/5 346/1/5 345/1/5
f 348/1/5 346/1/5 347/1/5
f 351/6/5 350/6/5 349/6/5
f 352/6/5 350/6/5 351/6/5
f 353/3/6 354/3/6 355/3/6
f 355/3/6 354/3/6 356/3/6
f 356/3/6 354/3/6 357/3/6
f 357/3/6 354/3/6 358/3/6
f 356/3/6 357/3/6 361/3/6
f 361/3/6 357/3/6 362/3/6
f 358/3/6 359/3/6 363/3/6
f 363/3/6 359/3/6 364/3/6
f 361/3/6 362/3/6 365/3/6
f 360/3/6 361/3/6 365/3/6
f 362/3/6 363/3/6 365/3/6
f 365/3/6 363/3/6 366/3/6
f 367/3/6 368/3/6 369/3/6
f 369/3/6 368/3/6 370/3/6
f 371/3/6 372/3/6 373/3/6
f 373/3/6 372/3/6 374/3/6
f 374/3/6 372/3/6 375/3/6
f 375/3/6 372/3/6 376/3/6
f 374/3/6 375/3/6 379/3/6
f 379/3/6 375/3/6 380/3/6
f 376/3/6 377/3/6 381/3/6
f 381/3/6 377/3/6 382/3/6
f 379/3/6 380/3/6 383/3/6
f 378/3/6 379/3/6 383/3/6
f 380/3/6 381/3/6 383/3/6
f 383/3/6 381/3/6 384/3/6
f 385/3/6 386/3/6 387/3/6
f 387/3/6 386/3/6 388/3/6
f 389/1/6 390/1/6 391/1/6
f 391/1/6 390/1/6 392/1/6
f 393/2/6 394/2/6 395/2/6
f 395/2/6 394/2/6 396/2/6
f 397/1/6 398/1/6 399/1/6
f 399/1/6 398/1/6 400/1/6
f 401/1/6 402/1/6 405/1/6
f 405/1/6 402/1/6 406/1/6
f 407/1/6 408/1/6 409/1/6
f 409/1/6 408/1/6 410/1/6
f 403/1/6 404/1/6 411/1/6
f 411/1/6 404/1/6 412/1/6
f 413/6/6 414/6/6 415/6/6
f 415/6/6 414/6/6 416/6/6
f 417/2/6 418/2/6 419/2/6
f 419/2/6 418/2/6 420/2/6
f 417/2/6 419/2/6 421/2/6
f 420/2/6 418/2/6 422/2/6
f 417/2/6 421/2/6 423/2/6
f 421/2/6 422/2/6 423/2/6
f 422/2/6 418/2/6 424/2/6
f 423/2/6 422/2/6 424/2/6
f 425/4/6 426/4/6 427/4/6
f 427/4/6 426/4/6 428/4/6
