# MagicaVoxel @ Ephtracy

# material
mtllib Chicken_Run04.mtl
usemtl palette

# normals
vn -1 0 0
vn 1 0 0
vn 0 0 1
vn 0 0 -1
vn 0 -1 0
vn 0 1 0

# texcoords
vt 0.962891 0.5
vt 0.970703 0.5
vt 0.974609 0.5
vt 0.978516 0.5
vt 0.982422 0.5
vt 0.986328 0.5

# verts
v -3 9 4
v -3 9 2
v -3 11 4
v -3 11 2
v -2 8 4
v -2 8 2
v -2 9 4
v -2 9 2
v -1 4 6
v -1 4 -0
v -1 8 4
v -1 8 2
v -1 9 4
v -1 9 2
v -1 11 4
v -1 11 2
v -1 12 6
v -1 12 -0
v -1 13 6
v -1 13 -0
v 0 5 8
v 0 5 6
v 0 5 -0
v 0 5 -2
v 0 7 8
v 0 7 6
v 0 7 -0
v 0 7 -2
v 0 13 4
v 0 13 2
v 0 15 4
v 0 15 2
v 2 0 7
v 2 0 6
v 2 0 5
v 2 0 4
v 2 1 7
v 2 1 6
v 2 1 5
v 2 1 4
v 3 0 6
v 3 0 5
v 3 1 6
v 3 1 5
v 3 1 2
v 3 1 1
v 3 1 -0
v 3 1 -1
v 3 2 2
v 3 2 1
v 3 2 -0
v 3 2 -1
v 4 1 6
v 4 1 5
v 4 1 1
v 4 1 -0
v 4 2 1
v 4 2 -0
v 4 3 1
v 4 3 -0
v 4 4 6
v 4 4 5
v 4 4 1
v 4 4 -0
v 5 2 1
v 5 2 -0
v 5 3 1
v 5 3 -0
v 3 13 4
v 3 13 2
v 3 15 4
v 3 15 2
v 4 5 8
v 4 5 6
v 4 5 -0
v 4 5 -2
v 4 7 8
v 4 7 6
v 4 7 -0
v 4 7 -2
v 4 8 6
v 4 8 -0
v 4 12 6
v 4 12 -0
v 4 13 6
v 4 13 -0
v 5 0 7
v 5 0 6
v 5 0 5
v 5 0 4
v 5 1 7
v 5 1 6
v 5 1 5
v 5 1 4
v 5 3 1
v 5 3 -0
v 5 4 6
v 5 4 5
v 5 4 1
v 5 4 -0
v 6 0 6
v 6 0 5
v 6 1 6
v 6 1 5
v 6 1 2
v 6 1 1
v 6 1 -0
v 6 1 -1
v 6 2 2
v 6 2 1
v 6 2 -0
v 6 2 -1
v 6 3 1
v 6 3 -0
v 7 1 1
v 7 1 -0
v 7 2 1
v 7 2 -0
v 8 4 6
v 8 4 5
v 8 4 1
v 8 4 -0
v 8 7 5
v 8 7 1
v 8 8 6
v 8 8 -0
v 9 4 5
v 9 4 1
v 9 7 5
v 9 7 1
v 0 5 8
v 0 7 8
v 4 5 8
v 4 7 8
v 2 0 7
v 2 1 7
v 5 0 7
v 5 1 7
v -1 4 6
v -1 12 6
v -1 13 6
v 0 5 6
v 0 7 6
v 0 10 6
v 0 11 6
v 1 10 6
v 1 11 6
v 2 10 6
v 2 11 6
v 4 1 6
v 4 4 6
v 4 5 6
v 4 7 6
v 4 8 6
v 4 12 6
v 4 13 6
v 5 0 6
v 5 1 6
v 5 4 6
v 6 0 6
v 6 1 6
v 8 4 6
v 8 8 6
v 2 0 5
v 2 1 5
v 3 0 5
v 3 1 5
v 8 4 5
v 8 7 5
v 9 4 5
v 9 7 5
v -3 9 4
v -3 11 4
v -2 8 4
v -2 9 4
v -1 8 4
v -1 9 4
v -1 11 4
v 0 13 4
v 0 15 4
v 3 13 4
v 3 15 4
v 3 1 2
v 3 2 2
v 6 1 2
v 6 2 2
v 4 3 1
v 4 4 1
v 5 2 1
v 5 3 1
v 5 4 1
v 6 1 1
v 6 2 1
v 6 3 1
v 7 1 1
v 7 2 1
v 3 1 -0
v 3 2 -0
v 4 1 -0
v 4 2 -0
v 2 0 6
v 2 1 6
v 3 0 6
v 3 1 6
v 4 1 5
v 4 4 5
v 5 0 5
v 5 1 5
v 5 4 5
v 6 0 5
v 6 1 5
v 2 0 4
v 2 1 4
v 5 0 4
v 5 1 4
v -3 9 2
v -3 11 2
v -2 8 2
v -2 9 2
v -1 8 2
v -1 9 2
v -1 11 2
v 0 13 2
v 0 15 2
v 3 13 2
v 3 15 2
v 3 1 1
v 3 2 1
v 4 1 1
v 4 2 1
v 8 4 1
v 8 7 1
v 9 4 1
v 9 7 1
v -1 4 -0
v -1 12 -0
v -1 13 -0
v 0 5 -0
v 0 7 -0
v 0 10 -0
v 0 11 -0
v 1 10 -0
v 1 11 -0
v 2 10 -0
v 2 11 -0
v 4 3 -0
v 4 4 -0
v 4 5 -0
v 4 7 -0
v 4 8 -0
v 4 12 -0
v 4 13 -0
v 5 2 -0
v 5 3 -0
v 5 4 -0
v 6 1 -0
v 6 2 -0
v 6 3 -0
v 7 1 -0
v 7 2 -0
v 8 4 -0
v 8 8 -0
v 3 1 -1
v 3 2 -1
v 6 1 -1
v 6 2 -1
v 0 5 -2
v 0 7 -2
v 4 5 -2
v 4 7 -2
v 2 0 7
v 5 0 7
v 2 0 6
v 3 0 6
v 5 0 6
v 6 0 6
v 2 0 5
v 3 0 5
v 5 0 5
v 6 0 5
v 2 0 4
v 5 0 4
v 3 1 2
v 6 1 2
v 3 1 1
v 4 1 1
v 6 1 1
v 7 1 1
v 3 1 -0
v 4 1 -0
v 6 1 -0
v 7 1 -0
v 3 1 -1
v 6 1 -1
v 4 3 1
v 5 3 1
v 4 3 -0
v 5 3 -0
v -1 4 6
v 4 4 6
v 5 4 6
v 8 4 6
v 4 4 5
v 5 4 5
v 8 4 5
v 9 4 5
v 4 4 1
v 5 4 1
v 8 4 1
v 9 4 1
v -1 4 -0
v 4 4 -0
v 5 4 -0
v 8 4 -0
v 0 5 8
v 4 5 8
v 0 5 6
v 4 5 6
v 0 5 -0
v 4 5 -0
v 0 5 -2
v 4 5 -2
v -2 8 4
v -1 8 4
v -2 8 2
v -1 8 2
v -3 9 4
v -2 9 4
v -3 9 2
v -2 9 2
v 2 1 7
v 5 1 7
v 2 1 6
v 3 1 6
v 4 1 6
v 5 1 6
v 6 1 6
v 2 1 5
v 3 1 5
v 4 1 5
v 5 1 5
v 6 1 5
v 2 1 4
v 5 1 4
v 3 2 2
v 6 2 2
v 3 2 1
v 4 2 1
v 5 2 1
v 6 2 1
v 7 2 1
v 3 2 -0
v 4 2 -0
v 5 2 -0
v 6 2 -0
v 7 2 -0
v 3 2 -1
v 6 2 -1
v 5 3 1
v 6 3 1
v 5 3 -0
v 6 3 -0
v 0 7 8
v 4 7 8
v 0 7 6
v 4 7 6
v 8 7 5
v 9 7 5
v 8 7 1
v 9 7 1
v 0 7 -0
v 4 7 -0
v 0 7 -2
v 4 7 -2
v 4 8 6
v 8 8 6
v 4 8 -0
v 8 8 -0
v -3 11 4
v -1 11 4
v -3 11 2
v -1 11 2
v -1 13 6
v 4 13 6
v 0 13 4
v 3 13 4
v 0 13 2
v 3 13 2
v -1 13 -0
v 4 13 -0
v 0 15 4
v 3 15 4
v 0 15 2
v 3 15 2

# faces
f 3/6/1 2/6/1 1/6/1
f 4/6/1 2/6/1 3/6/1
f 7/4/1 6/4/1 5/4/1
f 8/4/1 6/4/1 7/4/1
f 11/1/1 10/1/1 9/1/1
f 12/1/1 10/1/1 11/1/1
f 13/1/1 11/1/1 9/1/1
f 14/1/1 10/1/1 12/1/1
f 15/1/1 13/1/1 9/1/1
f 16/1/1 10/1/1 14/1/1
f 17/1/1 15/1/1 9/1/1
f 17/1/1 16/1/1 15/1/1
f 18/1/1 10/1/1 16/1/1
f 18/1/1 16/1/1 17/1/1
f 19/2/1 18/2/1 17/2/1
f 20/2/1 18/2/1 19/2/1
f 25/1/1 22/1/1 21/1/1
f 26/1/1 22/1/1 25/1/1
f 27/1/1 24/1/1 23/1/1
f 28/1/1 24/1/1 27/1/1
f 31/4/1 30/4/1 29/4/1
f 32/4/1 30/4/1 31/4/1
f 37/3/1 34/3/1 33/3/1
f 38/3/1 34/3/1 37/3/1
f 39/3/1 36/3/1 35/3/1
f 40/3/1 36/3/1 39/3/1
f 43/3/1 42/3/1 41/3/1
f 44/3/1 42/3/1 43/3/1
f 49/3/1 46/3/1 45/3/1
f 50/3/1 46/3/1 49/3/1
f 51/3/1 48/3/1 47/3/1
f 52/3/1 48/3/1 51/3/1
f 57/3/1 56/3/1 55/3/1
f 58/3/1 56/3/1 57/3/1
f 61/3/1 54/3/1 53/3/1
f 62/3/1 54/3/1 61/3/1
f 63/3/1 60/3/1 59/3/1
f 64/3/1 60/3/1 63/3/1
f 67/3/1 66/3/1 65/3/1
f 68/3/1 66/3/1 67/3/1
f 69/4/2 70/4/2 71/4/2
f 71/4/2 70/4/2 72/4/2
f 73/1/2 74/1/2 77/1/2
f 77/1/2 74/1/2 78/1/2
f 75/1/2 76/1/2 79/1/2
f 79/1/2 76/1/2 80/1/2
f 81/1/2 82/1/2 83/1/2
f 83/1/2 82/1/2 84/1/2
f 83/2/2 84/2/2 85/2/2
f 85/2/2 84/2/2 86/2/2
f 87/3/2 88/3/2 91/3/2
f 91/3/2 88/3/2 92/3/2
f 89/3/2 90/3/2 93/3/2
f 93/3/2 90/3/2 94/3/2
f 92/3/2 93/3/2 97/3/2
f 97/3/2 93/3/2 98/3/2
f 95/3/2 96/3/2 99/3/2
f 99/3/2 96/3/2 100/3/2
f 101/3/2 102/3/2 103/3/2
f 103/3/2 102/3/2 104/3/2
f 105/3/2 106/3/2 109/3/2
f 109/3/2 106/3/2 110/3/2
f 107/3/2 108/3/2 111/3/2
f 111/3/2 108/3/2 112/3/2
f 110/3/2 111/3/2 113/3/2
f 113/3/2 111/3/2 114/3/2
f 115/3/2 116/3/2 117/3/2
f 117/3/2 116/3/2 118/3/2
f 119/1/2 120/1/2 123/1/2
f 121/1/2 122/1/2 124/1/2
f 119/1/2 123/1/2 125/1/2
f 123/1/2 124/1/2 125/1/2
f 124/1/2 122/1/2 126/1/2
f 125/1/2 124/1/2 126/1/2
f 127/2/2 128/2/2 129/2/2
f 129/2/2 128/2/2 130/2/2
f 133/1/3 132/1/3 131/1/3
f 134/1/3 132/1/3 133/1/3
f 137/3/3 136/3/3 135/3/3
f 138/3/3 136/3/3 137/3/3
f 142/1/3 140/1/3 139/1/3
f 143/1/3 140/1/3 142/1/3
f 144/1/3 140/1/3 143/1/3
f 145/1/3 140/1/3 144/1/3
f 146/1/3 144/1/3 143/1/3
f 146/5/3 145/5/3 144/5/3
f 147/1/3 140/1/3 145/1/3
f 147/5/3 145/5/3 146/5/3
f 148/1/3 146/1/3 143/1/3
f 148/2/3 147/2/3 146/2/3
f 149/1/3 140/1/3 147/1/3
f 149/2/3 147/2/3 148/2/3
f 151/1/3 142/1/3 139/1/3
f 152/1/3 142/1/3 151/1/3
f 153/1/3 148/1/3 143/1/3
f 153/1/3 149/1/3 148/1/3
f 154/1/3 149/1/3 153/1/3
f 155/2/3 141/2/3 140/2/3
f 155/1/3 149/1/3 154/1/3
f 155/1/3 140/1/3 149/1/3
f 156/2/3 141/2/3 155/2/3
f 158/3/3 151/3/3 150/3/3
f 159/1/3 154/1/3 153/1/3
f 159/1/3 153/1/3 152/1/3
f 159/3/3 151/3/3 158/3/3
f 159/1/3 152/1/3 151/1/3
f 160/3/3 158/3/3 157/3/3
f 161/3/3 158/3/3 160/3/3
f 162/1/3 154/1/3 159/1/3
f 163/1/3 154/1/3 162/1/3
f 166/3/3 165/3/3 164/3/3
f 167/3/3 165/3/3 166/3/3
f 170/2/3 169/2/3 168/2/3
f 171/2/3 169/2/3 170/2/3
f 175/6/3 173/6/3 172/6/3
f 176/4/3 175/4/3 174/4/3
f 177/6/3 173/6/3 175/6/3
f 177/4/3 175/4/3 176/4/3
f 178/6/3 173/6/3 177/6/3
f 181/4/3 180/4/3 179/4/3
f 182/4/3 180/4/3 181/4/3
f 185/3/3 184/3/3 183/3/3
f 186/3/3 184/3/3 185/3/3
f 190/3/3 188/3/3 187/3/3
f 191/3/3 188/3/3 190/3/3
f 193/3/3 190/3/3 189/3/3
f 194/3/3 190/3/3 193/3/3
f 195/3/3 193/3/3 192/3/3
f 196/3/3 193/3/3 195/3/3
f 199/3/3 198/3/3 197/3/3
f 200/3/3 198/3/3 199/3/3
f 201/3/4 202/3/4 203/3/4
f 203/3/4 202/3/4 204/3/4
f 205/3/4 206/3/4 208/3/4
f 208/3/4 206/3/4 209/3/4
f 207/3/4 208/3/4 210/3/4
f 210/3/4 208/3/4 211/3/4
f 212/3/4 213/3/4 214/3/4
f 214/3/4 213/3/4 215/3/4
f 216/6/4 217/6/4 219/6/4
f 218/4/4 219/4/4 220/4/4
f 219/6/4 217/6/4 221/6/4
f 220/4/4 219/4/4 221/4/4
f 221/6/4 217/6/4 222/6/4
f 223/4/4 224/4/4 225/4/4
f 225/4/4 224/4/4 226/4/4
f 227/3/4 228/3/4 229/3/4
f 229/3/4 228/3/4 230/3/4
f 231/2/4 232/2/4 233/2/4
f 233/2/4 232/2/4 234/2/4
f 235/1/4 236/1/4 238/1/4
f 238/1/4 236/1/4 239/1/4
f 239/1/4 236/1/4 240/1/4
f 240/1/4 236/1/4 241/1/4
f 239/1/4 240/1/4 242/1/4
f 240/5/4 241/5/4 242/5/4
f 241/1/4 236/1/4 243/1/4
f 242/5/4 241/5/4 243/5/4
f 239/1/4 242/1/4 244/1/4
f 242/2/4 243/2/4 244/2/4
f 243/1/4 236/1/4 245/1/4
f 244/2/4 243/2/4 245/2/4
f 235/1/4 238/1/4 247/1/4
f 247/1/4 238/1/4 248/1/4
f 239/1/4 244/1/4 249/1/4
f 244/1/4 245/1/4 249/1/4
f 249/1/4 245/1/4 250/1/4
f 236/2/4 237/2/4 251/2/4
f 250/1/4 245/1/4 251/1/4
f 245/1/4 236/1/4 251/1/4
f 251/2/4 237/2/4 252/2/4
f 246/3/4 247/3/4 254/3/4
f 249/1/4 250/1/4 255/1/4
f 248/1/4 249/1/4 255/1/4
f 254/3/4 247/3/4 255/3/4
f 247/1/4 248/1/4 255/1/4
f 253/3/4 254/3/4 257/3/4
f 257/3/4 254/3/4 258/3/4
f 256/3/4 257/3/4 259/3/4
f 259/3/4 257/3/4 260/3/4
f 255/1/4 250/1/4 261/1/4
f 261/1/4 250/1/4 262/1/4
f 263/3/4 264/3/4 265/3/4
f 265/3/4 264/3/4 266/3/4
f 267/1/4 268/1/4 269/1/4
f 269/1/4 268/1/4 270/1/4
f 273/3/5 272/3/5 271/3/5
f 274/3/5 272/3/5 273/3/5
f 275/3/5 272/3/5 274/3/5
f 278/3/5 276/3/5 275/3/5
f 278/3/5 275/3/5 274/3/5
f 279/3/5 276/3/5 278/3/5
f 280/3/5 276/3/5 279/3/5
f 281/3/5 278/3/5 277/3/5
f 281/3/5 279/3/5 278/3/5
f 282/3/5 279/3/5 281/3/5
f 285/3/5 284/3/5 283/3/5
f 286/3/5 284/3/5 285/3/5
f 287/3/5 284/3/5 286/3/5
f 290/3/5 288/3/5 287/3/5
f 290/3/5 287/3/5 286/3/5
f 291/3/5 288/3/5 290/3/5
f 292/3/5 288/3/5 291/3/5
f 293/3/5 290/3/5 289/3/5
f 293/3/5 291/3/5 290/3/5
f 294/3/5 291/3/5 293/3/5
f 297/3/5 296/3/5 295/3/5
f 298/3/5 296/3/5 297/3/5
f 303/1/5 300/1/5 299/1/5
f 304/1/5 302/1/5 301/1/5
f 305/1/5 302/1/5 304/1/5
f 307/1/5 303/1/5 299/1/5
f 307/1/5 304/1/5 303/1/5
f 307/1/5 305/1/5 304/1/5
f 308/1/5 305/1/5 307/1/5
f 309/2/5 306/2/5 305/2/5
f 309/1/5 305/1/5 308/1/5
f 310/2/5 306/2/5 309/2/5
f 311/1/5 307/1/5 299/1/5
f 312/1/5 307/1/5 311/1/5
f 313/1/5 309/1/5 308/1/5
f 314/1/5 309/1/5 313/1/5
f 317/1/5 316/1/5 315/1/5
f 318/1/5 316/1/5 317/1/5
f 321/1/5 320/1/5 319/1/5
f 322/1/5 320/1/5 321/1/5
f 325/4/5 324/4/5 323/4/5
f 326/4/5 324/4/5 325/4/5
f 329/6/5 328/6/5 327/6/5
f 330/6/5 328/6/5 329/6/5
f 331/3/6 332/3/6 333/3/6
f 333/3/6 332/3/6 334/3/6
f 334/3/6 332/3/6 335/3/6
f 335/3/6 332/3/6 336/3/6
f 334/3/6 335/3/6 339/3/6
f 339/3/6 335/3/6 340/3/6
f 336/3/6 337/3/6 341/3/6
f 341/3/6 337/3/6 342/3/6
f 339/3/6 340/3/6 343/3/6
f 338/3/6 339/3/6 343/3/6
f 340/3/6 341/3/6 343/3/6
f 343/3/6 341/3/6 344/3/6
f 345/3/6 346/3/6 347/3/6
f 347/3/6 346/3/6 348/3/6
f 348/3/6 346/3/6 349/3/6
f 349/3/6 346/3/6 350/3/6
f 348/3/6 349/3/6 353/3/6
f 353/3/6 349/3/6 354/3/6
f 350/3/6 351/3/6 355/3/6
f 355/3/6 351/3/6 356/3/6
f 353/3/6 354/3/6 357/3/6
f 352/3/6 353/3/6 357/3/6
f 354/3/6 355/3/6 357/3/6
f 357/3/6 355/3/6 358/3/6
f 359/3/6 360/3/6 361/3/6
f 361/3/6 360/3/6 362/3/6
f 363/1/6 364/1/6 365/1/6
f 365/1/6 364/1/6 366/1/6
f 367/2/6 368/2/6 369/2/6
f 369/2/6 368/2/6 370/2/6
f 371/1/6 372/1/6 373/1/6
f 373/1/6 372/1/6 374/1/6
f 375/1/6 376/1/6 377/1/6
f 377/1/6 376/1/6 378/1/6
f 379/6/6 380/6/6 381/6/6
f 381/6/6 380/6/6 382/6/6
f 383/2/6 384/2/6 385/2/6
f 385/2/6 384/2/6 386/2/6
f 383/2/6 385/2/6 387/2/6
f 386/2/6 384/2/6 388/2/6
f 383/2/6 387/2/6 389/2/6
f 387/2/6 388/2/6 389/2/6
f 388/2/6 384/2/6 390/2/6
f 389/2/6 388/2/6 390/2/6
f 391/4/6 392/4/6 393/4/6
f 393/4/6 392/4/6 394/4/6
