# MagicaVoxel @ Ephtracy

# material
mtllib Chicken_Run03.mtl
usemtl palette

# normals
vn -1 0 0
vn 1 0 0
vn 0 0 1
vn 0 0 -1
vn 0 -1 0
vn 0 1 0

# texcoords
vt 0.962891 0.5
vt 0.970703 0.5
vt 0.974609 0.5
vt 0.978516 0.5
vt 0.982422 0.5
vt 0.986328 0.5

# verts
v -5 9 4
v -5 9 2
v -5 11 4
v -5 11 2
v -4 8 4
v -4 8 2
v -4 9 4
v -4 9 2
v -3 8 6
v -3 8 4
v -3 8 2
v -3 8 -0
v -3 9 4
v -3 9 2
v -3 11 4
v -3 11 2
v -3 12 6
v -3 12 -0
v -3 13 6
v -3 13 -0
v -2 4 6
v -2 4 -0
v -2 8 6
v -2 8 -0
v -2 13 4
v -2 13 2
v -2 15 4
v -2 15 2
v -1 5 8
v -1 5 6
v -1 5 -0
v -1 5 -2
v -1 7 8
v -1 7 6
v -1 7 -0
v -1 7 -2
v 1 0 7
v 1 0 6
v 1 0 5
v 1 0 4
v 1 1 7
v 1 1 6
v 1 1 5
v 1 1 4
v 2 0 6
v 2 0 5
v 2 1 6
v 2 1 5
v 3 1 6
v 3 1 5
v 3 3 6
v 3 3 5
v 4 1 2
v 4 1 1
v 4 1 -0
v 4 1 -1
v 4 2 2
v 4 2 1
v 4 2 -0
v 4 2 -1
v 4 3 6
v 4 3 5
v 4 3 1
v 4 3 -0
v 4 4 6
v 4 4 5
v 4 4 1
v 4 4 -0
v 5 1 1
v 5 1 -0
v 5 2 1
v 5 2 -0
v 5 3 1
v 5 3 -0
v 1 13 4
v 1 13 2
v 1 15 4
v 1 15 2
v 2 8 6
v 2 8 -0
v 2 12 6
v 2 12 -0
v 2 13 6
v 2 13 -0
v 3 5 8
v 3 5 6
v 3 5 -0
v 3 5 -2
v 3 7 8
v 3 7 6
v 3 7 -0
v 3 7 -2
v 4 0 7
v 4 0 6
v 4 0 5
v 4 0 4
v 4 1 7
v 4 1 6
v 4 1 5
v 4 1 4
v 4 3 6
v 4 3 5
v 5 0 6
v 5 0 5
v 5 1 6
v 5 1 5
v 5 3 6
v 5 3 5
v 5 3 1
v 5 3 -0
v 5 4 6
v 5 4 5
v 5 4 1
v 5 4 -0
v 6 2 1
v 6 2 -0
v 6 3 1
v 6 3 -0
v 7 1 2
v 7 1 1
v 7 1 -0
v 7 1 -1
v 7 2 2
v 7 2 1
v 7 2 -0
v 7 2 -1
v 7 4 6
v 7 4 5
v 7 4 1
v 7 4 -0
v 7 7 5
v 7 7 1
v 7 8 6
v 7 8 -0
v 8 1 1
v 8 1 -0
v 8 2 1
v 8 2 -0
v 8 4 5
v 8 4 1
v 8 7 5
v 8 7 1
v -1 5 8
v -1 7 8
v 3 5 8
v 3 7 8
v 1 0 7
v 1 1 7
v 4 0 7
v 4 1 7
v -3 8 6
v -3 12 6
v -3 13 6
v -2 4 6
v -2 8 6
v -2 10 6
v -2 11 6
v -1 5 6
v -1 7 6
v -1 10 6
v -1 11 6
v 0 10 6
v 0 11 6
v 2 8 6
v 2 12 6
v 2 13 6
v 3 1 6
v 3 3 6
v 3 5 6
v 3 7 6
v 4 0 6
v 4 1 6
v 4 3 6
v 4 4 6
v 5 0 6
v 5 1 6
v 5 3 6
v 5 4 6
v 7 4 6
v 7 8 6
v 1 0 5
v 1 1 5
v 2 0 5
v 2 1 5
v 7 4 5
v 7 7 5
v 8 4 5
v 8 7 5
v -5 9 4
v -5 11 4
v -4 8 4
v -4 9 4
v -3 8 4
v -3 9 4
v -3 11 4
v -2 13 4
v -2 15 4
v 1 13 4
v 1 15 4
v 4 1 2
v 4 2 2
v 7 1 2
v 7 2 2
v 4 3 1
v 4 4 1
v 5 2 1
v 5 3 1
v 5 4 1
v 6 2 1
v 6 3 1
v 7 1 1
v 7 2 1
v 8 1 1
v 8 2 1
v 4 1 -0
v 4 2 -0
v 5 1 -0
v 5 2 -0
v 1 0 6
v 1 1 6
v 2 0 6
v 2 1 6
v 3 1 5
v 3 3 5
v 4 0 5
v 4 1 5
v 4 3 5
v 4 4 5
v 5 0 5
v 5 1 5
v 5 3 5
v 5 4 5
v 1 0 4
v 1 1 4
v 4 0 4
v 4 1 4
v -5 9 2
v -5 11 2
v -4 8 2
v -4 9 2
v -3 8 2
v -3 9 2
v -3 11 2
v -2 13 2
v -2 15 2
v 1 13 2
v 1 15 2
v 4 1 1
v 4 2 1
v 5 1 1
v 5 2 1
v 7 4 1
v 7 7 1
v 8 4 1
v 8 7 1
v -3 8 -0
v -3 12 -0
v -3 13 -0
v -2 4 -0
v -2 8 -0
v -2 10 -0
v -2 11 -0
v -1 5 -0
v -1 7 -0
v -1 10 -0
v -1 11 -0
v 0 10 -0
v 0 11 -0
v 2 8 -0
v 2 12 -0
v 2 13 -0
v 3 5 -0
v 3 7 -0
v 4 3 -0
v 4 4 -0
v 5 2 -0
v 5 3 -0
v 5 4 -0
v 6 2 -0
v 6 3 -0
v 7 1 -0
v 7 2 -0
v 7 4 -0
v 7 8 -0
v 8 1 -0
v 8 2 -0
v 4 1 -1
v 4 2 -1
v 7 1 -1
v 7 2 -1
v -1 5 -2
v -1 7 -2
v 3 5 -2
v 3 7 -2
v 1 0 7
v 4 0 7
v 1 0 6
v 2 0 6
v 4 0 6
v 5 0 6
v 1 0 5
v 2 0 5
v 4 0 5
v 5 0 5
v 1 0 4
v 4 0 4
v 4 1 2
v 7 1 2
v 4 1 1
v 5 1 1
v 7 1 1
v 8 1 1
v 4 1 -0
v 5 1 -0
v 7 1 -0
v 8 1 -0
v 4 1 -1
v 7 1 -1
v 4 3 6
v 5 3 6
v 4 3 5
v 5 3 5
v 4 3 1
v 5 3 1
v 4 3 -0
v 5 3 -0
v -2 4 6
v 4 4 6
v 5 4 6
v 7 4 6
v 4 4 5
v 5 4 5
v 7 4 5
v 8 4 5
v 4 4 1
v 5 4 1
v 7 4 1
v 8 4 1
v -2 4 -0
v 4 4 -0
v 5 4 -0
v 7 4 -0
v -1 5 8
v 3 5 8
v -1 5 6
v 3 5 6
v -1 5 -0
v 3 5 -0
v -1 5 -2
v 3 5 -2
v -3 8 6
v -2 8 6
v -4 8 4
v -3 8 4
v -4 8 2
v -3 8 2
v -3 8 -0
v -2 8 -0
v -5 9 4
v -4 9 4
v -5 9 2
v -4 9 2
v 1 1 7
v 4 1 7
v 1 1 6
v 2 1 6
v 3 1 6
v 4 1 6
v 5 1 6
v 1 1 5
v 2 1 5
v 3 1 5
v 4 1 5
v 5 1 5
v 1 1 4
v 4 1 4
v 4 2 2
v 7 2 2
v 4 2 1
v 5 2 1
v 6 2 1
v 7 2 1
v 8 2 1
v 4 2 -0
v 5 2 -0
v 6 2 -0
v 7 2 -0
v 8 2 -0
v 4 2 -1
v 7 2 -1
v 3 3 6
v 4 3 6
v 3 3 5
v 4 3 5
v 5 3 1
v 6 3 1
v 5 3 -0
v 6 3 -0
v -1 7 8
v 3 7 8
v -1 7 6
v 3 7 6
v 7 7 5
v 8 7 5
v 7 7 1
v 8 7 1
v -1 7 -0
v 3 7 -0
v -1 7 -2
v 3 7 -2
v 2 8 6
v 7 8 6
v 2 8 -0
v 7 8 -0
v -5 11 4
v -3 11 4
v -5 11 2
v -3 11 2
v -3 13 6
v 2 13 6
v -2 13 4
v 1 13 4
v -2 13 2
v 1 13 2
v -3 13 -0
v 2 13 -0
v -2 15 4
v 1 15 4
v -2 15 2
v 1 15 2

# faces
f 3/6/1 2/6/1 1/6/1
f 4/6/1 2/6/1 3/6/1
f 7/4/1 6/4/1 5/4/1
f 8/4/1 6/4/1 7/4/1
f 13/1/1 10/1/1 9/1/1
f 14/1/1 12/1/1 11/1/1
f 15/1/1 13/1/1 9/1/1
f 16/1/1 12/1/1 14/1/1
f 17/1/1 15/1/1 9/1/1
f 17/1/1 16/1/1 15/1/1
f 18/1/1 12/1/1 16/1/1
f 18/1/1 16/1/1 17/1/1
f 19/2/1 18/2/1 17/2/1
f 20/2/1 18/2/1 19/2/1
f 23/1/1 22/1/1 21/1/1
f 24/1/1 22/1/1 23/1/1
f 27/4/1 26/4/1 25/4/1
f 28/4/1 26/4/1 27/4/1
f 33/1/1 30/1/1 29/1/1
f 34/1/1 30/1/1 33/1/1
f 35/1/1 32/1/1 31/1/1
f 36/1/1 32/1/1 35/1/1
f 41/3/1 38/3/1 37/3/1
f 42/3/1 38/3/1 41/3/1
f 43/3/1 40/3/1 39/3/1
f 44/3/1 40/3/1 43/3/1
f 47/3/1 46/3/1 45/3/1
f 48/3/1 46/3/1 47/3/1
f 51/3/1 50/3/1 49/3/1
f 52/3/1 50/3/1 51/3/1
f 57/3/1 54/3/1 53/3/1
f 58/3/1 54/3/1 57/3/1
f 59/3/1 56/3/1 55/3/1
f 60/3/1 56/3/1 59/3/1
f 65/3/1 62/3/1 61/3/1
f 66/3/1 62/3/1 65/3/1
f 67/3/1 64/3/1 63/3/1
f 68/3/1 64/3/1 67/3/1
f 71/3/1 70/3/1 69/3/1
f 72/3/1 70/3/1 71/3/1
f 73/3/1 72/3/1 71/3/1
f 74/3/1 72/3/1 73/3/1
f 75/4/2 76/4/2 77/4/2
f 77/4/2 76/4/2 78/4/2
f 79/1/2 80/1/2 81/1/2
f 81/1/2 80/1/2 82/1/2
f 81/2/2 82/2/2 83/2/2
f 83/2/2 82/2/2 84/2/2
f 85/1/2 86/1/2 89/1/2
f 89/1/2 86/1/2 90/1/2
f 87/1/2 88/1/2 91/1/2
f 91/1/2 88/1/2 92/1/2
f 93/3/2 94/3/2 97/3/2
f 97/3/2 94/3/2 98/3/2
f 95/3/2 96/3/2 99/3/2
f 99/3/2 96/3/2 100/3/2
f 98/3/2 99/3/2 101/3/2
f 101/3/2 99/3/2 102/3/2
f 103/3/2 104/3/2 105/3/2
f 105/3/2 104/3/2 106/3/2
f 107/3/2 108/3/2 111/3/2
f 111/3/2 108/3/2 112/3/2
f 109/3/2 110/3/2 113/3/2
f 113/3/2 110/3/2 114/3/2
f 115/3/2 116/3/2 117/3/2
f 117/3/2 116/3/2 118/3/2
f 119/3/2 120/3/2 123/3/2
f 123/3/2 120/3/2 124/3/2
f 121/3/2 122/3/2 125/3/2
f 125/3/2 122/3/2 126/3/2
f 127/1/2 128/1/2 131/1/2
f 129/1/2 130/1/2 132/1/2
f 127/1/2 131/1/2 133/1/2
f 131/1/2 132/1/2 133/1/2
f 132/1/2 130/1/2 134/1/2
f 133/1/2 132/1/2 134/1/2
f 135/3/2 136/3/2 137/3/2
f 137/3/2 136/3/2 138/3/2
f 139/2/2 140/2/2 141/2/2
f 141/2/2 140/2/2 142/2/2
f 145/1/3 144/1/3 143/1/3
f 146/1/3 144/1/3 145/1/3
f 149/3/3 148/3/3 147/3/3
f 150/3/3 148/3/3 149/3/3
f 155/1/3 152/1/3 151/1/3
f 156/1/3 152/1/3 155/1/3
f 157/1/3 152/1/3 156/1/3
f 158/1/3 155/1/3 154/1/3
f 158/1/3 156/1/3 155/1/3
f 159/1/3 156/1/3 158/1/3
f 160/5/3 157/5/3 156/5/3
f 160/1/3 156/1/3 159/1/3
f 161/1/3 152/1/3 157/1/3
f 161/5/3 157/5/3 160/5/3
f 162/1/3 160/1/3 159/1/3
f 162/2/3 161/2/3 160/2/3
f 163/1/3 152/1/3 161/1/3
f 163/2/3 161/2/3 162/2/3
f 164/1/3 162/1/3 159/1/3
f 164/1/3 163/1/3 162/1/3
f 165/2/3 153/2/3 152/2/3
f 165/1/3 163/1/3 164/1/3
f 165/1/3 152/1/3 163/1/3
f 166/2/3 153/2/3 165/2/3
f 169/1/3 158/1/3 154/1/3
f 170/1/3 164/1/3 159/1/3
f 172/3/3 168/3/3 167/3/3
f 173/3/3 168/3/3 172/3/3
f 174/1/3 169/1/3 154/1/3
f 174/1/3 170/1/3 169/1/3
f 175/3/3 172/3/3 171/3/3
f 176/3/3 172/3/3 175/3/3
f 177/3/3 174/3/3 173/3/3
f 178/1/3 170/1/3 174/1/3
f 178/3/3 174/3/3 177/3/3
f 179/1/3 170/1/3 178/1/3
f 180/1/3 164/1/3 170/1/3
f 180/1/3 170/1/3 179/1/3
f 183/3/3 182/3/3 181/3/3
f 184/3/3 182/3/3 183/3/3
f 187/2/3 186/2/3 185/2/3
f 188/2/3 186/2/3 187/2/3
f 192/6/3 190/6/3 189/6/3
f 193/4/3 192/4/3 191/4/3
f 194/6/3 190/6/3 192/6/3
f 194/4/3 192/4/3 193/4/3
f 195/6/3 190/6/3 194/6/3
f 198/4/3 197/4/3 196/4/3
f 199/4/3 197/4/3 198/4/3
f 202/3/3 201/3/3 200/3/3
f 203/3/3 201/3/3 202/3/3
f 207/3/3 205/3/3 204/3/3
f 208/3/3 205/3/3 207/3/3
f 209/3/3 207/3/3 206/3/3
f 210/3/3 207/3/3 209/3/3
f 213/3/3 212/3/3 211/3/3
f 214/3/3 212/3/3 213/3/3
f 217/3/3 216/3/3 215/3/3
f 218/3/3 216/3/3 217/3/3
f 219/3/4 220/3/4 221/3/4
f 221/3/4 220/3/4 222/3/4
f 223/3/4 224/3/4 226/3/4
f 226/3/4 224/3/4 227/3/4
f 225/3/4 226/3/4 229/3/4
f 229/3/4 226/3/4 230/3/4
f 227/3/4 228/3/4 231/3/4
f 231/3/4 228/3/4 232/3/4
f 233/3/4 234/3/4 235/3/4
f 235/3/4 234/3/4 236/3/4
f 237/6/4 238/6/4 240/6/4
f 239/4/4 240/4/4 241/4/4
f 240/6/4 238/6/4 242/6/4
f 241/4/4 240/4/4 242/4/4
f 242/6/4 238/6/4 243/6/4
f 244/4/4 245/4/4 246/4/4
f 246/4/4 245/4/4 247/4/4
f 248/3/4 249/3/4 250/3/4
f 250/3/4 249/3/4 251/3/4
f 252/2/4 253/2/4 254/2/4
f 254/2/4 253/2/4 255/2/4
f 256/1/4 257/1/4 260/1/4
f 260/1/4 257/1/4 261/1/4
f 261/1/4 257/1/4 262/1/4
f 259/1/4 260/1/4 263/1/4
f 260/1/4 261/1/4 263/1/4
f 263/1/4 261/1/4 264/1/4
f 261/5/4 262/5/4 265/5/4
f 264/1/4 261/1/4 265/1/4
f 262/1/4 257/1/4 266/1/4
f 265/5/4 262/5/4 266/5/4
f 264/1/4 265/1/4 267/1/4
f 265/2/4 266/2/4 267/2/4
f 266/1/4 257/1/4 268/1/4
f 267/2/4 266/2/4 268/2/4
f 264/1/4 267/1/4 269/1/4
f 267/1/4 268/1/4 269/1/4
f 257/2/4 258/2/4 270/2/4
f 269/1/4 268/1/4 270/1/4
f 268/1/4 257/1/4 270/1/4
f 270/2/4 258/2/4 271/2/4
f 259/1/4 263/1/4 272/1/4
f 264/1/4 269/1/4 273/1/4
f 259/1/4 272/1/4 275/1/4
f 272/1/4 273/1/4 275/1/4
f 274/3/4 275/3/4 277/3/4
f 275/1/4 273/1/4 278/1/4
f 277/3/4 275/3/4 278/3/4
f 276/3/4 277/3/4 279/3/4
f 279/3/4 277/3/4 280/3/4
f 278/1/4 273/1/4 283/1/4
f 273/1/4 269/1/4 284/1/4
f 283/1/4 273/1/4 284/1/4
f 281/3/4 282/3/4 285/3/4
f 285/3/4 282/3/4 286/3/4
f 287/3/4 288/3/4 289/3/4
f 289/3/4 288/3/4 290/3/4
f 291/1/4 292/1/4 293/1/4
f 293/1/4 292/1/4 294/1/4
f 297/3/5 296/3/5 295/3/5
f 298/3/5 296/3/5 297/3/5
f 299/3/5 296/3/5 298/3/5
f 302/3/5 300/3/5 299/3/5
f 302/3/5 299/3/5 298/3/5
f 303/3/5 300/3/5 302/3/5
f 304/3/5 300/3/5 303/3/5
f 305/3/5 302/3/5 301/3/5
f 305/3/5 303/3/5 302/3/5
f 306/3/5 303/3/5 305/3/5
f 309/3/5 308/3/5 307/3/5
f 310/3/5 308/3/5 309/3/5
f 311/3/5 308/3/5 310/3/5
f 314/3/5 312/3/5 311/3/5
f 314/3/5 311/3/5 310/3/5
f 315/3/5 312/3/5 314/3/5
f 316/3/5 312/3/5 315/3/5
f 317/3/5 314/3/5 313/3/5
f 317/3/5 315/3/5 314/3/5
f 318/3/5 315/3/5 317/3/5
f 321/3/5 320/3/5 319/3/5
f 322/3/5 320/3/5 321/3/5
f 325/3/5 324/3/5 323/3/5
f 326/3/5 324/3/5 325/3/5
f 331/1/5 328/1/5 327/1/5
f 332/1/5 330/1/5 329/1/5
f 333/1/5 330/1/5 332/1/5
f 335/1/5 331/1/5 327/1/5
f 335/1/5 332/1/5 331/1/5
f 335/1/5 333/1/5 332/1/5
f 336/1/5 333/1/5 335/1/5
f 337/2/5 334/2/5 333/2/5
f 337/1/5 333/1/5 336/1/5
f 338/2/5 334/2/5 337/2/5
f 339/1/5 335/1/5 327/1/5
f 340/1/5 335/1/5 339/1/5
f 341/1/5 337/1/5 336/1/5
f 342/1/5 337/1/5 341/1/5
f 345/1/5 344/1/5 343/1/5
f 346/1/5 344/1/5 345/1/5
f 349/1/5 348/1/5 347/1/5
f 350/1/5 348/1/5 349/1/5
f 354/1/5 352/1/5 351/1/5
f 355/4/5 354/4/5 353/4/5
f 356/1/5 352/1/5 354/1/5
f 356/4/5 354/4/5 355/4/5
f 357/1/5 352/1/5 356/1/5
f 358/1/5 352/1/5 357/1/5
f 361/6/5 360/6/5 359/6/5
f 362/6/5 360/6/5 361/6/5
f 363/3/6 364/3/6 365/3/6
f 365/3/6 364/3/6 366/3/6
f 366/3/6 364/3/6 367/3/6
f 367/3/6 364/3/6 368/3/6
f 366/3/6 367/3/6 371/3/6
f 371/3/6 367/3/6 372/3/6
f 368/3/6 369/3/6 373/3/6
f 373/3/6 369/3/6 374/3/6
f 371/3/6 372/3/6 375/3/6
f 370/3/6 371/3/6 375/3/6
f 372/3/6 373/3/6 375/3/6
f 375/3/6 373/3/6 376/3/6
f 377/3/6 378/3/6 379/3/6
f 379/3/6 378/3/6 380/3/6
f 380/3/6 378/3/6 381/3/6
f 381/3/6 378/3/6 382/3/6
f 382/3/6 383/3/6 386/3/6
f 381/3/6 382/3/6 386/3/6
f 386/3/6 383/3/6 387/3/6
f 387/3/6 383/3/6 388/3/6
f 384/3/6 385/3/6 389/3/6
f 385/3/6 386/3/6 389/3/6
f 386/3/6 387/3/6 389/3/6
f 389/3/6 387/3/6 390/3/6
f 391/3/6 392/3/6 393/3/6
f 393/3/6 392/3/6 394/3/6
f 395/3/6 396/3/6 397/3/6
f 397/3/6 396/3/6 398/3/6
f 399/1/6 400/1/6 401/1/6
f 401/1/6 400/1/6 402/1/6
f 403/2/6 404/2/6 405/2/6
f 405/2/6 404/2/6 406/2/6
f 407/1/6 408/1/6 409/1/6
f 409/1/6 408/1/6 410/1/6
f 411/1/6 412/1/6 413/1/6
f 413/1/6 412/1/6 414/1/6
f 415/6/6 416/6/6 417/6/6
f 417/6/6 416/6/6 418/6/6
f 419/2/6 420/2/6 421/2/6
f 421/2/6 420/2/6 422/2/6
f 419/2/6 421/2/6 423/2/6
f 422/2/6 420/2/6 424/2/6
f 419/2/6 423/2/6 425/2/6
f 423/2/6 424/2/6 425/2/6
f 424/2/6 420/2/6 426/2/6
f 425/2/6 424/2/6 426/2/6
f 427/4/6 428/4/6 429/4/6
f 429/4/6 428/4/6 430/4/6
